<?xml version="1.0" encoding="UTF-8"?>
<!DOCTYPE svg PUBLIC "-//W3C//DTD SVG 1.1//EN" "http://www.w3.org/Graphics/SVG/1.1/DTD/svg11.dtd">
<!-- Creator: CorelDRAW -->
<svg xmlns="http://www.w3.org/2000/svg" xml:space="preserve" width="987.032mm" height="423.333mm" version="1.1" style="shape-rendering:geometricPrecision; text-rendering:geometricPrecision; image-rendering:optimizeQuality; fill-rule:evenodd; clip-rule:evenodd"
viewBox="0 0 32556.29 13963.24"
 xmlns:xlink="http://www.w3.org/1999/xlink"
 xmlns:xodm="http://www.corel.com/coreldraw/odm/2003">
 <defs>
  <style type="text/css">
   <![CDATA[
    .fil0 {fill:#212121;fill-rule:nonzero}
   ]]>
  </style>
 </defs>
 <g id="Capa_x0020_1">
  <metadata id="CorelCorpID_0Corel-Layer"/>
  <path class="fil0" d="M34.77 20.44l9498.12 5.75 0.03 -20.38 3243.07 38.6 2516.82 5607.35 38.66 -5645.95 7589.07 -5.8 0.01 27.14 9635.75 17.31 -79.17 1900.64 5.81 12010.42 -3295.25 -7.72 -52.18 -3443.95 -2993.89 -2057.12 0 5516.52 -3279.81 -1.92 0 -1.89 -3197.86 3.81 -7.72 -10691.16 -1072.01 -3.89 9.64 10687.32 -3270.12 0 -2507.19 -5667.19 -32.85 5674.92 -3164.53 -13.1 -0.02 12.29 -9592.1 -1.92 1.92 -7967.69 3845.73 -3.89 -3874.7 -2750.51 34.77 -3217.99zm9494.04 3272.9l-3757.31 33.9 3753.96 2644.96 3.34 -2678.86zm-7.45 5967.79l-6231.91 9.54 -3.89 1431.3 3059.59 19.33 23.21 -743.65 3152.09 3.71 0.9 -720.22zm3135.72 -9035.57l-2941.85 -35.02 -16.95 13577.38 2903.94 12.02 36.73 -6345.44 2803.84 6337.76 2968.35 0 -9.64 -10687.27 1437.13 5.21 7.72 10690.28 2897.36 -3.45 -5.65 -13594.34 -7225.31 5.52 -43.16 6303.5 -2812.52 -6266.14zm13453.6 3065.8l326.44 886.61 -316.75 56.01 86.89 330.33 2993.94 2078.31 -9.69 -3351.26 -3080.83 0z"/>
 </g>
</svg>
