<?xml version="1.0" encoding="UTF-8"?>
<!DOCTYPE svg PUBLIC "-//W3C//DTD SVG 1.1//EN" "http://www.w3.org/Graphics/SVG/1.1/DTD/svg11.dtd">
<!-- Creator: CorelDRAW -->
<svg xmlns="http://www.w3.org/2000/svg" xml:space="preserve" width="522.734mm" height="511.353mm" version="1.1" style="shape-rendering:geometricPrecision; text-rendering:geometricPrecision; image-rendering:optimizeQuality; fill-rule:evenodd; clip-rule:evenodd"
viewBox="0 0 15797.95 15454.01"
 xmlns:xlink="http://www.w3.org/1999/xlink"
 xmlns:xodm="http://www.corel.com/coreldraw/odm/2003">
 <defs>
  <style type="text/css">
   <![CDATA[
    .fil0 {fill:#212121}
   ]]>
  </style>
 </defs>
 <g id="Capa_x0020_1">
  <metadata id="CorelCorpID_0Corel-Layer"/>
  <path class="fil0" d="M10914.42 8354.33l125.97 246.63c142.21,15.77 142.23,102.29 200.94,202.3 -153.05,-45.54 -103.16,-25.03 -181.13,-19.7 -35.32,2.41 -26.61,-6.34 -59.54,-11.31 -55.88,-8.42 -76.69,12.94 -125.02,5.57 -48.32,-7.36 -73.62,-15.15 -125.69,-18.77 25.12,-109.39 111.98,-300.04 164.46,-404.72zm-6761.21 6014.11l17.84 -31.03 20.7 11.9c17.61,10.13 31.58,13.65 43.12,9.22 13.63,-5.23 27.53,-20.86 43.44,-48.55l179.9 -312.88c30.33,-52.75 41.65,-103.51 34.72,-146.71 -6.61,-41.2 -30.37,-76.01 -70.55,-99.11 -45.77,-26.32 -92.55,-31.63 -134.9,-17.79 -43.27,14.14 -82.71,48.31 -112.77,100.59l-179.9 312.89c-15.91,27.67 -22.4,47.56 -20.06,62.08 1.96,12.16 12.02,22.42 29.6,32.52l20.71 11.9 -29.74 51.73 -189.26 -108.82 29.74 -51.73 20.7 11.91c17.61,10.13 31.58,13.65 43.13,9.22 13.63,-5.23 27.53,-20.86 43.44,-48.55l185.83 -323.2c37.26,-64.81 90.45,-105.73 151.57,-120.81 60.71,-14.97 128.56,-4.16 195.59,34.38l3.14 1.83c65.27,38.39 107.67,90.87 124.99,149.95 17.71,60.4 9.1,126.94 -28.16,191.74l-185.83 323.2c-15.9,27.66 -22.4,47.56 -20.06,62.08 1.97,12.16 12.02,22.42 29.6,32.53l20.71 11.9 -29.74 51.73 -249.44 -143.42 11.91 -20.7zm-430.96 -240.26l-122.79 -87.32 60.99 -622.84 -235.28 330.85c-18.48,25.99 -26.86,45.15 -25.92,59.79 0.79,12.3 9.81,23.49 26.34,35.24l19.49 13.86 -34.63 48.68 -177.97 -126.56 34.62 -48.69 19.5 13.87c16.54,11.76 30.08,16.61 41.98,13.31 14.08,-3.9 29.41,-18.11 47.91,-44.14l271.22 -381.4c18.48,-25.99 26.86,-45.15 25.92,-59.79 -0.79,-12.3 -9.81,-23.49 -26.34,-35.24l-19.49 -13.86 34.63 -48.68 142.28 101.18 -60.98 622.84 235.28 -330.86c18.48,-25.99 26.86,-45.15 25.92,-59.79 -0.79,-12.3 -9.81,-23.49 -26.34,-35.24l-19.49 -13.86 34.62 -48.69 177.97 126.56 -34.62 48.68 -19.5 -13.87c-16.54,-11.76 -30.08,-16.61 -41.98,-13.31 -14.08,3.9 -29.41,18.11 -47.92,44.14l-271.22 381.4c-18.48,25.99 -26.86,45.15 -25.93,59.79 0.79,12.3 9.81,23.49 26.34,35.24l19.48 13.85 -34.61 48.69 -19.5 -13.87zm-585.08 -442.02l-233.08 -201.9c-86.46,-74.89 -135.81,-169.02 -146.13,-264.8 -10.38,-96.35 18.68,-194.02 89.12,-275.34 70.43,-81.31 162.98,-124.01 259.88,-127.47 96.27,-3.44 196.44,31.97 282.87,106.83l251.16 217.56 -39.11 45.15 -18.06 -15.65c-15.31,-13.27 -28.34,-19.37 -40.55,-17.21 -14.42,2.54 -31.03,15.2 -51.89,39.28l-306.42 353.74c-20.91,24.14 -31.1,42.41 -31.56,57.02 -0.39,12.33 7.52,24.34 22.87,37.63l18.09 15.66 -39.11 45.15 -18.07 -15.65zm307.15 -636.46l-65.85 -57.04c-66.77,-57.83 -149.17,-79.5 -231.78,-67.25 -83.87,12.44 -168.21,59.71 -237.34,139.51l-1.12 1.31c-48.84,57 -71.03,123.34 -67.25,187.28 3.8,64.2 33.85,126.37 89.45,174.53l106.35 92.13 407.54 -470.48zm-948.86 64.07l-326.5 -376.92 14.99 -15.7c21.22,-22.23 36.67,-39.14 50.84,-56.8 14.03,-17.49 27.09,-36.12 43.69,-62l17.25 -26.92 39.24 45.28 -7.1 14.25c-21.9,43.96 -38.14,76.75 -40.73,104.54 -2.4,25.7 7.09,50.74 35.36,83.37l97.29 112.32 470.48 -407.54 -110.29 -127.33c-28.25,-32.61 -51.62,-45.55 -77.32,-46.84 -28.07,-1.41 -62.83,9.99 -109.44,25.38l-15.1 4.98 -39.22 -45.3 29.2 -13.28c27.86,-12.67 48.14,-22.94 67.51,-34.37 19.68,-11.61 38.58,-24.46 63.45,-42.18l17.7 -12.61 355.15 410 -45.15 39.11 -15.66 -18.09c-13.29,-15.34 -25.3,-23.25 -37.63,-22.87 -14.61,0.46 -32.87,10.65 -57.02,31.56l-353.74 306.42c-24.08,20.86 -36.74,37.47 -39.28,51.89 -2.15,12.22 3.95,25.24 17.21,40.55l15.65 18.06 -45.14 39.11 -15.67 -18.09zm250.41 -607.79l33.6 38.78 -37.15 9.76c-28.8,7.56 -62.33,22.63 -96.35,41.74 -38.41,21.57 -77,48.05 -110.07,74.69l-17.95 14.46 -38.57 -44.52 18.09 -15.66c15.34,-13.29 23.25,-25.3 22.86,-37.63 -0.46,-14.61 -10.65,-32.87 -31.56,-57.02l-124.56 -143.8 -181.29 157.04c-24.08,20.86 -36.74,37.47 -39.28,51.88 -2.15,12.22 3.95,25.24 17.21,40.55l15.65 18.07 -45.15 39.1 -219.51 -253.41c-57.19,-66.03 -88.69,-133.89 -94.15,-196.06 -5.74,-65.28 16.67,-123.94 67.55,-168.02 40.67,-35.22 87.97,-51.02 138.01,-48.26 40.21,2.22 81.84,16.59 122.75,42.6l65.11 -195.95 -0.06 -0.02c12.48,-38.08 17.51,-65.96 15.39,-88.19 -1.93,-20.2 -10.31,-36.72 -24.9,-53.55l-15.65 -18.07 45.15 -39.11 132.31 152.74 -112.03 337.1 73.49 84.84 127.33 -110.3c24.08,-20.86 36.74,-37.47 39.28,-51.88 2.15,-12.22 -3.94,-25.24 -17.21,-40.55l-15.65 -18.07 45.15 -39.1 188.41 217.51 -45.14 39.11 -15.67 -18.09c-13.29,-15.34 -25.3,-23.25 -37.63,-22.87 -14.61,0.46 -32.87,10.65 -57.02,31.56l-127.31 110.28 118.74 137.07c19.46,22.46 35.01,35.55 58.45,38.42 27.38,3.35 67.36,-4.53 134.41,-24.5l14.78 -4.4 10.15 11.71zm-466.21 -216.81l-73.94 -85.36c-35.81,-41.35 -76.52,-64.24 -117,-68.95 -40.41,-4.7 -81.4,8.79 -117.65,40.2 -36.28,31.42 -55.48,70.05 -56.6,110.65 -1.12,40.73 15.77,84.31 51.62,125.7l73.92 85.34 239.65 -207.59zm-301.66 -1049.33l-423.12 450.65c-29.12,30.9 -42.92,51.74 -46.34,69.07 -3.02,15.3 2.74,30.71 13.03,50.8l10.88 21.24 -53.11 27.21 -134.32 -262.27 53.11 -27.21 10.9 21.28c7.88,15.39 15.29,22.94 22.69,22.46 11.6,-0.75 27.76,-12.54 49.3,-35.61l340.07 -362.39 4.83 -5.33 -277.23 35.95 -143.42 152.68c-29.13,30.9 -42.93,51.74 -46.34,69.07 -3.02,15.31 2.74,30.71 13.03,50.79l10.88 21.24 -53.11 27.21 -134.32 -262.26 53.11 -27.21 10.9 21.28c7.88,15.38 15.29,22.94 22.69,22.45 11.6,-0.75 27.76,-12.54 49.3,-35.61l340.07 -362.39 4.76 -5.25 -499.69 65.23c-30.39,3.87 -48.2,10.93 -54.97,20.73 -5.17,7.48 -3.02,19.81 5.39,36.25l10.88 21.24 -53.11 27.21 -99.97 -195.2 53.11 -27.21 10.9 21.28c9.4,18.35 21.15,29.52 37.24,35.04 18.59,6.38 43.79,6.54 77.69,2.23l554.67 -72.71c0.76,-4.93 0.65,-9.68 -0.16,-14.45 -1.76,-10.33 -6.62,-21.53 -13.25,-34.47l-10.88 -21.25 53.12 -27.19 92.69 180.98 -226.53 241.86 254.62 -33.37c0.76,-4.93 0.65,-9.69 -0.16,-14.46 -1.76,-10.33 -6.62,-21.53 -13.25,-34.47l-10.88 -21.24 53.11 -27.21 92.71 181.01 -11.52 12.27zm-1090.71 -686.12l33.28 -13.12 8.81 22.34c7.42,18.81 16.1,30.21 27.85,33.93 13.98,4.43 34.6,0.89 64.31,-10.83l435.38 -171.67c29.64,-11.68 47.08,-23.13 54.24,-35.86 6.07,-10.78 4.62,-25.11 -2.83,-44.02l-8.76 -22.21 55.62 -21.93 105.58 267.77 -55.61 21.93 -8.81 -22.34c-7.42,-18.81 -16.1,-30.22 -27.85,-33.94 -13.98,-4.43 -34.6,-0.89 -64.31,10.83l-435.38 171.67c-29.64,11.68 -47.08,23.13 -54.24,35.85 -6.07,10.78 -4.62,25.11 2.84,44.02l8.76 22.21 -55.62 21.93 -105.58 -267.77 22.34 -8.81zm625.03 -284.52l-33.96 11.49 -7.67 -22.67c-6.52,-19.26 -14.64,-31.14 -26.18,-35.43 -13.66,-5.08 -34.41,-2.54 -64.68,7.7l-443.31 150c-30.26,10.24 -48.29,20.83 -56.07,33.18 -6.57,10.43 -5.82,24.78 0.69,44.02l7.67 22.69 -56.63 19.16 -92.25 -272.65 56.63 -19.16 7.67 22.67c6.52,19.26 14.64,31.14 26.18,35.43 13.66,5.08 34.41,2.54 64.68,-7.7l516.45 -174.74 -34.91 -103.17c-6.52,-19.26 -14.64,-31.14 -26.18,-35.43 -13.66,-5.08 -34.41,-2.54 -64.68,7.7l-443.31 150c-30.26,10.24 -48.29,20.83 -56.07,33.18 -6.57,10.43 -5.82,24.78 0.69,44.02l7.67 22.68 -56.62 19.16 -92.26 -272.66 56.63 -19.15 7.67 22.67c6.52,19.26 14.64,31.14 26.18,35.43 13.66,5.08 34.41,2.54 64.68,-7.7l515.38 -174.39c-12.11,-26.57 -26.56,-41.62 -45.18,-50.34 -25.4,-11.89 -61.86,-14.47 -110.79,-17.83l-15.97 -1.1 -19.22 -56.79 32.12 -1.17c28.43,-1.03 50.11,-2.8 71.18,-5.75 13.67,-1.91 26.98,-4.29 41.59,-7.26l-0.29 -0.86c-13.84,-40.92 -30.61,-61.76 -53.92,-72.67 -25.4,-11.89 -61.86,-14.47 -110.79,-17.83l-15.97 -1.1 -19.19 -56.71 32 -1.26c30.32,-1.19 53,-3.05 75.59,-6.36 22.39,-3.28 44.79,-8.05 74.7,-15.1l21.13 -4.98 261.58 773.08 -22.67 7.67zm-1287.3 -1972.2c-66.98,-79.34 -108.96,-192.39 -112.4,-328.17 -0.94,-37.42 -0.07,-72.22 2.5,-104.53 2.23,-27.97 5.75,-54.64 10.5,-80.05 -36.72,-38.48 -66.32,-83.61 -87.6,-137.25 -22.74,-57.33 -35.86,-124.22 -37.85,-202.98 -1.61,-63.64 8.89,-120.06 25.33,-161.99 20.67,-52.72 52.68,-85.03 85.59,-85.86 13.73,-0.34 25.13,4.2 33.56,12.59 8.32,8.27 12.93,19.61 13.27,32.99 0.63,24.76 -11.38,37.39 -34.18,61.38l-0.37 0.47 -0.05 -0.02c-13.06,13.83 -32.91,39.07 -46.5,72.25 -9.16,22.34 -15.44,48.28 -14.72,76.64 1.44,57.04 13.99,105.37 34.91,146.45 15.52,30.49 35.71,57.05 59.41,80.27 25.71,-64.25 62.06,-114.16 106.64,-150.08 55.04,-44.35 122.16,-67.1 196.9,-68.99 137.86,-3.48 262.65,57.23 363.78,138.22 158.29,126.76 259.51,307.23 261,365.86 0.41,16.51 -5.23,31.73 -14.78,42.97 -3.72,4.38 -8.03,8.18 -12.8,11.25 42.87,25.48 79.16,53.32 109.51,83.6 86.95,86.76 124.8,192.43 128,319.07 1.61,63.64 -8.89,120.07 -25.33,161.99 -20.67,52.72 -52.68,85.03 -85.59,85.86 -13.9,0.35 -25.4,-4.31 -33.88,-12.91 -8.12,-8.23 -12.63,-19.46 -12.96,-32.67 -0.33,-13.07 3.4,-23.58 10.92,-34.56 5.73,-8.37 13.33,-16.37 23.28,-26.84 13.06,-13.74 33.18,-39.16 46.92,-72.68 9.16,-22.34 15.44,-48.28 14.72,-76.63 -2.45,-96.88 -36.96,-168.02 -106.97,-223.87 -72.97,-58.21 -184.52,-101.1 -337.98,-139.47l-204.63 -51.36c-15.99,-4 -31.78,-8.07 -47.36,-12.22 25.7,13.28 50.14,30.87 71.55,52.17 45.87,45.64 78.31,108.4 80.18,182.33 1.44,56.98 -17.36,106.88 -50.36,143.03 -33.26,36.44 -80.65,58.71 -136.07,60.11 -109.01,2.76 -206.03,-43.38 -276.06,-126.34zm197.09 -340.02c5.36,-0.08 10.77,0.06 16.22,0.42 -33.37,-10.65 -65.45,-22.06 -96.05,-34.56 -59.46,-24.29 -112.94,-52.62 -158.94,-87.29 -2.01,12.72 -3.58,25.97 -4.75,39.76 -2.44,28.92 -3.14,59.57 -2.32,92 3.26,129.17 42.32,229.5 102.07,296.69 58.52,65.8 137.19,99.8 221.27,97.68 37.72,-0.95 69.72,-15.89 91.96,-40.35 22.5,-24.74 35.3,-59.48 34.28,-99.66 -1.57,-61.93 -30.69,-112.92 -70.77,-148.2 -40.19,-35.38 -90.89,-54.86 -135.62,-53.73 -25.98,0.66 -46.68,9.29 -60.45,23.97 -13.8,14.72 -21.2,36.14 -20.54,62.33 0.69,27.16 9.12,50.23 25.51,65.42 15.18,14.06 38.02,22.1 68.86,21.32 16.32,-0.41 30.29,4.87 40.5,13.94l-0.04 0.05c10.78,9.6 17.08,23.03 17.46,38.25 0.39,15.48 -5.43,29.41 -16.07,39.58 -9.68,9.25 -23.17,15.03 -39.22,15.43 -33.12,0.84 -73.2,-20.22 -104.43,-55.72 -29.93,-34.01 -52.84,-81.98 -54.23,-136.79l-0.1 -0.56 0.09 -0 -0.04 -1.97c-0.53,-43.19 13.18,-79.48 38.24,-105.55 25.06,-26.05 60.9,-41.3 104.64,-42.4l2.47 -0.04zm334.09 -54.25c85.36,21.4 158.81,46.21 221.57,74.58l-0.11 -2.58c-0.32,-12.71 1.18,-23.72 2.73,-35.04 4.03,-29.56 8.44,-61.88 -36.31,-124.16l-0.09 -0.09c-37.49,-52.53 -120.08,-114.15 -221.09,-159.02 -85.06,-37.78 -182.57,-63.25 -276.46,-60.87 -61.95,1.57 -112.34,14.87 -151.86,39.8 -33.95,21.42 -60.29,51.87 -79.44,91.25 47.42,31.3 102.03,55.21 158.48,74.69 63.43,21.9 130.25,38.48 191.86,53.7l190.74 47.74zm-323.91 -641.68c-63.43,-73.87 -96.77,-173.3 -88.31,-284.64 8.47,-111.39 56.49,-204.68 130.4,-268.15 73.87,-63.43 173.3,-96.77 284.64,-88.31 111.39,8.47 204.68,56.49 268.14,130.4 63.43,73.87 96.77,173.29 88.31,284.62 -8.47,111.41 -56.48,204.7 -130.4,268.16 -73.87,63.43 -173.29,96.77 -284.62,88.31 -111.42,-8.47 -204.7,-56.49 -268.17,-130.4zm65.21 -469.73c-50.09,35.76 -82.24,89.03 -87.13,153.25 -6.46,84.91 26.41,161.46 87.27,218.84 62.23,58.67 153.66,97.69 262.7,105.98 79.83,6.07 150.21,-12.6 201.62,-49.3 50.09,-35.76 82.24,-89.03 87.13,-153.25 6.46,-84.91 -26.4,-161.46 -87.27,-218.84 -62.23,-58.67 -153.66,-97.69 -262.7,-105.98 -79.82,-6.07 -150.22,12.6 -201.62,49.3zm723.86 -644.83l-616.86 41.31c-42.35,2.75 -66.63,8.6 -80.94,18.95 -12.56,9.09 -18.83,24.26 -25,45.96l-6.56 23.1 -57.5 -16.32 80.52 -283.56 57.5 16.33 -6.52 22.95c-4.75,16.72 -4.53,27.31 1.12,31.93l0.09 0c9.03,7.38 28.93,9.78 60.47,7.57l495.79 -33.34 7.04 -0.6 -227.31 -162.64 -209.06 13.95c-42.34,2.75 -66.63,8.6 -80.93,18.95 -12.56,9.08 -18.83,24.26 -25,45.96l-6.56 23.1 -57.5 -16.34 80.52 -283.55 57.51 16.33 -6.52 22.95c-4.75,16.72 -4.53,27.31 1.12,31.93l0.09 0c9.03,7.38 28.93,9.78 60.47,7.58l495.79 -33.34 6.96 -0.59 -410.03 -292.86c-24.85,-17.86 -42.71,-24.82 -54.43,-22.24 -8.8,1.93 -15.59,12.37 -20.61,30.06l-6.56 23.1 -57.5 -16.34 59.93 -211.06 57.51 16.33 -6.52 22.95c-5.68,20.01 -4.74,36.23 3.22,51.14 9.19,17.23 27.54,34.5 55.35,54.51l455.48 324.94c3.86,-3.07 7.01,-6.62 9.66,-10.67 5.7,-8.69 9.78,-20.19 13.75,-34.2l6.56 -23.1 57.51 16.33 -55.56 195.66 -330.62 22.55 209.05 149.15c3.86,-3.07 7.01,-6.62 9.66,-10.67 5.7,-8.69 9.78,-20.19 13.75,-34.2l6.56 -23.1 57.5 16.33 -55.57 195.69 -16.83 1.13zm-334.6 -1247.96l33.4 13.17 -8.75 22.21c-7.45,18.91 -8.91,33.24 -2.83,44.02 7.16,12.72 24.61,24.17 54.24,35.85l175.19 69.07 101.73 -258 -175.06 -69.02c-29.71,-11.71 -50.33,-15.25 -64.31,-10.83 -11.76,3.72 -20.44,15.13 -27.86,33.94l-8.81 22.34 -55.61 -21.93 105.58 -267.77 55.62 21.93 -8.76 22.21c-7.46,18.91 -8.91,33.24 -2.84,44.02 7.16,12.72 24.61,24.17 54.24,35.85l435.38 171.67c29.71,11.71 50.33,15.25 64.31,10.83 11.76,-3.72 20.44,-15.13 27.85,-33.94l8.81 -22.34 1.96 0.77 5.62 -10.98c9.41,-18.37 11.61,-34.44 6.69,-50.74 -5.67,-18.78 -20.3,-39.33 -43.69,-64.38l-383.08 -407.57c-4.44,2.26 -8.23,5.12 -11.61,8.55 -7.3,7.42 -13.55,17.92 -20.2,30.89l-10.9 21.28 -53.11 -27.21 92.69 -180.99 629.63 82.17c42.17,5.58 67.18,4.61 83.25,-2.75 14.07,-6.45 23.2,-20.12 33.5,-40.25l10.89 -21.28 53.11 27.19 -134.32 262.26 -53.11 -27.19 10.88 -21.24c7.91,-15.43 9.73,-25.88 5.03,-31.58 -7.41,-9 -26.44,-15.24 -57.77,-19.24l-176.52 -23.18 -100.33 195.89 122 129.7c20.93,22.42 37.05,32.76 48.91,32.53 9.09,-0.18 17.83,-9.12 26.24,-25.55l10.89 -21.28 53.11 27.21 -99.97 195.2 -0.52 -0.26 -99.25 251.73 -55.62 -21.93 8.76 -22.21c7.46,-18.91 8.91,-33.24 2.84,-44.02 -7.16,-12.72 -24.61,-24.17 -54.24,-35.85l-204.71 -80.71 -101.73 258 204.58 80.66c29.71,11.71 50.33,15.25 64.31,10.83 11.76,-3.72 20.44,-15.13 27.85,-33.93l8.81 -22.34 55.62 21.93 -105.58 267.77 -55.62 -21.93 8.76 -22.21c7.46,-18.91 8.91,-33.24 2.84,-44.02 -7.16,-12.72 -24.61,-24.17 -54.24,-35.85l-435.38 -171.67c-29.71,-11.71 -50.33,-15.25 -64.31,-10.83 -11.76,3.72 -20.44,15.13 -27.86,33.94l-8.81 22.34 -55.61 -21.93 105.58 -267.77 22.21 8.76zm427.11 -673.91l179.54 191.66 80.69 -157.55 -253.08 -33.34 -0.01 0.05 -7.14 -0.82zm103.85 -461.08l279.3 -435.67 19.38 9.97c27.44,14.11 48.04,24.17 68.79,32.68 20.88,8.56 42.43,15.83 71.79,24.37l30.75 8.95 -32.3 50.41 -15.65 -2.77c-48.28,-8.55 -84.28,-14.84 -111.92,-9.42 -25.29,4.96 -46.59,21.13 -69.86,57.44l-21.32 33.26 458.99 294.25c26.86,17.22 46.4,24.67 60.97,23.03 12.22,-1.38 22.95,-10.92 33.9,-28.01l12.91 -20.14 50.33 32.25 -155.34 242.32 -50.32 -32.27 12.93 -20.16c10.93,-17.05 15.1,-30.79 11.24,-42.53 -4.58,-13.91 -19.5,-28.54 -46.35,-45.75l-458.97 -294.23 -21.34 33.28c-23.3,36.34 -29.1,62.44 -23.06,87.46 6.61,27.39 27.35,57.47 55.27,97.76l9.07 13.1 -32.29 50.36 -20.96 -24.2c-19.98,-23.07 -35.57,-39.62 -52.12,-55.06 -16.79,-15.67 -34.44,-30.14 -58.37,-48.91l-17.17 -13.46 11.74 -18.3zm488.28 -717.49l319.77 -406.92 18.32 11.77c25.88,16.63 45.41,28.6 65.35,39.11 20.19,10.64 40.94,19.95 69.13,31.18l29.78 11.86 -36.94 47.03 -15.37 -4.27c-47.22,-13.13 -82.44,-22.84 -110.48,-20.09 -25.62,2.51 -48.37,16.57 -75.05,50.53l-24.4 31.06 428.66 336.86c25.14,19.76 43.86,29.07 58.44,28.83 12.29,-0.2 23.89,-8.69 36.45,-24.68l14.8 -18.83 47.03 36.95 -177.86 226.34 -47.03 -36.96 14.81 -18.84c12.56,-15.98 18.05,-29.27 15.33,-41.29 -3.21,-14.2 -16.68,-30.18 -41.81,-49.93l-428.65 -336.85 -24.41 31.06c-26.67,33.94 -34.94,59.39 -31.32,84.94 3.95,27.87 21.7,59.78 45.62,102.54l7.78 13.9 -36.96 47.05 -18.55 -26.11c-17.85,-25.12 -31.79,-43.11 -46.6,-59.87 -14.81,-16.75 -31.08,-32.91 -53.47,-54.24l-15.79 -15.04 13.45 -17.11zm603.45 -668.99l25.95 24.73 -16.5 17.31c-14.04,14.72 -20.78,27.44 -19.22,39.68 1.84,14.46 13.72,31.65 36.84,53.69l136.28 129.93 191.39 -200.75 -136.24 -129.89c-23.08,-22.01 -40.83,-33.04 -55.43,-34.2 -12.34,-0.98 -24.71,6.33 -38.67,20.98l-16.53 17.34 -43.25 -41.23 198.6 -208.3 43.25 41.23 -16.49 17.3c-14.03,14.72 -20.78,27.44 -19.22,39.68 1.84,14.46 13.72,31.65 36.84,53.69l338.72 322.94c23.09,22.01 40.84,33.04 55.43,34.2 12.34,0.98 24.7,-6.33 38.67,-20.98l16.53 -17.34 43.25 41.23 -198.6 208.31 -43.24 -41.24 16.49 -17.29c14.04,-14.72 20.78,-27.44 19.22,-39.68 -1.84,-14.46 -13.72,-31.65 -36.84,-53.69l-159.24 -151.82 -191.4 200.75 159.21 151.78c23.09,22.01 40.84,33.04 55.43,34.2 12.34,0.98 24.7,-6.33 38.67,-20.98l16.53 -17.34 43.24 41.24 -198.6 208.3 -43.24 -41.24 16.49 -17.29c14.04,-14.72 20.78,-27.44 19.22,-39.68 -1.84,-14.46 -13.72,-31.65 -36.84,-53.69l-338.72 -322.94c-23.08,-22.01 -40.84,-33.04 -55.43,-34.2 -12.34,-0.98 -24.71,6.33 -38.67,20.98l-16.53 17.34 -43.24 -41.24 198.59 -208.3 17.31 16.49zm491.79 -385.91c11.54,-96.19 61.86,-187.52 148.85,-256.43l1.39 -1.11c87.85,-69.03 189.02,-96.69 285.67,-85.1 96.2,11.53 187.54,61.86 256.44,148.86l1.09 1.38c69.03,87.85 96.69,189.03 85.1,285.67 -11.54,96.2 -61.87,187.55 -148.88,256.45l-1.36 1.08c-87.84,69.03 -189.02,96.68 -285.66,85.09 -96.19,-11.54 -187.53,-61.86 -256.44,-148.85l-1.1 -1.38c-69.03,-87.85 -96.68,-189.02 -85.09,-285.67zm390.38 -269.41c-60.24,-12.74 -121.21,-0.44 -171.84,39.32l-0.05 0.04c-66.94,52.61 -101.17,128.54 -102.34,212.14 -1.2,85.52 31.84,179.29 99.45,265.33l0.19 0.24c49.43,62.81 110.68,101.99 172.37,115.04 60.26,12.74 121.26,0.44 171.89,-39.35 66.98,-52.64 101.22,-128.64 102.35,-212.31 1.16,-85.47 -31.88,-179.19 -99.45,-265.17 -49.47,-62.95 -110.79,-102.21 -172.56,-115.27zm377.99 -400.19l19.35 30.18 -20.14 12.91c-17.09,10.96 -26.64,21.68 -28.01,33.9 -1.64,14.57 5.81,34.11 23.03,60.97l194.86 303.96c32.84,51.17 72.54,84.56 113.88,98.3 38.87,12.92 79.91,8.31 118.36,-15.52l0.78 -0.78 2.13 -1.07c44.14,-28.51 70.22,-67.4 77.37,-111.1 7.33,-44.77 -4.77,-95.35 -37.15,-146.01l-0.04 0.02 -0.19 -0.38 -194.79 -303.84c-17.21,-26.85 -31.84,-41.77 -45.75,-46.35 -11.74,-3.87 -25.48,0.31 -42.53,11.24l-20.17 12.92 -32.26 -50.32 183.88 -117.88 32.27 50.32 -20.14 12.92c-17.08,10.95 -26.63,21.68 -28.01,33.9 -1.64,14.57 5.81,34.11 23.03,60.97l201.21 313.86c40.32,62.89 52.11,128.97 37.31,190.2 -14.52,60.11 -54.55,114.75 -118.2,156.26 -0.44,0.44 -2.24,1.45 -3.04,1.96 -64.9,41.41 -131.92,55.35 -193.1,43.36 -61.01,-11.96 -115.5,-49.45 -155.69,-110.94 -31.92,-31.92 -166.92,-260.35 -202.77,-316.26 -17.21,-26.85 -31.84,-41.77 -45.75,-46.36 -11.74,-3.87 -25.48,0.31 -42.53,11.24l-20.16 12.93 -32.27 -50.32 242.32 -155.34 12.91 20.14zm1162.97 134.66l-429.49 -444.57c-29.46,-30.61 -49.59,-45.41 -66.7,-49.65 -15.04,-3.73 -30.73,1.29 -51.37,10.62l-21.8 9.85 -24.64 -54.48 268.62 -121.44 24.62 54.49 -21.84 9.88c-15.79,7.14 -23.72,14.14 -23.6,21.48 0.18,11.63 11.18,28.37 33.22,51.04l345.57 357.51 4.81 4.82 -22.41 -278.69 -145.44 -150.62c-29.46,-30.61 -49.59,-45.41 -66.71,-49.66 -15.04,-3.73 -30.72,1.29 -51.36,10.62l-21.8 9.85 -24.64 -54.48 268.61 -121.44 24.63 54.49 -21.84 9.88c-15.79,7.14 -23.71,14.14 -23.6,21.47 0.19,11.63 11.19,28.37 33.22,51.04l345.57 357.51 4.75 4.76 -40.81 -502.3c-2.38,-30.52 -8.54,-48.62 -17.95,-55.83 -7.2,-5.51 -19.62,-3.96 -36.46,3.65l-21.8 9.85 -24.63 -54.49 199.94 -90.39 24.63 54.48 -21.84 9.88c-18.89,8.54 -30.65,19.7 -36.9,35.37 -7.2,18.07 -8.55,43.29 -5.87,77.61l45.58 557.5c4.88,0.99 9.64,1.11 14.44,0.53 10.22,-1.24 21.66,-5.57 34.99,-11.59l21.79 -9.86 24.63 54.49 -185.32 83.77 -230.52 -238.03 20.92 255.89c4.88,0.99 9.64,1.1 14.45,0.52 10.22,-1.24 21.66,-5.56 34.99,-11.59l21.79 -9.86 24.64 54.48 -185.34 83.79 -11.76 -12.17zm742.86 -1048.91l11.49 33.96 -22.67 7.67c-19.26,6.52 -31.13,14.64 -35.43,26.18 -5.08,13.66 -2.54,34.41 7.7,64.68l150 443.31c10.24,30.27 20.83,48.29 33.18,56.07 10.43,6.57 24.78,5.82 44.01,-0.69l22.68 -7.68 19.16 56.62 -272.65 92.25 -19.16 -56.63 22.67 -7.67c19.26,-6.52 31.14,-14.64 35.43,-26.18 5.08,-13.66 2.54,-34.41 -7.7,-64.68l-150 -443.31c-10.24,-30.26 -20.83,-48.29 -33.18,-56.07 -10.43,-6.57 -24.78,-5.82 -44.02,0.69l-22.69 7.67 -19.16 -56.63 272.65 -92.25 7.67 22.67zm249.47 641.32l-9.78 -34.4 23.11 -6.56c19.45,-5.52 31.66,-13.04 36.54,-24.4 5.78,-13.45 4.29,-34.32 -4.44,-65.04l-127.84 -450.2c-8.7,-30.65 -18.39,-49.15 -30.38,-57.56 -10.08,-7.07 -24.47,-7.03 -44.04,-1.47l-22.96 6.52 -16.33 -57.5 276.87 -78.62 16.34 57.5 -23.11 6.56c-19.45,5.52 -31.66,13.04 -36.53,24.4 -5.78,13.45 -4.28,34.31 4.44,65.04l148.91 524.38 143.01 -40.61c41.45,-11.77 63.06,-27.47 75.11,-50.2 13.18,-24.87 17.57,-61.14 23.34,-109.84l1.88 -15.85 57.59 -16.36 -0.33 31.96c-0.31,30.62 0.4,53.39 2.57,75.92 2.16,22.43 5.82,45.04 11.38,75.28l3.93 21.4 -502.72 142.76 -6.56 -23.1zm297.04 -826.27l504.18 -116.37 6.91 20.71c9.5,28.49 17.16,49.88 26.45,71.4 9.17,21.24 19.48,41.49 34.25,67.67l15.72 27.85 -58.32 13.46 -9.28 -12.96c-28.54,-39.84 -49.88,-69.48 -73.39,-84.89 -21.58,-14.14 -48.13,-17.47 -90.17,-7.77l-38.47 8.88 122.62 531.28c7.18,31.11 15.93,50.1 27.46,59.07 9.7,7.55 24.07,8.21 43.9,3.64l23.28 -5.38 13.44 58.24 -280.45 64.73 -13.44 -58.23 23.36 -5.39c19.78,-4.57 32.39,-11.46 37.8,-22.5 6.42,-13.11 5.95,-34.03 -1.24,-65.21l-122.6 -531.2 -38.55 8.9c-42.07,9.71 -64.47,24.31 -77.62,46.4 -14.33,24.07 -20.53,60.11 -28.73,108.49l-2.68 15.79 -58.35 13.47 1.93 -31.93c1.85,-30.74 2.27,-53.53 1.25,-75.95 -1.04,-22.61 -3.57,-45.35 -7.6,-75.77l-2.86 -21.53 21.22 -4.9zm1395.63 55.37l-28.14 2.14 -7.48 -13.53c-35.01,-63.31 -77.17,-110.71 -122.75,-141.4 -45.68,-30.76 -94.92,-44.72 -143.75,-41.01 -42.77,3.25 -74.49,15.66 -94.5,34.24 -18.36,17.05 -26.92,40.04 -24.94,66.19 6.67,87.68 107.14,121.29 210.66,155.92 125.6,42.01 255.17,85.36 265.82,225.49 4.19,55.12 -8.33,113.9 -53.51,158.32 -35.12,34.53 -89.46,59.52 -170.3,65.66 -75.53,5.74 -130.78,-13.09 -171.33,-26.9 -19.78,-6.74 -35.41,-12.06 -44.38,-11.38 -0.09,0.01 0.67,6.72 1.07,11.52 0,8.13 1.52,18.66 2.21,27.01l-58.85 4.48 -2.67 -22.92c-4.11,-35.3 -12.06,-71.05 -24.43,-107.2 -12.4,-36.22 -29.29,-72.91 -51.27,-110.03l-19.64 -33.16 66.61 -5.06 7.48 13.53c36.99,66.87 82.56,121.15 134.49,156.41 47.13,32 99.8,48.34 156.24,44.05 45.67,-3.47 79.76,-17.02 101.37,-37.41 20.04,-18.9 29.42,-44.47 27.21,-73.67 -6.67,-87.68 -107.14,-121.29 -210.66,-155.92 -125.6,-42.02 -255.17,-85.36 -265.82,-225.49 -4.55,-59.81 15.08,-110.87 53.79,-148.51 37.57,-36.53 92.85,-59.66 160.88,-64.83 57.16,-4.34 104.18,5.41 141.21,13.1 21.19,4.4 38.69,8.03 50.26,7.15 0.1,-0.01 -0.67,-6.72 -1.07,-11.52 0,-8.14 -1.52,-18.66 -2.21,-27.02l58.85 -4.47 2.67 22.92c4.11,35.3 12.06,71.05 24.43,107.2 12.4,36.22 29.3,72.91 51.27,110.03l19.63 33.15 -38.46 2.92zm355.9 -243.49l0.9 35.74 -23.93 0.61c-20.25,0.51 -33.98,4.77 -41.53,14.56 -8.94,11.59 -12.68,32.17 -11.88,64.09l4.76 188.19 277.33 -7.01 -4.76 -188.27c-0.8,-31.86 -5.59,-52.2 -15.11,-63.33 -8.04,-9.39 -21.98,-12.94 -42.29,-12.43l-23.85 0.6 -1.5 -59.68 287.66 -7.27 1.5 59.68 -23.93 0.61c-20.25,0.51 -33.98,4.77 -41.53,14.55 -8.94,11.59 -12.68,32.17 -11.88,64.09l11.83 467.85c0.81,31.86 5.59,52.2 15.11,63.33 8.04,9.4 21.98,12.95 42.29,12.44l23.85 -0.6 0.46 18.03 14.12 1.08c20.67,1.57 36.34,-2.59 49.39,-13.38 15.13,-12.51 28.42,-33.93 42.44,-65.12l227.57 -511.08c-3.8,-3.24 -7.89,-5.63 -12.34,-7.4 -9.45,-3.77 -21.62,-5.46 -36.34,-6.58l-23.93 -1.82 4.54 -59.65 202.79 15.42 167.97 612.48 0.09 0c11.17,41.03 21.73,63.68 34.69,75.6 11.36,10.45 27.5,13.57 50.06,15.28l17.3 1.31 0.52 -2.24 23.28 5.37c19.83,4.58 34.21,3.91 43.9,-3.64 11.53,-8.98 20.28,-27.96 27.46,-59.07l105.25 -456.02c7.2,-31.18 7.66,-52.1 1.25,-65.21 -5.41,-11.04 -18.02,-17.94 -37.8,-22.5l-23.36 -5.39 13.44 -58.23 280.46 64.73 -13.45 58.23 -23.27 -5.37c-19.83,-4.58 -34.2,-3.91 -43.9,3.64 -11.53,8.98 -20.28,27.96 -27.46,59.07l-122.62 531.28 106.1 24.49c19.83,4.58 34.2,3.91 43.9,-3.64 11.53,-8.98 20.28,-27.96 27.46,-59.07l105.25 -456.01c7.2,-31.18 7.66,-52.1 1.24,-65.21 -5.41,-11.05 -18.02,-17.94 -37.8,-22.51l-23.36 -5.39 13.44 -58.23 280.45 64.73 -13.44 58.24 -23.28 -5.37c-19.83,-4.58 -34.2,-3.91 -43.9,3.64 -11.53,8.98 -20.28,27.96 -27.46,59.07l-122.37 530.18c28.93,3.63 49.33,-0.78 66.56,-12.07 23.52,-15.41 44.86,-45.05 73.4,-84.89l9.28 -12.96 58.46 13.49 -15.86 27.92c-14.02,24.68 -23.9,44.05 -32.5,63.61 -5.57,12.67 -10.54,25.24 -15.69,39.22l0.84 0.19c42.05,9.7 68.6,6.37 90.18,-7.77 23.52,-15.41 44.86,-45.05 73.39,-84.89l9.28 -12.96 58.33 13.45 -15.72 27.86c-14.77,26.17 -25.08,46.43 -34.25,67.67 -9.29,21.52 -16.96,42.91 -26.45,71.4l-6.91 20.71 -780.09 -180.04 -0.05 0.68 -293.96 -22.35 4.53 -59.65 23.86 1.82c17.3,1.31 27.63,-1.03 31.04,-7.52 5.43,-10.33 3.83,-30.29 -4.62,-60.75l-46.88 -171.62 -219.54 -16.69 -72.3 162.52c-12.57,27.97 -15.84,46.88 -10.99,57.82 3.65,8.24 15.25,12.81 33.62,14.21l23.93 1.82 -4.54 59.65 -218.82 -16.64 1.28 -16.9 -273.62 6.92 -1.52 -59.68 23.94 -0.6c20.25,-0.51 33.98,-4.77 41.53,-14.56 8.94,-11.59 12.68,-32.17 11.88,-64.09l-5.56 -219.9 -277.33 7.01 5.56 219.99c0.81,31.86 5.59,52.2 15.11,63.33 8.04,9.4 21.98,12.95 42.29,12.43l23.85 -0.61 1.5 59.68 -287.65 7.27 -1.52 -59.68 23.94 -0.6c20.25,-0.51 33.98,-4.77 41.53,-14.56 8.94,-11.59 12.68,-32.17 11.88,-64.09l-11.83 -467.85c-0.8,-31.86 -5.59,-52.2 -15.11,-63.33 -8.04,-9.4 -21.99,-12.95 -42.29,-12.44l-23.85 0.6 -1.5 -59.68 287.66 -7.28 0.6 23.94zm791.15 147.58l-107.21 239.69 176.49 13.42 -67.21 -246.26 -0.07 0.02 -2 -6.87zm1647.69 193.86l246.08 83.26c70.17,23.74 127.46,59.23 162.32,101.83 35.23,43.04 48.25,92.97 30.41,145.68 -15.56,46 -47.25,74.91 -86.04,91.95 -16.6,7.29 -34.47,12.3 -52.84,15.48 34.34,22.65 61.53,48.89 80.81,77.63 35.14,52.35 44.32,112.33 23.52,173.81 -21.55,63.69 -67.43,106.58 -130.14,125.97 -59.65,18.44 -134.37,14.96 -217.04,-13.01l-317.59 -107.46 19.16 -56.62 22.69 7.68c19.23,6.51 33.59,7.26 44.02,0.69 12.35,-7.78 22.94,-25.81 33.18,-56.07l150 -443.31c10.24,-30.27 12.78,-51.02 7.7,-64.68 -4.29,-11.54 -16.17,-19.67 -35.43,-26.18l-22.67 -7.67 19.16 -56.63 22.69 7.68zm-43.82 705.34l106.94 36.18c52.27,17.69 99.32,16.69 136.76,-0.11 36.66,-16.45 64.79,-48.61 80.07,-93.66l0.06 -0.18c15.26,-45.11 12.43,-87.83 -6.78,-123.29 -19.49,-35.99 -56.18,-65.29 -108.32,-82.97l-107.14 -36.25 -101.6 300.28zm120.76 -356.9l71.25 24.11c32.23,10.9 68.98,7.48 100.45,-8.33 29.4,-14.77 54.07,-40.47 65.92,-75.5 10.19,-30.13 4.72,-61.14 -13.1,-88.05 -19.06,-28.78 -52,-53.14 -95.23,-67.77l-50.57 -17.11 -78.72 232.65zm572.24 -100.82l454.44 205.44 -7.02 20.54c-9.98,29.18 -16.95,51.03 -22.36,72.82 -5.44,21.89 -9.51,44.3 -13.71,74.67l-4.39 31.73 -54.52 -24.65 0.47 -15.92c1.46,-48.94 2.46,-85.42 -6.96,-112.1 -8.57,-24.3 -27.65,-43.02 -66.95,-60.79l-135.41 -61.22 -109.34 241.86 61.27 27.7c29.12,13.16 49.53,17.72 63.66,14 11.91,-3.14 21.15,-14.14 29.5,-32.62l9.87 -21.85 53.68 24.27 -8.77 21.41c-16.12,39.35 -30.5,83.87 -40.2,126.74 -8.6,38.04 -13.48,74.48 -12.51,104.3l1.25 38.39 -60.79 -27.47 0.01 -15.48c0.01,-69.97 -3.84,-110.55 -14.86,-135.84 -9.41,-21.57 -26.42,-32.75 -53.56,-45.02l-53.19 -24.05 -122.41 270.77 153.43 69.37c39.35,17.79 66.03,19.74 89.95,10.13 26.1,-10.49 52.85,-35.38 88.68,-68.85l11.63 -10.87 54.54 24.65 -20.94 24.29c-20,23.2 -34.12,41.03 -46.92,59.52 -12.6,18.21 -24.43,37.93 -39.87,64.93l-10.81 18.89 -494.33 -223.48 24.63 -54.49 21.8 9.86c18.55,8.39 32.78,10.56 43.78,5.06 13.03,-6.52 25.32,-23.42 38.49,-52.54l192.79 -426.45c13.16,-29.12 17.72,-49.53 14,-63.66 -3.14,-11.91 -14.13,-21.15 -32.62,-29.5l-21.85 -9.88 24.63 -54.49 21.8 9.86zm856.61 391.22l601.91 428.03 -10.85 18.81c-15.32,26.56 -26.33,46.63 -35.95,67.2 -9.32,19.93 -17.59,41.14 -27.72,70.59l-10.42 30.29 -48.81 -34.7 3.52 -15.5c10.84,-47.74 18.84,-83.33 14.73,-111.34 -3.74,-25.51 -18.86,-47.58 -54.01,-72.57l-212.41 -151.05 -315.97 444.33c-18.48,25.99 -26.86,45.15 -25.93,59.79 0.79,12.3 9.8,23.49 26.34,35.24l32.33 22.99c16.54,11.76 30.08,16.61 41.98,13.31 14.08,-3.9 29.41,-18.11 47.91,-44.14l209.74 -294.94c18.48,-25.99 26.86,-45.15 25.92,-59.79 -0.79,-12.3 -9.81,-23.49 -26.34,-35.24l-19.48 -13.86 34.61 -48.69 234.54 166.78 -34.61 48.69 -19.5 -13.87c-16.54,-11.76 -30.08,-16.61 -41.98,-13.31 -14.08,3.9 -29.41,18.11 -47.92,44.14l-47.62 66.96 226.05 160.75 109.11 -153.44c18.48,-25.99 26.86,-45.15 25.93,-59.79 -0.79,-12.3 -9.81,-23.48 -26.34,-35.24l-19.49 -13.86 34.62 -48.69 653.73 464.88 -10.85 18.81c-15.32,26.56 -26.33,46.63 -35.95,67.2 -9.31,19.93 -17.6,41.15 -27.72,70.59l-10.42 30.29 -48.81 -34.7 3.52 -15.5c10.84,-47.74 18.84,-83.33 14.73,-111.34 -3.74,-25.52 -18.86,-47.58 -54,-72.57l-121.1 -86.12 -153.85 216.36 54.85 39c25.99,18.48 45.15,26.86 59.79,25.93 12.3,-0.79 23.49,-9.8 35.24,-26.34l13.85 -19.49 47.98 34.11 -12.68 19.26c-23.27,35.33 -45.92,76.26 -63.8,116.72 -15.79,35.73 -27.59,70.55 -32.36,99.9l-6.17 37.93 -54.43 -38.72 2.96 -15.1c13.5,-68.82 17.56,-109.41 11.64,-136.18 -5.08,-22.98 -19.64,-37.23 -43.93,-54.51l-47.57 -33.83 -172.24 242.22 137.28 97.62c35.14,24.99 60.94,32.03 86.27,27.19 27.67,-5.29 58.71,-24.55 100.28,-50.5l13.49 -8.42 48.83 34.72 -25.16 19.77c-24.29,19.08 -41.61,33.87 -57.58,49.41 -16.24,15.81 -31.57,32.79 -51.64,55.99l-14.23 16.45 -669.91 -476.39 34.62 -48.69 19.5 13.87c16.54,11.76 30.08,16.61 41.98,13.31 14.08,-3.9 29.41,-18.11 47.92,-44.14l127.49 -179.28 -226.05 -160.75 -127.5 179.29c-18.48,25.99 -26.86,45.15 -25.92,59.79 0.79,12.3 9.81,23.49 26.34,35.24l19.49 13.86 -34.62 48.69 -462.41 -328.83 34.62 -48.68 19.5 13.87c16.54,11.76 30.08,16.61 41.98,13.31 14.08,-3.9 29.41,-18.11 47.91,-44.14l315.97 -444.32 -32.23 -22.92c-35.14,-24.99 -60.94,-32.03 -86.27,-27.19 -27.67,5.29 -58.7,24.55 -100.29,50.5l-13.5 8.42 -48.82 -34.73 25.17 -19.76c24.3,-19.07 41.61,-33.87 57.58,-49.41 16.24,-15.81 31.57,-32.79 51.64,-55.99l14.23 -16.45 17.73 12.61zm463.62 1166.76l32.32 22.98c16.54,11.76 30.08,16.61 41.98,13.31 14.08,-3.9 29.41,-18.11 47.91,-44.14l127.49 -179.28 -122.62 -87.2 -127.5 179.29c-18.48,25.99 -26.86,45.15 -25.92,59.79 0.79,12.3 9.81,23.49 26.34,35.24zm393.03 -484.27l-32.32 -22.98c-16.54,-11.76 -30.08,-16.61 -41.98,-13.31 -14.08,3.9 -29.41,18.11 -47.91,44.14l-109.1 153.42 122.63 87.2 109.11 -153.43c18.48,-25.99 26.86,-45.15 25.92,-59.79 -0.79,-12.3 -9.81,-23.49 -26.34,-35.24zm392.65 1264.88l303.6 -538.46 0 -0.09c20.94,-36.97 29.38,-60.52 28.56,-78.2 -0.71,-15.4 -9.99,-28.99 -24.81,-46.1l-15.65 -18.07 45.15 -39.1 192.97 222.77 -45.15 39.1 -15.66 -18.08c-11.32,-13.07 -20.33,-18.64 -27.4,-16.41 -11.05,3.48 -23.93,18.79 -39.38,46.37l-244.03 433.08 -3.34 6.13 260.76 -100.98 102.86 -182.33 0 -0.09c20.94,-36.96 29.38,-60.51 28.56,-78.2 -0.71,-15.4 -9.99,-28.99 -24.81,-46.09l-15.65 -18.07 45.15 -39.11 192.97 222.77 -45.15 39.1 -15.66 -18.08c-11.32,-13.07 -20.32,-18.64 -27.4,-16.41 -11.05,3.48 -23.93,18.79 -39.38,46.37l-244.03 433.08 -3.3 6.05 469.7 -182.36 0.09 0c28.53,-10.97 44.12,-22.08 48.37,-33.25 3.24,-8.5 -1.77,-19.95 -13.84,-33.88l-15.65 -18.07 45.14 -39.11 143.63 165.81 -45.15 39.11 -15.66 -18.08c-13.56,-15.66 -27.63,-23.74 -44.5,-25.27 -19.49,-1.76 -44.02,4.11 -76.01,16.41l0.01 0.03 -521.4 202.72c0.42,4.98 1.64,9.57 3.55,13.98l0.03 -0.02c4.12,9.49 11.54,19.25 21.14,30.32l15.65 18.06 -45.15 39.11 -133.16 -153.73 162.4 -288.84 -239.33 93.05c0.43,4.97 1.66,9.56 3.57,13.97 4.12,9.49 11.54,19.24 21.14,30.32l15.64 18.06 -45.14 39.11 -133.13 -153.69 8.27 -14.67zm1238.32 440.99l-30.18 19.35 -12.91 -20.14c-10.95,-17.08 -21.68,-26.63 -33.9,-28.01 -14.57,-1.64 -34.11,5.81 -60.97,23.03l-158.49 101.61 149.68 233.48 158.47 -101.59c26.85,-17.21 41.77,-31.84 46.35,-45.75 3.87,-11.74 -0.31,-25.48 -11.24,-42.53l-12.93 -20.17 50.33 -32.25 155.34 242.31 -50.33 32.26 -12.91 -20.14c-10.95,-17.09 -21.68,-26.63 -33.9,-28.01 -14.58,-1.64 -34.11,5.81 -60.97,23.03l-393.99 252.58c-26.85,17.21 -41.77,31.84 -46.36,45.75 -3.87,11.74 0.31,25.48 11.24,42.53l12.93 20.16 -50.33 32.26 -155.34 -242.31 50.33 -32.26 12.91 20.14c10.95,17.08 21.68,26.63 33.9,28.01 14.57,1.64 34.11,-5.81 60.97,-23.03l185.2 -118.73 -149.68 -233.48 -185.18 118.71c-26.85,17.21 -41.77,31.84 -46.36,45.75 -3.87,11.74 0.31,25.48 11.24,42.53l12.93 20.16 -50.33 32.26 -155.34 -242.31 50.33 -32.26 12.91 20.14c10.96,17.09 21.68,26.64 33.9,28.01 14.57,1.64 34.11,-5.81 60.97,-23.03l393.99 -252.58c26.85,-17.21 41.77,-31.84 46.36,-45.75 3.87,-11.74 -0.31,-25.48 -11.24,-42.53l-12.93 -20.16 50.32 -32.27 155.34 242.31 -20.14 12.92zm480.33 724.53l2.72 5.31 0 0.1c48.47,97.8 55.43,200.28 26.09,291.21 -29.89,92.66 -97.33,173.01 -196.77,223.95 -99.43,50.92 -204.01,58.69 -296.62,28.81 -92.66,-29.89 -173.02,-97.33 -223.95,-196.78l-2.72 -5.31 0 -0.1c-48.47,-97.8 -55.42,-200.27 -26.09,-291.21 29.89,-92.66 97.33,-173.02 196.77,-223.95l5.31 -2.72 0.1 0c97.8,-48.47 200.27,-55.43 291.21,-26.09 92.66,29.89 173.02,97.33 223.95,196.77zm-34.24 237.92c24.05,-56.72 23.66,-118.97 -5.69,-176.29 -38.77,-75.71 -106.77,-123.82 -188.69,-141 -83.79,-17.57 -182.18,-3.13 -279.5,46.71 -71.22,36.48 -121.5,89.17 -146.17,147.35 -24.05,56.72 -23.66,118.97 5.69,176.29 38.77,75.71 106.77,123.82 188.69,141 83.79,17.57 182.18,3.13 279.5,-46.71 71.22,-36.48 121.5,-89.17 146.17,-147.35zm-430.87 470.1l33.27 -13.12 8.81 22.34c7.42,18.81 16.1,30.22 27.86,33.94 13.98,4.43 34.6,0.89 64.31,-10.83l435.38 -171.67c29.64,-11.68 47.08,-23.13 54.24,-35.85 6.07,-10.78 4.62,-25.11 -2.84,-44.02l-8.76 -22.21 55.62 -21.93 105.58 267.77 -55.62 21.93 -8.81 -22.34c-7.41,-18.8 -16.1,-30.21 -27.85,-33.93 -13.98,-4.43 -34.6,-0.89 -64.31,10.83l-507.13 199.95 172 436.23c15.83,40.16 33.58,60.12 57.36,69.85 20.35,8.32 47.04,10.63 81.06,11.69l-177.82 -450.99 55.61 -21.94 8.81 22.35c7.41,18.81 16.1,30.22 27.86,33.94 13.98,4.43 34.6,0.89 64.31,-10.83l287.79 -113.48c29.64,-11.68 47.08,-23.13 54.24,-35.85 6.07,-10.78 4.62,-25.11 -2.84,-44.02l-8.76 -22.21 55.62 -21.93 177.17 449.34 -19.4 9.87c-27.53,14 -47.74,24.83 -66.76,36.65 -19.41,12.07 -37.91,25.29 -61.82,43.94l-25.26 19.7 -21.94 -55.65 11.44 -11.1c35.15,-34.11 61.29,-59.59 73.1,-85.25 10.77,-23.39 10.11,-50.14 -5.73,-90.33l-39.93 -101.27 -173.14 68.27 10.16 25.76c11.68,29.64 23.13,47.08 35.85,54.24 10.78,6.07 25.11,4.62 44.02,-2.84l22.21 -8.76 21.61 54.82 -21.18 9.24c-39.03,17.02 -80.4,38.97 -117.21,62.97 -32.55,21.22 -61.38,43.95 -81.52,66.08l-25.88 28.44 -24.49 -62.13 10.79 -11.1c48.76,-50.2 74.27,-81.99 83.96,-107.8 8.27,-22.03 3.85,-41.93 -7.1,-69.68l-6.83 -17.33 -202.66 79.91 47.25 119.84c15.83,40.16 33.58,60.13 57.36,69.85 26.07,10.66 62.57,11.45 111.54,12.39l16.06 0.31 21.94 55.62 -31.94 2.84c-30.02,2.67 -52.56,5.65 -75.18,10.11 -17.18,3.39 -33.82,7.5 -53.24,12.85l20.41 51.76 -31.94 2.84c-30.02,2.67 -52.56,5.65 -75.17,10.11 -22.94,4.52 -44.93,10.34 -73.85,18.67l-20.87 6.01 -309.16 -784.09 22.34 -8.81zm1171.23 1219.44l0.66 2.93c24.13,107.75 6,209.95 -45.12,291.75 -51.61,82.59 -136.64,144.08 -245.52,169.21l-2.94 0.66c-107.75,24.13 -209.94,6 -291.74,-45.12 -82.59,-51.61 -144.08,-136.64 -169.21,-245.52l-0.66 -2.94c-24.13,-107.75 -6,-209.94 45.12,-291.74 51.61,-82.59 136.63,-144.08 245.52,-169.21l2.94 -0.66c107.76,-24.13 209.95,-6 291.75,45.12 82.58,51.62 144.07,136.64 169.2,245.52zm-91.41 222.4c37.21,-49.13 52.03,-109.62 37.54,-172.39 -19.12,-82.86 -73.33,-146.1 -148.58,-182.75 -76.94,-37.47 -175.85,-47.47 -282.41,-22.88l-0.14 0.03c-77.87,18 -139.42,56.82 -177.53,107.2 -37.15,49.12 -51.95,109.55 -37.47,172.3 19.12,82.86 73.33,146.09 148.58,182.75 76.94,37.47 175.86,47.46 282.41,22.87 77.89,-17.98 139.46,-56.77 177.59,-107.13zm167.01 277.18l62.86 494.68 -21.2 4.77c-29.52,6.64 -51.64,12.13 -73.75,19.15 -21.79,6.91 -43,15.16 -70.77,27.34l-29.23 12.82 -7.55 -59.42 13.82 -7.93c42.54,-24.42 74.2,-42.7 91.87,-64.52 16.21,-20.02 22.17,-46.09 16.73,-88.9l-18.73 -147.43 -263.41 33.47 8.49 66.8c4.02,31.63 10.83,51.39 21.41,61.49 8.97,8.56 23.2,10.69 43.32,8.14l23.69 -3.01 7.42 58.41 -22.77 3.72c-41.92,6.85 -87.4,17.93 -129.1,32.14 -36.86,12.56 -70.42,27.47 -95.28,43.88l-32.07 21.17 -8.42 -66.25 13.19 -8.1c59.56,-36.58 92.09,-61.08 107.85,-83.71 13.53,-19.42 14.16,-39.75 10.42,-69.24l-7.36 -57.92 -218.28 27.74c-31.63,4.02 -51.38,10.83 -61.49,21.41 -8.56,8.97 -10.69,23.2 -8.14,43.32l3.01 23.69 -59.21 7.52 -36.27 -285.45 59.21 -7.52 3.02 23.72c2.55,20.09 8.18,33.32 18.7,39.85 12.46,7.74 33.3,9.4 64.92,5.38l464.27 -58.99c31.63,-4.02 51.38,-10.83 61.49,-21.41 8.56,-8.97 10.69,-23.2 8.14,-43.32l-3.01 -23.69 59.21 -7.53 3.02 23.72zm128.53 922.41l-56.01 736.5 -21.87 0.42c-30.45,0.58 -53.25,1.51 -76.05,3.91 -22.21,2.34 -44.64,6.18 -74.78,12.64l-31.29 6.7 4.55 -59.75 15.18 -5.01c46.61,-15.39 81.32,-26.94 102.94,-44.7 19.87,-16.34 30.95,-40.67 34.22,-83.72l19.77 -259.89 -543.57 -41.33c-31.9,-2.42 -52.65,0.26 -64.66,8.59 -10.08,6.99 -14.99,20.48 -16.53,40.72l-3.01 39.55c-1.54,20.28 1.29,34.4 10.26,42.88 10.57,10.01 30.63,15.78 62.46,18.2l360.87 27.44c31.9,2.43 52.65,-0.26 64.66,-8.59 10.08,-6.99 14.99,-20.48 16.53,-40.72l1.82 -23.93 59.65 4.53 -21.83 287.05 -59.64 -4.55 1.82 -23.85c1.54,-20.28 -1.29,-34.39 -10.26,-42.88 -10.57,-10.01 -30.63,-15.78 -62.46,-18.2l-81.93 -6.23 -21.03 276.5 187.65 14.27c31.9,2.42 52.65,-0.26 64.66,-8.59 10.08,-6.99 14.99,-20.48 16.53,-40.72l1.82 -23.93 59.64 4.55 -60.82 799.9 -21.87 0.42c-30.45,0.58 -53.25,1.51 -76.05,3.91 -22.21,2.34 -44.64,6.18 -74.78,12.64l-31.28 6.7 4.54 -59.75 15.19 -5.01c46.61,-15.39 81.32,-26.93 102.94,-44.7 19.87,-16.33 30.95,-40.67 34.22,-83.72l11.27 -148.18 -264.64 -20.12 -5.1 67.03c-2.42,31.9 0.27,52.66 8.59,64.66 6.99,10.08 20.48,14.99 40.72,16.53l23.92 1.82 -4.46 58.76 -23.08 -0.93c-42.61,-1.71 -89.4,-0.02 -132.95,5.5 -38.58,4.9 -74.45,12.77 -102.21,23.9l-35.71 14.31 5.06 -66.57 14.57 -5.29c65.78,-23.9 102.59,-41.37 122.56,-60.34 17.06,-16.22 21.76,-36.02 24.01,-65.71l4.42 -58.2 -296.28 -22.53 -12.77 167.88c-3.28,43.11 3.99,68.87 21.17,88.03 18.65,20.8 51.23,37.47 95.01,59.74l14.23 7.24 -4.55 59.73 -29.89 -11.35c-28.83,-10.94 -50.43,-18.14 -72.01,-23.81l-0.09 0c-21.66,-5.68 -44.15,-10.06 -74.55,-15.3l-21.51 -3.71c20.8,-273.24 41.59,-546.49 62.33,-819.73l59.65 4.53 -1.81 23.86c-1.54,20.28 1.29,34.4 10.26,42.88 10.57,10 30.63,15.78 62.46,18.2l219.36 16.68 21.03 -276.5 -219.29 -16.67c-31.9,-2.42 -52.65,0.26 -64.66,8.59 -10.08,6.99 -14.99,20.48 -16.53,40.72l-1.82 23.93 -59.64 -4.55 43.03 -565.85 59.64 4.55 -1.81 23.85c-1.54,20.28 1.29,34.4 10.26,42.88 10.57,10.01 30.63,15.78 62.46,18.2l543.65 41.34 2.99 -39.35c3.28,-43.11 -3.99,-68.87 -21.17,-88.03 -18.65,-20.8 -51.24,-37.47 -95.01,-59.74l-14.23 -7.24 4.53 -59.74 29.9 11.35c28.83,10.94 50.43,18.14 72.02,23.81l0.09 0c21.66,5.68 44.15,10.06 74.55,15.3l21.51 3.71 -1.65 21.68zm-760.12 999.24l-3.01 39.55c-1.54,20.28 1.29,34.4 10.26,42.88 10.57,10.01 30.63,15.79 62.46,18.21l219.36 16.68 11.4 -149.95 -219.29 -16.68c-31.9,-2.42 -52.65,0.27 -64.66,8.59 -10.08,6.99 -14.99,20.48 -16.53,40.72zm617.55 86.81l3.01 -39.55c1.54,-20.28 -1.29,-34.4 -10.25,-42.88 -10.57,-10.01 -30.63,-15.78 -62.46,-18.21l-187.72 -14.27 -11.4 149.95 187.65 14.27c31.9,2.43 52.65,-0.26 64.66,-8.59 10.08,-6.99 14.99,-20.48 16.53,-40.72zm-252.13 1451.99l-448.81 30.28c-42.35,2.75 -66.63,8.6 -80.94,18.94 -12.56,9.09 -18.83,24.26 -24.99,45.96l-6.56 23.1 -16.21 -4.61 -10.33 36.36 -27.03 -17.08c-25.87,-16.35 -45.62,-27.7 -65.9,-37.69 -20.43,-10.05 -41.52,-18.8 -69.96,-29.89l-20.35 -7.93c76.77,-270.26 153.52,-540.53 230.24,-810.8l57.5 16.32 -6.52 22.96c-5.55,19.57 -5.6,33.95 1.47,44.04 8.41,11.99 26.91,21.68 57.56,30.38l450.2 127.84c30.73,8.73 51.59,10.22 65.04,4.44l0.09 0c11.28,-4.84 18.78,-17.05 24.3,-36.53l6.56 -23.1 57.51 16.32 -78.63 276.88 -57.5 -16.33 6.52 -22.95c5.55,-19.57 5.6,-33.95 -1.47,-44.04 -8.41,-11.99 -26.92,-21.68 -57.56,-30.38l-371.93 -105.62 -4.27 15.05c-5.68,20.01 -4.74,36.23 3.22,51.15 9.19,17.23 27.54,34.5 55.36,54.51l318.31 227.23c3.86,-3.07 7.01,-6.62 9.66,-10.67 5.7,-8.69 9.78,-20.19 13.76,-34.2l6.56 -23.11 57.5 16.34 -55.56 195.67 -16.83 1.14zm-449.51 -494.24l4.32 -15.2 -95.11 -27.01 -128.05 450.94c-11.81,41.6 -9.83,68.29 3.19,90.5 11.07,18.88 30.89,36.92 57.3,58.42l69.58 -245.02 57.5 16.33 -6.52 22.95c-4.75,16.72 -4.53,27.31 1.12,31.93l0.09 0c9.03,7.38 28.93,9.78 60.47,7.58l83.96 -5.35 46.56 -163.96 -68.68 -48.75c-24.85,-17.86 -42.71,-24.82 -54.43,-22.24 -8.81,1.93 -15.59,12.37 -20.61,30.05l-6.56 23.1 -57.5 -16.32 53.37 -187.96zm358.55 368.54l-152.65 -108.91 -34.53 121.59 180.25 -12.09 6.92 -0.58zm-755.68 367.39l617.83 19.79c42.48,1.44 67.29,-1.99 82.61,-10.91 13.32,-7.75 21.05,-22.24 29.33,-43.26l8.81 -22.34 55.62 21.93 -108.13 274.23 -55.62 -21.93 8.76 -22.2c6.37,-16.17 7.2,-26.73 2.02,-31.89 -8.28,-8.26 -27.83,-12.63 -59.38,-13.55l-496.94 -15.78 -6.99 -0.11 210.25 184.39 209.28 6.75c42.48,1.44 67.28,-1.99 82.61,-10.91 13.32,-7.75 21.05,-22.24 29.33,-43.26l8.81 -22.34 55.62 21.93 -108.13 274.23 -55.62 -21.93 8.76 -22.2c6.37,-16.17 7.2,-26.73 2.02,-31.89 -8.28,-8.26 -27.83,-12.63 -59.38,-13.55l-496.94 -15.78 -6.91 -0.11 379.14 331.91 0.09 0c23.01,20.27 40.1,28.98 51.95,27.58 8.95,-1.05 16.72,-10.77 23.47,-27.89l8.81 -22.34 55.62 21.93 -80.48 204.12 -55.62 -21.93 8.76 -22.21c7.62,-19.33 8.28,-35.57 1.83,-51.23 -7.41,-17.97 -24,-36.98 -49.81,-59.71l0.04 -0.05 -421.04 -368.24c-4.22,2.67 -7.71,5.87 -10.72,9.6 -6.49,8.03 -11.68,19.1 -17.05,32.72l-8.81 22.34 -55.62 -21.93 74.59 -189.18 331.33 10.21 -193.33 -169.09c-4.22,2.67 -7.72,5.88 -10.73,9.6 -6.48,8.02 -11.68,19.1 -17.05,32.72l-8.81 22.34 -55.61 -21.93 74.6 -189.2 16.85 0.54zm-329.24 720.19c-5.71,-17.72 -4.32,-37.55 5.25,-56.22 9.58,-18.7 24.88,-31.45 42.64,-37.17 17.72,-5.72 37.55,-4.31 56.22,5.25 18.7,9.58 31.45,24.88 37.17,42.64 5.72,17.73 4.31,37.55 -5.25,56.22 -9.58,18.7 -24.88,31.45 -42.65,37.17 -17.72,5.72 -37.55,4.32 -56.22,-5.25 -18.7,-9.57 -31.44,-24.88 -37.17,-42.64zm49.55 390.46c67.05,-11.45 138.31,3.52 202.32,46.76l0.17 0 6.33 4.5c92.78,65.98 153.99,163.28 174.96,268.02 20.58,102.76 2.52,212.73 -62.26,307.53l0 0.15 -4.5 6.33c-30.61,43.04 -67.97,70.01 -105.7,81.44l0 0.09c-41.87,12.69 -83.97,6.38 -118.42,-18.11 -14,-9.95 -26.61,-21.49 -37.84,-34.15 -3.79,-4.27 -7.41,-8.66 -10.87,-13.15 -22.16,29.16 -47.71,61.21 -75.45,96.02 -38.05,47.74 -80.2,100.64 -121.29,155.35 79.08,105.01 135.9,225.68 152.78,345.01 15.74,111.32 -3.08,221.42 -70.46,316.97l-0.98 1.39c-36.02,50.64 -83.49,79.56 -132,88.86 -49.2,9.43 -99.32,-1.37 -139.83,-30.18l-2.05 -1.48c-52.69,-38.05 -84.68,-83.58 -100.38,-134.32 -10.64,16.3 -22.62,32.21 -35.96,47.61l-1.12 1.31c-73.02,83.63 -166.65,129.55 -263.26,136.48 -97.07,6.96 -196.8,-25.5 -281.26,-98.65l-1.31 -1.12c-83.63,-73.02 -129.55,-166.65 -136.47,-263.25 -0.91,-12.68 -1.14,-25.41 -0.7,-38.15 -1.3,2.57 -2.87,5.14 -4.71,7.74 -1.64,2.3 -3.41,4.44 -5.3,6.39 -8.46,8.78 -19.38,14.36 -31.11,15.75l-0.09 0c-11.83,1.39 -24.24,-1.44 -35.55,-9.47 -2.24,-1.59 -4.42,-3.38 -6.49,-5.36 -33.31,-31.07 -45.55,-79.51 -38.51,-134.77 6.6,-51.81 30.35,-110.34 69.57,-165.49 114.92,-161.61 275.14,-292.52 428.1,-417.51 44.81,-36.61 88.99,-72.72 131.17,-108.91 -49.64,-90.44 -81.97,-187.33 -86.29,-282.04 -4,-87.92 16.07,-173.75 68.59,-250.68l0 -0.15 4.5 -6.33c36.16,-50.84 84.84,-79.04 134.5,-87.52 50.05,-8.55 101.05,3.04 141.38,31.71 61.43,43.69 91.48,105.63 92.85,176.06 1.36,70.01 -26.29,148.02 -80.12,223.71 -22.22,31.24 -47.15,61.5 -74.14,91.16 -22.36,24.58 -46.29,48.91 -71.37,73.18 6.12,8.49 12.62,17.25 19.43,26.24 11.25,14.88 22.89,29.76 34.82,44.79l282.1 350.89c41.54,-55.09 82.36,-106.36 118.96,-152.34 32.65,-41.02 61.99,-77.88 84.23,-107.67 -16.04,-37.31 -24.04,-77.56 -24.61,-114.85 -0.67,-43.98 9.14,-84.55 28.41,-112.53l1 -1.43c12.68,-17.84 27.92,-27.29 42.84,-30.64 13.39,-3 26.28,-1.07 37.11,4.27l1.22 0 6.33 4.5c32.71,23.26 43.34,63.64 37.39,110.87 -5.26,41.74 -23.8,89.67 -51.13,134.7 3.39,4.43 6.99,8.67 10.8,12.69 6.95,7.34 14.86,14.23 23.7,20.52 23.35,16.6 48.41,20.6 72.24,14.12 26.66,-7.24 52.5,-27.23 73.88,-57.29l0.07 -0.1c52.24,-73.54 67.55,-163.6 50.09,-249.38 -17.59,-86.4 -68.35,-168.44 -148.08,-225.13l-0.3 -0.21c-49.88,-35.35 -107.03,-47.6 -160.5,-38.58 -53.51,9.03 -103.53,39.46 -139.06,89.41l-0.18 0.26c-42.71,60.21 -58.25,131.62 -48.81,198.14 9.37,66.07 43.48,127.25 100.1,167.51l1.94 1.38 0.21 0.21c11.23,8.6 18.27,19.09 21.04,30.51 3.29,13.52 0.54,27.12 -8.27,39.51 -9.61,13.52 -24.1,21.31 -39.81,23.03 -14.62,1.6 -30.36,-2.22 -43.79,-11.77 -53.08,-37.74 -92.15,-117.34 -102.31,-208.18 -10,-89.44 7.57,-190.88 67.05,-274.53 46.9,-65.95 111.26,-105.86 180.46,-117.68zm-1178.9 1205.87c7.27,9.63 13.29,19.03 16.37,29.65 9.76,-72.67 41.69,-144.28 96.34,-207.37l1.12 -1.31c73.02,-83.63 166.65,-129.55 263.26,-136.48 97.07,-6.96 196.81,25.5 281.26,98.66l1.31 1.12c60.78,53.08 101.64,117.03 122.09,185.11 33.02,-70.88 76.93,-142.94 124.6,-212.57l-289.25 -359.13c-14.67,-18.15 -28.72,-36.7 -41.89,-55.46 -7.41,-10.55 -14.65,-21.33 -21.7,-32.32 -40.24,34.93 -82.25,69.86 -124.67,105.12 -144.44,120.07 -293.71,244.15 -397.81,390.53 -31.27,43.98 -48.43,82.24 -52.62,115.24 -3.83,30.19 3.61,56.34 21.31,78.83l0.28 0.37zm813.7 -1161.84c-0.49,-52.11 -22.06,-97.59 -66.37,-129.09 -28.07,-19.96 -64.53,-27.53 -100.21,-20.03 -32.75,6.89 -64.93,26.63 -89.6,61.33 -40.27,56.63 -52.05,121.99 -39.56,194.52 11.83,68.7 45.22,144 96.74,224.61 21.74,-20.62 42.38,-41.31 61.71,-62.25 25.27,-27.37 48.28,-55.14 68.57,-83.68 45.7,-64.26 69.25,-128.89 68.72,-185.4zm444.89 402.26c3.8,-25.09 1.21,-44.72 -9.85,-53.11 -0.88,0.69 -2.13,2.12 -3.79,4.45 -13.44,18.9 -19.49,45.02 -18.54,73.34 0.53,15.77 3.26,32.12 8.13,48.25 12.31,-25.66 20.7,-50.82 24.04,-72.93zm-163.31 851.48c-20.02,-86.55 -70.69,-182.24 -148.71,-284.42 -68.92,102.19 -127.61,208.04 -151.53,303.93 -1.87,17.62 -5.05,35.2 -9.53,52.63 -8.56,80.55 14.13,151.43 86.14,202.63 26.55,18.88 59.81,25.98 92.72,19.61 33.6,-6.51 67,-27.17 93.04,-63.78 46.61,-65.55 58.03,-143.37 37.86,-230.59zm-631.38 294.17c61.62,1.1 119.23,-22.55 161.41,-71.25 55.77,-64.38 74.94,-145.52 60.17,-227.94 -15.08,-84.15 -65.29,-169.89 -147.92,-241.47 -60.48,-52.39 -128.12,-79.3 -191.24,-80.43 -61.62,-1.1 -119.23,22.55 -161.41,71.25 -55.68,64.28 -74.84,145.36 -60.11,227.78 15.06,84.26 65.25,170.08 147.86,241.63 60.48,52.39 128.12,79.3 191.24,80.43zm-613.41 722.92l-24.7 -25.91 17.34 -16.53c14.98,-14.29 22.38,-28.69 23.09,-45.55 0.83,-19.52 -6.23,-43.77 -20.09,-75.23l0.04 -0.02 -227.32 -511.06c-4.96,0.66 -9.48,2.1 -13.79,4.23 -9.27,4.56 -18.66,12.45 -29.28,22.56l-17.3 16.49 -41.24 -43.24 147.18 -140.32 567.36 285.13 0.09 0c37.97,19.18 61.91,26.49 79.52,24.84 15.3,-1.44 28.44,-11.37 44.85,-27.02l17.3 -16.5 41.23 43.25 -213.33 203.38 -41.24 -43.24 17.34 -16.53c12.51,-11.93 17.65,-21.16 15.1,-28.09 -4.01,-10.89 -19.91,-23.03 -48.19,-37.14l0 -0.09 -444 -222.99 -0.04 0.08 -6.46 -3.12 204.57 460.48 0.09 0c12.36,28.06 24.16,43.13 35.42,46.81 8.65,2.83 19.87,-2.73 33.23,-15.47l17.3 -16.49 41.24 43.24 -158.79 151.39 -16.53 -17.34zm-65.64 56.61l-392.1 308.12 -15.03 -15.78c-21.33,-22.39 -37.5,-38.67 -54.24,-53.47 -16.75,-14.81 -34.75,-28.76 -59.87,-46.6l-26.11 -18.55 47.04 -36.97 13.91 7.78c42.76,23.91 74.66,41.66 102.54,45.62 25.55,3.62 51,-4.65 84.94,-31.32l116.82 -91.8 -163.99 -208.68 -52.88 41.55c-25.13,19.75 -38.6,35.73 -41.81,49.93 -2.72,12.02 2.78,25.31 15.33,41.29l14.8 18.83 -46.34 36.43 -14.92 -17.65c-27.47,-32.51 -60.34,-65.84 -93.87,-94.24 -29.83,-25.26 -59.88,-46.42 -86.63,-59.27l-34.69 -16.66 52.51 -41.25 13.69 7.13c62.13,32.37 99.88,47.73 127.26,49.61 23.54,1.62 41.32,-8.3 64.73,-26.7l45.87 -36.05 -183.6 -233.63 -132.4 104.05c-33.95,26.68 -48.02,49.43 -50.53,75.05 -2.75,28.04 6.96,63.26 20.09,110.48l4.27 15.36 -47.02 36.95 -11.87 -29.78c-11.23,-28.19 -20.54,-48.95 -31.18,-69.14 -10.51,-19.94 -22.48,-39.47 -39.11,-65.35l-11.77 -18.32 426.54 -335.19 36.95 47.03 -18.83 14.8c-15.99,12.57 -24.48,24.17 -24.68,36.45 -0.24,14.57 9.08,33.3 28.83,58.44l289.17 367.98c19.75,25.13 35.73,38.6 49.93,41.81 12.02,2.72 25.31,-2.78 41.29,-15.33l18.84 -14.81 36.95 47.04 -18.83 14.8zm-923.04 625.1l-19.35 -30.19 20.14 -12.91c17.09,-10.95 26.63,-21.68 28.01,-33.9 1.64,-14.57 -5.81,-34.11 -23.03,-60.97l-252.58 -393.99c-17.21,-26.85 -31.84,-41.77 -45.75,-46.35 -11.74,-3.87 -25.48,0.31 -42.53,11.24l-20.17 12.92 -32.26 -50.32 242.31 -155.34 32.27 50.32 -20.14 12.92c-17.08,10.95 -26.63,21.68 -28.01,33.9 -1.64,14.57 5.81,34.11 23.03,60.97l252.58 393.99c17.21,26.85 31.84,41.77 45.75,46.35 11.74,3.87 25.48,-0.31 42.53,-11.24l20.16 -12.93 32.27 50.32 -242.31 155.35 -12.91 -20.14zm-657.84 74.84l25.11 -12.86 12.05 9.51c56.69,44.75 113.95,72.12 168.01,82.81 54.14,10.7 104.95,4.56 148.43,-17.7l0.34 -0.18c37.91,-19.48 62.25,-43.16 73.51,-68.04 10.36,-22.9 9.39,-47.42 -2.54,-70.72 -40.05,-78.2 -145.75,-70.3 -254.66,-62.16 -132.03,9.87 -268.21,20.05 -332.31,-105.1 -22.61,-44.15 -33.98,-96.25 -18.42,-148.72 15.31,-51.64 56.35,-102.51 138.04,-144.34 67.59,-34.62 125.77,-38.64 168.47,-41.59 20.9,-1.44 37.41,-2.59 45.25,-6.6l-5.37 -10.28 -0.09 -0.09 -12.42 -23.92 52.5 -26.88 11.3 20.04c17.43,30.91 38.58,60.77 63.98,89.31 25.59,28.75 55.37,56.07 89.85,81.67l30.88 22.94 -59.36 30.4 -12.05 -9.51c-59.95,-47.32 -123,-79.72 -184.61,-92.14 -55.93,-11.28 -110.84,-5.99 -161.15,19.78 -39.8,20.38 -65.72,45.45 -78.13,72.06 -12.03,25.79 -11.08,53.66 2.51,80.21 40.05,78.2 145.75,70.3 254.66,62.16 132.03,-9.87 268.21,-20.05 332.31,105.1 27.37,53.44 29.06,108.12 7.96,157.75 -20.47,48.14 -62.49,90.83 -123.27,121.96l-1.6 0.81c-50.74,25.69 -97.07,34.74 -133.63,41.88 -21.46,4.19 -39.17,7.65 -49.15,12.76l5.37 10.28 0.09 0.09 12.41 23.91 -52.49 26.89 -11.3 -20.04c-17.42,-30.91 -38.58,-60.77 -63.98,-89.31 -25.59,-28.76 -55.37,-56.08 -89.85,-81.68l-30.89 -22.94 34.26 -17.54zm-246.71 457.46l-710.45 201.74 -7.93 -20.34c-11.09,-28.44 -19.84,-49.53 -29.89,-69.96 -9.99,-20.28 -21.34,-40.03 -37.69,-65.9l-17.09 -27.04 57.59 -16.35 9.92 12.49c30.52,38.41 53.34,66.98 77.55,81.18 22.21,13.02 48.9,15 90.5,3.19l250.64 -71.17 -148.95 -524.54c-8.7,-30.65 -18.39,-49.15 -30.38,-57.56 -10.09,-7.07 -24.47,-7.03 -44.04,-1.47l-38.16 10.83c-19.44,5.52 -31.66,13.04 -36.53,24.4 -5.78,13.45 -4.28,34.32 4.44,65.04l98.86 348.15c8.7,30.65 18.39,49.15 30.38,57.56 10.08,7.07 24.47,7.03 44.03,1.47l22.95 -6.52 16.33 57.51 -276.88 78.63 -16.34 -57.5 23.11 -6.56c19.45,-5.52 31.66,-13.04 36.54,-24.4 5.78,-13.45 4.29,-34.32 -4.44,-65.04l-22.42 -78.95 -266.79 75.76 51.44 181.16c8.7,30.65 18.39,49.15 30.38,57.56 10.08,7.07 24.47,7.03 44.04,1.47l22.95 -6.52 16.34 57.5c-257.23,73.08 -514.46,146.13 -771.7,219.14l-7.93 -20.34c-11.08,-28.44 -19.83,-49.53 -29.89,-69.96 -9.99,-20.28 -21.34,-40.03 -37.69,-65.9l-17.08 -27.03 57.58 -16.36 9.93 12.49c30.52,38.41 53.34,66.98 77.55,81.18 22.2,13.02 48.9,15 90.5,3.19l142.86 -40.57 -72.51 -255.35 -64.8 18.4c-30.65,8.7 -49.15,18.39 -57.56,30.38 -7.07,10.08 -7.03,24.47 -1.47,44.04l6.52 22.96 -56.67 16.08 -7.11 -22.02c-13.05,-40.42 -30.81,-83.73 -51.11,-122.83 -17.91,-34.5 -37.68,-65.43 -57.71,-87.64l-25.74 -28.55 64.27 -18.25 9.95 11.79c45.18,53.52 74.3,82.06 98.99,94.23 21.12,10.41 41.36,7.98 70.06,-0.18l56.06 -15.92 -81.18 -285.87 -162.09 46.03c-41.45,11.77 -63.06,27.47 -75.11,50.2 -13.17,24.87 -17.56,61.15 -23.34,109.84l-1.88 15.85 -57.58 16.36 0.33 -31.95c0.31,-30.61 -0.4,-53.39 -2.57,-75.92 -2.15,-22.43 -5.81,-45.03 -11.38,-75.28l-3.93 -21.4 790.77 -224.56 16.34 57.5 -23.1 6.56c-19.44,5.52 -31.66,13.04 -36.53,24.4 -5.78,13.45 -4.28,34.32 4.44,65.04l60.07 211.53 266.8 -75.76 -60.11 -211.69c-8.7,-30.65 -18.39,-49.15 -30.38,-57.56 -10.08,-7.07 -24.47,-7.03 -44.04,-1.47l-22.95 6.52 -16.33 -57.5 545.85 -155.01 16.34 57.5 -23.1 6.56c-19.45,5.52 -31.66,13.04 -36.54,24.4 -5.78,13.45 -4.28,34.32 4.44,65.04l148.91 524.39 38.09 -10.82c41.46,-11.77 63.06,-27.47 75.11,-50.2 13.17,-24.87 17.56,-61.14 23.34,-109.84l1.88 -15.85 57.59 -16.34 -0.33 31.95c-0.31,30.62 0.4,53.39 2.57,75.92 2.15,22.43 5.82,45.03 11.38,75.28l3.93 21.4 -20.99 5.96zm-1200.25 -368.31l-38.15 10.83c-19.45,5.52 -31.66,13.04 -36.54,24.4 -5.78,13.45 -4.28,34.32 4.44,65.05l60.07 211.53 144.71 -41.09 -60.11 -211.69c-8.7,-30.65 -18.39,-49.15 -30.38,-57.56 -10.08,-7.07 -24.47,-7.03 -44.04,-1.47zm132.01 609.51l38.15 -10.83c19.48,-5.53 31.69,-13.03 36.53,-24.3l0 -0.09c5.78,-13.45 4.29,-34.32 -4.44,-65.05l-51.4 -181.01 -144.71 41.09 51.44 181.16c8.7,30.65 18.39,49.15 30.38,57.56 10.08,7.07 24.48,7.03 44.04,1.47zm-1456.27 274.42l-183.36 -410.66 -0.09 -0.09c-17.24,-38.85 -31.08,-59.63 -45.67,-69.44 -12.82,-8.62 -29.3,-9.25 -51.92,-7.53l-23.86 1.81 -1.27 -16.8 -37.71 2.86 6.7 -31.28c6.46,-30.14 10.3,-52.57 12.64,-74.78 2.4,-22.8 3.33,-45.6 3.91,-76.06l0.42 -21.87c280.15,-21.27 560.3,-42.57 840.45,-63.9l4.53 59.65 -23.92 1.82c-20.24,1.54 -33.73,6.44 -40.72,16.53 -8.33,12 -11.02,32.76 -8.59,64.66l35.48 466.66c2.42,31.83 8.2,51.89 18.21,62.46 8.49,8.97 22.61,11.8 42.88,10.26l23.86 -1.82 4.53 59.65 -287.03 21.82 -4.55 -59.65 23.93 -1.82c20.24,-1.54 33.73,-6.45 40.72,-16.53 8.33,-12.01 11.02,-32.76 8.6,-64.66l-29.3 -385.39 -15.69 1.19c-20.61,1.57 -35.46,8.05 -46.71,20.68 -13.07,14.66 -22.96,37.85 -32.11,70.84l-103.36 377.07c4.24,2.61 8.64,4.35 13.32,5.43 10.04,2.33 22.33,2.17 37.01,1.05l23.85 -1.82 4.54 59.65 -202.81 15.42 -6.88 -15.42zm308.69 -592.56l15.62 -1.19 -7.49 -98.54 -467.51 35.55c-43.05,3.27 -67.38,14.35 -83.72,34.22 -13.86,16.86 -23.94,41.69 -35,73.91l253.95 -19.31 4.53 59.65 -23.92 1.82c-17.29,1.31 -27.13,5.17 -29.51,12.07 -3.8,11.02 0.82,30.54 13.8,59.43l0.09 0.09 33.97 76.83 169.91 -12.92 21.95 -81.05 0.09 -0.19c8.21,-29.59 8.61,-48.77 2.19,-58.8 -4.85,-7.59 -17.06,-10.34 -35.53,-8.94l-23.86 1.81 -4.53 -59.65 194.96 -14.82zm-222.17 463.91l49.53 -180.98 -126.09 9.59 73.66 165.14 2.9 6.25zm-598.77 -563.01l193.44 587.2c13.23,40.42 24.92,62.51 38.47,73.76 11.89,9.88 28.18,12.17 50.78,12.74l23.93 0.6 -1.5 59.68 -294.6 -7.45 1.5 -59.68 23.85 0.61c17.33,0.44 27.51,-2.43 30.6,-9.09 4.93,-10.65 2.33,-30.54 -7.64,-60.51l-0.09 0 -155.68 -472.09 -2.24 -6.55 -100.98 260.61 65.51 199.07c13.23,40.42 24.92,62.51 38.47,73.76 11.89,9.88 28.17,12.17 50.78,12.74l23.94 0.6 -1.52 59.68 -294.59 -7.45 1.52 -59.68 23.85 0.6c17.32,0.44 27.51,-2.43 30.6,-9.1 4.93,-10.65 2.33,-30.53 -7.64,-60.5l-0.09 0 -155.68 -472.09 -2.21 -6.47 -181.62 469.96c-11.15,28.6 -13.48,47.64 -8.11,58.28 4.1,8.11 15.92,12.12 34.34,12.58l23.94 0.6 -1.52 59.68 -219.26 -5.55 1.52 -59.68 23.85 0.6c20.76,0.52 36.23,-4.43 48.72,-15.87 14.34,-13.13 26.51,-35.25 39.01,-67.32l0.03 0.01 201.4 -521.86c-3.94,-2.99 -8.15,-5.16 -12.71,-6.72 -9.91,-3.39 -22.07,-4.48 -36.62,-4.85l-23.94 -0.61 1.52 -59.68 203.32 5.14 104.07 314.56 92.45 -239.56c-3.94,-2.99 -8.16,-5.16 -12.71,-6.72 -9.91,-3.39 -22.08,-4.48 -36.62,-4.85l-23.94 -0.61 1.52 -59.68 203.35 5.14 5.26 15.97zm-700.58 -89.39c-6.39,5.95 -12.63,12.77 -17.29,19.17 13.16,4.77 24.18,12.87 32.29,23.35 10.94,14.12 16.37,32.28 14.47,52.1l0 0.33 -0.28 2.24c-2.65,20.83 -12.71,38.02 -27.47,49.45 -14.72,11.41 -33.85,16.83 -54.67,14.19 -20.83,-2.65 -38.02,-12.71 -49.45,-27.47 -11.41,-14.73 -16.83,-33.85 -14.19,-54.67 2.52,-19.87 12.9,-41.3 26.71,-61.16 15.59,-22.41 36.1,-43.74 54.16,-58.27l16.99 -13.66 36.6 37.75 -17.87 16.64zm-343.02 32.42l-8.07 34.96 -23.28 -5.37c-19.83,-4.58 -34.2,-3.91 -43.9,3.64 -11.53,8.98 -20.28,27.96 -27.46,59.07l-105.25 456.02c-7.2,31.18 -7.66,52.1 -1.25,65.21 5.41,11.04 18.02,17.94 37.8,22.5l23.36 5.39 -13.44 58.23 -280.46 -64.73 13.45 -58.23 23.28 5.37c19.83,4.58 34.2,3.91 43.9,-3.64 11.53,-8.98 20.28,-27.96 27.46,-59.07l122.62 -531.28 -456.8 -105.43c-42.04,-9.7 -68.6,-6.36 -90.18,7.77 -23.52,15.41 -44.85,45.05 -73.39,84.89l-9.28 12.95 -58.33 -13.45 15.72 -27.85c14.77,-26.17 25.08,-46.43 34.25,-67.67 9.29,-21.52 16.96,-42.91 26.45,-71.4l6.9 -20.71 821.24 189.54 -5.37 23.28zm-400.86 118.69c40.74,64.83 55.2,145.6 36.31,230.64l-0.66 2.93c-20.11,87.15 -68.98,154.98 -134.78,196.1 -65.01,40.63 -146.23,54.94 -232.23,35.83l-2.93 -0.66c-86.2,-19.9 -153.55,-68.65 -194.41,-134.39 -40.38,-64.96 -54.7,-146.19 -35.59,-232.18l0.66 -2.93c19.89,-86.19 68.65,-153.54 134.15,-194.47 64.7,-40.43 145.44,-54.86 230.49,-35.98l2.93 0.66c87.11,20.1 154.9,68.94 196.06,134.44zm-182.09 354.75c49.13,-40.55 87.61,-105.28 106.35,-186.49 13.64,-59.08 8.77,-113.8 -11.14,-156.05 -18.92,-40.13 -51.73,-69.01 -95.19,-79.04 -59.1,-13.64 -116.97,2.8 -164.65,42.04 -49.37,40.64 -88.1,105.53 -106.94,187.14 -13.58,58.83 -8.49,113.2 11.58,155.24 19.17,40.17 52.33,69.04 95.95,79.11 59.04,13.62 116.64,-2.83 164.04,-41.95zm-1159.43 -240.47l11.48 -33.94 22.69 7.68c19.61,6.63 35.82,6.48 51.13,-0.73 17.68,-8.34 35.86,-25.82 57.23,-52.65l0.05 0.04 347.08 -438.73c-2.89,-4.1 -6.27,-7.44 -10.16,-10.28 -8.21,-5.99 -19.6,-10.65 -33.6,-15.39l-22.67 -7.67 19.16 -56.62 192.64 65.18c3.65,210.79 10.98,424.62 10.98,635.07 0.65,42.42 5.29,66.97 14.94,81.8 8.41,12.93 23.3,19.96 44.77,27.21l22.67 7.67 -19.16 56.63 -279.22 -94.48 19.16 -56.62 22.69 7.68c16.43,5.56 27.02,5.85 31.94,0.4 7.8,-8.64 11.19,-28.39 10.54,-60.02l-8.72 -496.83 -0.24 -7.17 -312.82 395.04 0 0.09c-19.12,24 -26.98,41.48 -25.01,53.22 1.5,8.91 11.62,16.23 29.12,22.15l22.67 7.67 -19.16 56.63 -207.84 -70.33 7.68 -22.68zm-90.25 -7.9l-454.44 -205.45 7.03 -20.53c9.99,-29.18 16.95,-51.03 22.37,-72.82 5.44,-21.89 9.51,-44.29 13.71,-74.67l4.39 -31.73 54.52 24.63 -0.47 15.93c-1.46,48.94 -2.46,85.41 6.96,112.1 8.57,24.3 27.65,43.02 66.94,60.79l135.41 61.22 109.34 -241.86 -61.27 -27.7c-29.12,-13.16 -49.53,-17.72 -63.66,-14 -11.91,3.14 -21.14,14.13 -29.5,32.62l-9.88 21.84 -53.68 -24.27 8.77 -21.41c16.12,-39.35 30.5,-83.87 40.2,-126.74 8.6,-38.04 13.48,-74.48 12.51,-104.29l-1.25 -38.39 60.79 27.47 -0 15.48c-0.01,69.97 3.84,110.55 14.86,135.83 9.41,21.57 26.42,32.75 53.56,45.02l53.19 24.05 122.41 -270.77 -153.43 -69.37c-39.35,-17.79 -66.04,-19.74 -89.95,-10.13 -26.09,10.49 -52.85,35.38 -88.68,68.85l-11.64 10.87 -54.54 -24.65 20.94 -24.29c20.01,-23.2 34.12,-41.03 46.92,-59.52 12.61,-18.21 24.43,-37.93 39.87,-64.93l10.81 -18.9 494.33 223.49 -24.64 54.48 -21.79 -9.85c-18.55,-8.38 -32.78,-10.56 -43.78,-5.06 -13.03,6.52 -25.32,23.42 -38.49,52.54l-192.79 426.45c-13.16,29.12 -17.72,49.52 -14,63.66 3.14,11.91 14.14,21.15 32.62,29.5l21.85 9.87 -24.64 54.48 -21.79 -9.85zm2563.76 -6789.31c30.94,-13.71 36.89,-21.82 58.47,-50.59 -54.28,8.02 -58.07,5.12 -62.98,50.09l-2.28 -0.22c-125.74,-11.34 -263,107.86 -394.49,180.18 -105.86,58.23 -34.58,19.88 -113.56,46.8 -46.75,15.93 -67.45,34.55 -110.36,53.89l47.24 -42.74c-75.93,10.01 -10.23,12.72 -122.89,39.95 -62.07,15 -106.8,73.69 -208.87,109.91 -120.12,42.62 -92.73,10.62 -104.6,59.29 -252.41,-12.92 37.18,12.42 -281.39,65.39 39.22,-15.67 63.74,-36.82 103.26,-51.41 -116.72,9.9 -423.51,140.42 -536.13,219.38 -53.18,37.29 -108.65,67.07 -131.69,127.03 -222.65,-15.78 -397.02,155.69 -632.64,294.7 -92.17,54.38 -201.14,103.42 -300.99,154.7 -296.12,152.09 -637.11,283.28 -954.66,442.29 -252.71,126.55 -296.55,101.43 -450.44,255.47 -56.52,56.57 -61.51,61.15 -122.55,100.81l162.67 -284.95c34.36,-69.17 61.95,-59.43 97.24,-137.54 112.47,-248.97 409.3,-755.9 562.19,-1055.76 54.24,-106.39 87.97,-222.6 142.45,-326.29 32.2,-61.27 53.88,-82.66 83.27,-153.43 70.98,-170.97 128.05,-377.04 203.3,-498.29 16.53,38.17 111.16,169 142,214.58l165.74 216.69c72.69,86.87 30.76,71.13 118.13,167.34 48.83,53.77 1.72,22.64 133.58,150.45 32.84,31.84 59.64,76.82 81.84,108.85 -137.27,130.27 0.28,62.94 -154.05,147.34l-108.38 48.68c-47.08,21.64 -54.62,47.14 -100.16,65.88 16.15,-58.7 25.15,-75.4 25.41,-138.52 0.3,-73.31 21.31,-66.53 33.9,-127.99 9.45,-46.11 6.36,-95.38 18.06,-141.14 15.98,-62.46 33.75,-79.4 22.89,-151.08 -99.97,32.61 -337.33,466.43 -385.61,544.25l-334.12 606.1c102.57,-30.22 347.69,-181.55 454.94,-250.87 46.9,-30.31 56.63,-19 108.74,-38.87l379.75 -201.44c221.08,-115.07 120.04,-38.45 362.49,-205.48 226.9,-156.32 301.87,-100 406.33,-173.59 24.65,-17.37 48.65,-52.17 70.13,-64.79 37.96,-22.32 19.76,-0.92 57.8,-15.95 43.67,-17.26 57.84,-72.38 234.45,-124.92 64.5,-19.19 51.97,-29.18 91.04,-57.61 37.18,-27.05 69.27,-17.26 115.99,-31 121.41,-35.72 377.92,-196.33 382.98,-198.01 79.87,-26.52 138.96,-43.12 220.55,-62.27 98.37,-23.08 111.22,-76.56 171.16,-126l-20.63 -25.57c-0.11,-0.11 -1.51,-0.79 -1.57,-0.83 -0.09,-0.06 1.46,2.51 1.45,2.55 -0.02,0.08 3.78,2.9 3.14,4.66 16.57,-24.9 154.52,-42.2 157.47,-41.93 8.04,0.7 400.73,140.26 464.26,199.12 -2.13,0.7 -32.26,18.53 -35.01,19.91 -18.69,9.39 -50.9,14.68 -64.36,19.48 -36.4,13 -65.77,41.05 -107,57.32 -31.75,12.53 -18.67,8.96 -42.89,5.97zm-1365.44 1159.09c-11.16,-40.5 -10.89,-52.26 -54.36,-73.99 4.41,17.55 -0.99,16.74 10.84,36 25.5,41.49 5.39,15.5 43.52,37.99zm-522.35 336.26c0.68,-1.97 2,-7.43 1.83,-5.97l-1.19 -11.91c-7.22,-13.58 -0.05,-1.14 -15.72,-19.06 -17.64,-20.17 -24.93,-26.21 -38.77,-38.04 4.03,21.16 8.04,43.94 16.48,59.02 41.18,73.64 37.26,16.02 37.38,15.97zm2232.17 3608.62c-47.12,-61.49 6.6,-29.56 -70.25,-105.21 -131.11,-129.07 -121.46,-251.98 -195.97,-322.95l-262.29 -440.11c-14.39,-40.45 -92.1,-195.73 -115.65,-230.96 -49.73,-74.42 -107.33,-145.02 -140.75,-217.34 -218.42,-472.67 -254.83,-497.83 -488.58,-920.25 -35.84,-64.77 -85.08,-160.56 -131.29,-214.97 -53.48,-62.98 -245.5,-472.19 -296.16,-578.87 -22.38,-47.12 -27.61,-84.4 -54.05,-131.99l-250.1 -356.37c-20.88,-26.35 -15.98,-30.79 -45.31,-58.46 -17.32,22.16 -8.48,-10.58 -16.56,28.5 -0.46,2.19 3.53,12.46 4.27,13.48 10.8,-22.05 -12.7,-23 -43.08,-102.31 -17.19,-44.88 -35.55,-80.2 -55.54,-120.29 -29.59,-59.33 -5.87,-48.16 -51.48,-120.92 -27.22,-43.43 -37.48,-82.35 -54.82,-126.04l451.91 -183.65c26.55,43.11 25.21,68.24 51.68,105.52 89.95,126.71 52.11,121.01 54.12,150.97 7.94,118.28 151.84,278.97 206.31,368.85l104.6 212.96c-23.85,12.39 16.27,-30.53 -30.72,0 22.8,54.43 24.69,38.49 46.94,109.42 10.76,34.29 92.94,127.13 129.85,216.41 10.07,24.36 14.1,42.34 24.04,61.72 25.38,49.52 3.97,22.09 42.85,44.77 -2.96,99.23 -15.88,86.02 40.55,145.43 33.78,35.57 32.88,93.08 43.37,136.71 -13.71,-24.71 -27.29,-48.5 -47.46,-71.6 18.85,156.78 251.19,594.72 381.53,656.15 21.59,198.33 53.73,234.97 157.68,373.54 229.62,306.08 315.57,507.12 502.66,830.14l67.95 128.8c34.98,64.57 12.45,25.44 48,45.65 12.74,-41.44 38.57,-73.71 60.8,-113.94l459.37 -750.91c87.97,-143.04 174.01,-291.58 264.86,-427.06 70.78,-105.56 118.4,-231.46 169.81,-349.78 59.37,-136.66 17.89,-55.97 19.7,-98.29 3.21,-74.71 120.46,-233.35 145.22,-280.62 111.42,-212.7 237.91,-441.72 375.78,-635.04l495.24 -938.08c68.13,-140.39 121.38,-239.29 187,-394.48 65.71,-155.41 139.85,-275.5 181.94,-386.35 26.61,-70.1 43.17,-139.53 69.54,-213.32 18.06,-50.52 86.91,-160.95 84.88,-195.37 25.04,171.12 67.79,35.58 213.89,319.85 130.54,254 112.82,192.69 13.27,349 -290.9,456.78 -539.79,864.79 -802.71,1346.25l-386.43 688.87c-62.14,112.32 -125.62,236.52 -180.78,350.03 -73.2,150.63 -201.41,318.72 -298.28,504.86 -32.5,62.45 -64.73,113.07 -99.25,173.01 -64.02,111.14 -127.28,241.18 -191.07,351.39 -30.19,52.17 -71.17,104.17 -102.29,157.15 -31.79,54.12 -64.65,120.84 -96.81,174.49 -117.58,196.16 -439.22,932.42 -591.89,1041.61zm-389.11 -4959.67c54.37,-21.35 143.12,-55.03 212.37,-75.82l189.09 -91.84c46.88,26.44 76.33,61.54 136.74,76.54 74.66,18.54 73.36,-7.93 122.67,45.47 48.64,52.66 5.78,-4.71 96.72,39.4 32.13,15.58 50.2,27.15 85.26,38.49 79.59,25.73 75.65,72.99 163.68,95.71 105.04,27.11 96.63,50.96 159,100.14 43.9,34.61 117.35,65.76 167.76,91.63 341.3,175.17 181.84,65.77 488.64,291.69 77.26,56.9 97.37,38.68 209.96,53.2l9.76 -15.85c0.56,-1.11 2.49,-3.34 2.59,-7.45 23.27,31.14 37.83,33.98 61.89,66.24 -71.83,127.17 -145.34,249.29 -215.25,379.17l-307.93 580.74c-100.13,122.25 -327.83,578.9 -440.31,757.66l-110.79 185.84c-33.73,63.01 -73.06,120.62 -105.85,191.29 -161.31,347.7 -221.7,457.47 -431.11,766.03 -18.72,27.58 -36.62,62.17 -58.98,89.37 -20.29,24.69 -62.83,79.16 -70.14,85.01 -13.86,-19.41 -10.23,-12.44 -18,-37.57 -1.17,-3.79 -3.29,-17.17 -4.73,-21.07 -11.62,-31.44 -5.8,-15.66 -13.85,-26.74 -91.3,-125.67 -174.01,-267.28 -243.11,-409.93 -141.7,-292.5 -139.82,-201.04 -273.29,-530.41l-379.88 -681.28c-131.53,-215.89 -69.62,-98.36 -188.39,-342.65l-166.43 -365.54c-16.01,-27.98 -25.72,-52.82 -39.74,-84.48l-121.68 -149.57c-42.01,-37.41 -29.19,-28.6 -60.21,-74.42 -6.19,0.62 -26.05,5.93 -27.42,5.93 -1.24,-0.01 -8.69,38.75 -2.17,-4.86l-145.34 -318.2c174.35,-60.43 405.04,-219.07 484.44,-252.98l447.91 -182.73c68.97,-21.02 212.89,-80.12 258.68,-124.2 33.25,-32 38.47,-27.44 71.84,-52.07 30.63,-22.61 32.99,-43.18 79.47,-58.47 -8.22,-39.45 12.26,-32.39 -23.89,-31.41zm-2148.98 -725.25c25.04,-49.04 40.05,-35.95 60.97,-83.8 18.54,-42.43 21.77,-47.54 43.81,-89.13l24.33 49.16c17.76,-29.86 38.08,-90.59 58.87,-114.02 40.12,-45.19 6.42,28.63 74.28,-99.11 24.18,-45.52 92.69,-216.76 114.26,-235.43l317.72 206.41c169.25,105.64 531.47,270.71 732.11,355.39 205.85,86.89 76.23,40.62 178.45,92.75 60.72,30.96 117.19,54.36 179.99,90.7l-34.77 13.4c-66.95,20.31 -39.29,14.83 -93.88,55.71 -51.17,38.33 -76.87,45.6 -143.18,59.67l-69.28 -11.68c-36.95,52.15 -49.36,39.11 -114.89,68.17l-1.64 5.52c-113.55,-29.96 -37.89,27.2 -140.6,8.47l24.7 -26.71c-74.18,5.93 -119.84,15.48 -183.43,46.19 -79.89,38.59 -69.98,37.08 -107.94,112.81 -167.43,-36.77 -143.55,26.68 -254.83,104.69 -66.68,46.74 -160.14,102.95 -250.28,132.57 -24.12,-112.76 -129.22,-287.54 -184.41,-383.42 -37.62,-65.35 -72.21,-119.36 -107.16,-178.94 -37.47,-63.87 -80.78,-114.7 -123.19,-179.38zm4862.24 -307.04c20.53,35.46 3.08,20.93 27.3,55.8 21.97,31.63 18.21,16.66 35.29,61.46 23.1,60.63 11.95,18.89 12.4,61.37l24.02 73.86c-54.95,11.07 -14.63,-5.81 -34.92,-7.21 -0.67,97.45 31.94,188.19 99.51,217.88 -21.45,55.04 -177.79,278.37 -224.16,354.05l-107.18 176.21c-74.87,124.31 -88.91,168.04 -133.58,143.71 5.01,-27.94 -15.09,8.7 8.19,-11.15l21.47 -16.06c-76.8,-41.02 -69.98,-63.97 -163.06,-87.25 -63.84,-15.97 -123.35,-45.3 -163.6,-94.33l21.26 -16.11c-72.07,-22.62 -2.65,-10.86 -66.03,-41.12 -47.4,-22.62 -133.05,-39.52 -169.64,-113.01 -26.43,-53.09 -13.25,28.47 -74.19,-59.55l33.53 -2.43c-86.51,-95.24 -155.33,-170.32 -334.37,-163.44 -68.23,-144.31 -129.42,-109.1 -194.74,-138.1 203.61,-72.05 461.85,-215.33 639.84,-321.58 160.68,-95.91 85.96,-76.85 231.87,-124.19 25.44,-8.25 55.68,-30.64 81.25,-43.92 61.48,-31.94 233.21,-131.17 288.9,-143.67 76.07,-17.06 16.77,29.39 101.42,101.33 71.13,60.46 20.82,49.24 61.54,110.99l-22.29 26.46zm511.54 -409.36c17.57,34.06 32.39,41.47 42.85,63.18 17.73,36.82 -5.78,66.1 26.96,109.24 26.29,34.61 118.27,117.21 159.81,208.11 21.9,47.93 26.99,95.77 65.12,138.25 -23.39,22.47 6.06,-17.05 -34.36,0 74.2,134.98 -20.39,3.72 91.56,171.61 62.89,94.32 22.86,75.65 92.31,166.66 13.87,18.18 -6.56,63.83 -1.35,81.43 65.55,83.01 46.99,14.9 63.3,144.29l-40.63 -68.67c10.94,118.78 157.74,459.05 310.99,522.74 -13.6,206.29 109.44,280.38 235.88,468.61 162.25,241.55 252.59,434.29 383.12,691.17l244.52 470.3c16.83,30.81 19.29,22.11 43.67,45.94 18.17,17.75 22.74,29.15 38.72,47.74 20.93,24.35 73.8,58.04 80.92,89.41 -33.02,-16.22 -57.35,-38.04 -110.98,-60.85 -91.25,-38.81 -228.85,-129.59 -382.31,-199.16 -50.8,-23.02 -73.31,-21.47 -130.91,-53.71 -134.57,-75.33 -512.59,-229.28 -671.04,-305.37 -82.06,-39.41 -202.41,-62.5 -295.1,-98.09 -101.75,-39.06 -115.41,-67.4 -282.81,-101.41 -113.12,-22.98 -194.7,-59.66 -298.33,-92.44l168.16 -335.96c14.84,-37.34 32.5,-92.93 54.3,-121.62l541.66 333.72c71.45,38.89 548.68,275.69 602.23,272.46 -43.08,-45.46 -156.63,-231.59 -180.49,-298.86 -20.27,-57.16 -144.38,-246.64 -185.56,-308.87 -79.49,-120.13 -136.67,-278.34 -235.34,-382.45 -105.49,-111.3 -126.29,-186.09 -174.56,-330.84 -18.14,-54.42 -11.29,-50.12 -49.77,-75.61 -88.94,-58.89 -0.63,-22.23 -78.34,-106.61 -94.56,-102.67 -82.28,-164.31 -109.24,-198.08 -29.95,-37.52 -37.31,-10.4 -52.38,-68.47 -11.76,-45.28 -9.23,-57.23 -29.63,-98.68l-179.68 -310.9c-109.44,-255.5 0.77,-176.62 -155.8,-279.54 -49.73,-32.69 -20.22,-1.47 -32.93,-43.13l-17.55 -14.59c136.19,-108.58 258.75,-155.75 464.53,-211.25 12.25,78.79 35.33,65.37 60.88,140.26l-34.65 -1.84c-1.35,0.14 -5.28,0.95 -7.77,1.91zm-4864.22 -14.11l89.83 -134.92c28.5,-54.96 45.18,-95.95 73.56,-144.78l719.94 403.1 320.89 136.58c20.77,8.51 59.98,16.46 80.42,29.44 43.04,27.33 1.55,23.94 70.43,53.48l310.28 145.61c299.55,182.5 268.09,73.74 612.77,301.15 54.02,35.64 70.99,63.28 132.36,89.87 97.82,42.38 103.6,-4.77 161.37,61.93l95.98 39.82c32.2,14.29 65.99,23.08 99.03,36.74 65.25,26.98 65.27,64.98 164.02,96.23 109.86,34.76 81.77,56.15 155.05,103.17 59.6,38.25 105.43,57.2 170.06,89.95l260.04 122.97c170.49,116.75 244.31,222.13 392.24,211.7 75.11,-5.29 25.41,16.57 47.13,-23.47 17.46,36.02 29.54,26.16 61.1,63.04l-161.11 284.74c-21.5,37.2 -16.56,18.04 -11.22,48.19 -137.55,-18.46 -28.58,-47.8 -213.2,-96.87 -48.63,-12.93 -125.27,-62.97 -141.87,-77.69 -32.94,-29.22 -6.88,14.23 -2.22,-10.36l5.66 -11.38c0.41,-0.99 2.35,-4.55 2.77,-7.03 -60.01,-28.71 -2.79,-13.19 -52.05,-38.89 -42.85,-22.37 -4.38,9.96 -132.74,-66.07 -41.34,-24.49 -32.07,-5.99 -36.36,-60.32 -37.11,-9.62 -78.99,-14.63 -74.21,-55.48l6.17 -18.12c5.42,-20.28 -135.15,-152.56 -312.99,-144.19 -68.34,-144.86 -185.1,-121.38 -350.92,-186.43 -80.85,-31.71 -562.34,-320.15 -689.12,-397.76 -269.51,-164.98 -296.3,-89 -394.84,-125.29 -44.14,-16.25 -118.98,-62.59 -180.55,-90.72 -283.53,-129.55 -93.25,-80.68 -365.54,-177.41 -174.69,-62.05 -227.94,-134.06 -590.3,-227.31 -69.64,-17.92 -126.91,-53.38 -208.96,-59.99 -141.59,-11.41 -155.73,-34.81 -231.29,-37.27 17.76,-42.37 86.15,-93 117.19,-184.21 -6.45,40.51 -20.57,36.53 1.19,58.25zm-1079.82 -272.56c104.08,28.71 106.79,53.75 130.79,101.76 75.71,-43.16 68.75,9.74 80.38,-41.38l27.83 40.26c-6.5,11.2 -14.9,36.4 -18.92,42.45 -28.94,43.56 28.26,-26.98 -10.22,11.58l-20.48 15.12c-15.76,15.41 -41.1,55.14 -52.44,76.36 -14.69,-55.36 -19.25,-85.55 -64.99,-122.85 -30.47,-24.84 -1.33,3.81 -18.41,-16.18l-53.55 -107.12zm6116.55 106.08l-20.65 142.82c-123.01,-229.77 -45.76,-192.07 -14.43,-204.36 33.48,-13.13 9.3,-6.42 39.19,-30.87 41.15,-33.67 55.74,-14.28 110.19,-51.04 -2.08,108.8 -77.28,119.19 -114.3,143.45zm-4640.64 -387.64c58.64,-46.24 175.13,-211.49 220.2,-288.73 76.32,-130.8 111.86,-199.6 151.47,-368.45 30.41,-26.52 30.71,-14.98 55.87,-39.95 20.89,-20.74 32.53,-38.33 53.13,-59.45 101.93,-104.5 138.51,-272.34 212.68,-430.14 91.5,-194.66 207.77,-373.51 308.26,-543.77l612.53 -993.06c3.07,-5.09 18.63,-30.69 18.67,-30.75l27.26 -20.48c1.31,-0.81 4.93,-2.16 7.22,-3.53 61.79,33.76 193.71,278.94 232.23,348.9l212.91 367.82c18.07,32.06 40.48,52.65 52.63,84.28 46.25,120.46 81.18,160.15 164.88,278.88 78.27,111.02 146.92,237.12 221.91,358.11l586.1 859.48c36.95,68.2 80.82,115.02 123.85,172.96 54.03,72.75 106.91,105.41 134.61,149.11 45.48,71.76 108.14,133.23 124.03,171.16 -33,34.42 -799.67,435.33 -1036.83,604.16l-204.65 128.11c-76.65,37.86 -140.8,84.22 -203.54,130.32 -98.72,72.54 -44.33,45.96 -186.56,142.8 -200.5,-107.39 -225.91,-153.11 -421.08,-202.59 -69.46,-17.61 -40.58,2.34 -81.55,2.59 -80.88,0.5 -429.74,-216.22 -482.57,-238.27 -44.9,-18.74 -84.11,-26.67 -128.42,-44.68 -124.59,-50.63 -345.68,-180.2 -520.84,-208.59 -61.45,-9.96 -91.07,-19.79 -141.95,-41.89 -82.51,-35.83 -204.22,-36.76 -304.65,-63.5 23.86,-40.59 38.58,-31.9 34.92,-95.36 46.66,-12.99 87.13,-32.06 102.91,-86.79 19.57,-67.91 35.96,-71.7 82,-100.75l-27.64 62.04zm1977.54 1077.15c19.5,-20.21 6.83,-12.61 37.5,-26.77l791.77 -369.31c381.83,-190.45 701.49,-370.22 1061.32,-569.14 209.19,-115.64 110.32,-52.6 211.03,-95.75l598.48 -316.71c88.68,-45.36 199.67,-93.93 275.48,-132.11 93.63,-47.16 178.44,-96.81 260.39,-147.9 243.97,-152.07 274.12,-165.61 530.09,-283.88 149.21,-68.94 332.39,-112.57 414.09,-193.56 45.89,-45.5 19.42,-14.99 53.8,-26.66 15.69,-5.33 27.74,-23.58 52.88,-39.07 0.38,1.22 24.84,-22.32 -0.85,37.52 -11.41,26.6 -6.29,9.84 -19.78,27.36 -105.43,136.89 -32.59,14.75 -80.08,144.15 -13.2,35.96 -110.18,146.07 -142.16,190.73l-402.55 695.86c-78.77,160.23 -119.95,202.04 -208.9,348.13l-144.83 188.56c-29.8,32.23 -16.54,27.65 -40.49,71.07 -48.75,88.35 -28.56,-21.78 -103.11,231.44 -24.39,82.83 -16.89,93.42 -64.86,153.23 -32.99,41.13 -26.51,108.14 -76.98,127.76 -35.53,-25.34 -33.4,-64.43 -52.35,-112.54 -124.96,-317.17 -134.13,-233.58 -188.17,-324.89 39.44,-95.64 15.92,42.53 87.17,-165.15 25.8,-75.21 59.14,-72.57 96.1,-150.77l17.75 29.32c65.54,-102.52 46.74,-39.36 77.13,-121 32.52,-87.37 116.09,-163.59 170.21,-224.9 53.53,-60.63 -23.89,-6.38 71.5,-113.06 27.69,-0.15 23.83,29.12 21.69,-5.15 49.85,-30.94 259.5,-309.05 281.33,-394 -79.29,26.66 -127.24,66.68 -189.09,105.22 -29.96,18.67 -146.34,100.62 -158.58,118.21 -61.39,-60.34 -167.78,27.41 -231.73,71.4 -298.89,205.56 -470.07,289.53 -805.86,416.41 -37.25,14.07 -58.42,30.48 -92.59,44.39 -59.52,24.21 -131.24,57.03 -191.81,79.01 -142.83,51.81 -103.24,45.47 -193.52,115.36 -16.88,13.07 -10.43,4.98 -22.89,15.5 -47.79,40.36 -18.35,72.67 -99.8,109.47 -71.85,32.45 -116.81,53.53 -180.7,90.34 -78.74,45.37 -135.12,58.29 -189.08,81.83l-505.93 310.29c-59.29,41.09 -91.02,86.3 -150.16,122.03 -120.32,72.71 -97.35,87.01 -152.16,124.64 -174.17,-72.73 -324.04,-200.2 -420.71,-236.91zm-2569.94 994.73c-137.88,44.79 -407.67,181.52 -488.99,196.31l-219.54 -445.59c-103.7,-201.43 -150.49,-261 -241.14,-426.41 -81.77,-149.2 -159.93,-285.88 -244.63,-421.83l-254.46 -399.48c-111.6,-227.4 -109.18,-206.74 -237.9,-430.24 -76.32,-132.51 -159.02,-290.29 -236.06,-418.53 -82.82,-137.89 -179.61,-261.46 -268.29,-398.43 -126.55,-195.46 -132.65,-319.08 -147.22,-346.35 -26.48,-49.55 -58.98,-26.13 -69,-93.47 72.95,12.42 65.82,17.69 116.89,56.98 48.49,37.31 68.91,17.14 123.78,49.52 40.86,24.11 66.22,45.97 99.94,72.89 117.94,94.15 398.12,216.22 548.59,291.47 155.62,77.82 287.65,127.24 441.03,237.8 155.53,112.09 232.57,180.54 473.26,213.76l12.35 -23.48c54.02,54.1 90.32,56.92 153.87,116.81l-124.23 326.87c-0.74,-1.87 -3.22,6.27 -4.93,9.35 -63.27,-16.99 -20.48,-18.58 -69.75,-46.16 -25.73,-14.4 -48.79,-14.5 -79.81,-22.69 -51.3,-13.57 -52.09,-27.25 -122.43,-71.81 -0.3,-1.49 -0.52,-3.96 -0.61,-4.54 -0.1,-0.69 -0.65,-4.63 -0.77,-5.42 -0.15,-0.98 -0.88,-5.74 -1.03,-6.67l-2.93 -16.6c-43.57,-20.97 -47.97,-37.68 -110.72,-61.17 -70.24,-26.28 -175.19,-131.59 -194.95,-141.57 -72.92,-36.83 -34.84,-10.86 -93.36,-64.66 -99.95,-91.91 -271.42,-237.13 -402.96,-266.06 10.01,42.18 53.67,90.91 77.71,122.67 21.46,28.36 64.54,82.26 85.09,97.85 -1.53,2.36 -4.33,5.23 -5.17,6.67 -0.85,1.44 -3.84,5.18 -4.77,7.03l-9.38 24.73c-5.65,49.08 45.7,98.97 61.6,118.68 30.12,37.35 68.9,92.5 100.1,134.73 243.84,329.97 257.07,459.46 424.43,786.13 79.6,155.37 8.13,84.81 129.62,229.21 77.76,92.42 82.48,-4.24 134.1,112.91 16.34,37.09 17.41,33.16 40.29,70.41l273.87 454.3c90.43,130.56 217.37,254.74 221.4,260.76 48.65,72.81 27.85,42 117.1,113.32zm-381.41 -924.6c-71.89,-84.84 -108.74,-234.41 -221.78,-357.68l-85.67 -110.22c58.17,-97.24 85.66,-118.91 113.12,-183.61 14.29,-33.67 22.74,-40.26 46.11,-60.48l4.51 41.53c37.8,-38.61 57.69,-46.07 40.48,-93.89 28.14,14.15 27.02,-25.74 57.14,-58.46 26.71,-29.02 10.62,3.32 37.68,-36.81 9.71,-14.41 19.32,-34.5 27.31,-46.8 46.41,-71.34 60.64,-120.66 99.55,-196.44l104.63 -192.1c6.3,-7.27 17.66,-10.11 37.89,-36.85l77.49 -142.99c-3.78,41.98 -14.1,30.59 -16.05,78.06 30.87,-33.19 42.6,-67 83.83,-109.29 41.22,-42.28 47.21,-91.98 73.29,-137.81 58.75,-103.26 144.6,-199.1 148.36,-259.01 30.52,-16.15 18.68,-11.26 36.57,-24.76 102.94,-77.7 49.52,-14.06 81.46,-105.4 6.3,-18 38.58,-61.16 49.91,-71.96l59.54 -52.62 -53.6 96.56c46.89,-39.89 94.62,-105.62 135.13,-162.92 91.91,-130 229.87,-325.29 281.53,-484.34 82.7,-254.62 19.2,-70.39 181.66,-275.55 46.87,-59.2 83.34,-113.76 115.37,-194.92 54.97,-139.31 130.82,-277.5 203.11,-413.66l817.9 -1330.72c40.77,-62.57 70.37,-124.39 119.19,-178.37l77.71 95.77c176.21,247.99 87.99,96.69 164.79,194.07 70.91,89.9 283.11,471.77 360.91,602.54l206.04 361.45c36.44,86.42 -11.75,16.87 63.49,134.33 258.22,403.14 550,920.7 804.69,1295.52 64.9,95.52 178.9,228.49 241.14,339.37 55.37,98.62 94.8,149.61 153.11,229.77 79.34,109.07 285.85,329.51 326.59,444.24 -49.64,12.52 -188.68,86.08 -249.31,120.07 -47.91,26.86 -85.88,21.12 -133.68,51.78 -35.05,22.49 -87.51,52.48 -124.7,67.85 -40.52,-110.69 -462.95,-889.16 -514.44,-963.46l-188.5 -317.38c-106.53,-200.73 -375.32,-609.17 -508.08,-813.44 -49.18,-75.68 -71.25,-151.68 -114.49,-219.03 -178.96,-278.78 -332.01,-559.91 -493.72,-840.3l-106.25 -177.67c-29.06,-36.46 2.66,-4.91 -31.3,-24.72 -79.62,170.89 -209.15,382.05 -301.29,585.73 -39.26,86.79 -106.53,220.22 -155.69,289.57l-354.63 535.49c-25.85,51.34 -31.56,104.42 -58.05,163.05 -35.47,78.51 -64.01,68.12 -94.75,128.58 -25.36,49.86 -2.67,46.08 -67.77,154.66 -75.74,126.34 -73.21,144.82 -114.1,219.17l-136.85 195.12c-65.91,137.91 -66.93,178.44 -159.9,284.75 -82.8,94.68 -271.23,424.67 -337.77,552.4l-237.97 429.25c-32.81,47.62 -54.41,84.47 -88.32,134.09 -18.01,26.35 -25.49,45.76 -41.79,68.78 -26.5,37.42 -33.12,22.01 -54.76,56.9l-131.03 201.78c-24.49,33.85 -27.4,32.5 -43.39,68.66 -18.91,42.77 -40.92,122.79 -55.39,168.25 -64.32,201.99 -39.28,88.32 -69.03,150.08 -18.11,37.6 -1.01,36.62 -32.94,81.08 -20.29,28.24 -34.08,37.71 -54.2,53.35zm-2680.35 3336.66l0 19.31 725.94 -354.1c234.31,-122.88 504.31,-302.89 702.23,-397.99 148.27,-71.24 450.69,-170.61 574.73,-240.58 35.69,-20.13 59.66,-33.63 82.53,-53.05 25.36,-21.53 41.98,-40.36 76.03,-61.74 30.55,-19.18 55.31,-28.86 95.79,-38.28 13.45,-3.13 37.14,-6.79 49.53,-12.26 53.53,-23.61 14.97,-10.36 41.09,-34.98 32.65,-30.77 130.89,-67.98 176.39,-92.84 65.53,-35.81 103.94,-73.52 177.9,-96.21 45.79,-14.05 159.05,-59.43 200.54,-81.56 49,84.58 74.65,159.49 107.76,199.71 35.74,43.41 53.31,88.5 50.91,136.53 -1.75,34.8 12.72,43.22 23.97,84.79 45.32,167.51 206.98,293.83 276.45,452.85 10.57,24.18 2.51,5.07 10.05,37.8l35.65 120.92c54.63,168.19 148.31,254.11 213.07,397.12 26.12,57.68 36.3,109.38 86.2,124.17 -2.48,27.33 0.29,75.46 4.02,100.96 13.78,94.19 92.42,65.52 106.83,248.97 2.38,-11.96 16.02,3.02 -2.74,-14.92 -1.85,-1.77 -5.58,-4.88 -7.82,-6.75l-24.43 -15.45c56.36,232.56 308.7,646.93 438.33,727 8.94,99.18 49.25,207.26 86.89,284.15l152.27 219.69c267.56,367.4 591.07,992.94 813.31,1409.83l15.17 0 732.42 -1218.17c100.14,-151.44 180.36,-331.91 252.14,-502.17 21.1,-50.04 -2.19,-29.34 6.88,-78.5 11.19,-60.69 185.05,-339.48 235.34,-431.59 49.03,-89.79 98.38,-192.02 152.74,-279.95 60.42,-97.75 104.51,-170.48 159.7,-273.39 32.35,-60.32 70.52,-93.76 160.9,-270.45 197.92,-386.91 415.42,-751.99 603.06,-1138.39 26.55,-54.67 51.32,-91.73 75.36,-147.2 21.74,-50.17 42.53,-98.23 65.12,-149.91 39.03,6.47 122.2,70.61 160.81,93.48 47.74,28.27 111.35,65.68 171.97,99.54 124.43,69.49 394.68,227.72 513.28,276.44l351.58 181.13c60.72,31.93 122.77,54.1 186.03,85.29 120.33,59.3 237.03,110.45 366.69,164.3 91.08,37.81 97.4,55.03 164.29,94.56l901.89 442.64c-145.01,-368.61 -521.99,-820.33 -707.63,-1204.83 -60.78,-125.89 -71.61,-178.45 -151.01,-330.68 -26.61,-51.03 -39.11,-54.01 -71.58,-89.8 -128.71,-141.87 -48.67,-131.97 -111.79,-196.79l-186.46 -296.12c-24.5,-72.62 -60.78,-147.96 -112.81,-207.22 -82.16,-93.58 -94.9,-205.91 -156.01,-325.92l-297.42 -505.57c-49.26,-56.24 -22.8,-24.37 -59.51,-102.52 25.27,-40.72 96.62,-178.63 132.36,-185.28 -1.69,1.58 -4.63,1.55 -5.17,4.61l-29.32 74.64c64.09,-38.27 24.74,-52.6 79.05,-113.93 121.75,-137.49 136.06,-293.62 208.07,-385.04 16.6,-21.07 50.11,-29.43 106.14,-156.18 -11.17,62.96 5.46,23.5 18.5,36.8 22.31,-72.77 40.17,-37 71.94,-116.75 69.38,-174.14 103.44,-153.82 137.17,-236.24 21.79,-53.24 -15.39,-18.33 30.29,-49.5 32.84,-22.41 33.23,-9.83 62.82,-40.17 14.74,-35.86 20.14,-67.54 41.76,-93.25 29.32,-34.85 62.26,-32.94 65.96,-63 -14.62,34.54 -29,49.4 -42.82,88.4 137.84,-114.78 341.45,-450.3 359.52,-642.61 201.35,-138.72 231.88,-313.36 338.5,-504.24l288.12 -576.33 -1961.68 930.74c-13.88,6.17 -300.27,182.89 -312.7,209.32 -16.48,35.04 47.26,-8.21 -60.66,59.68 -27.26,17.15 -53.64,35.59 -83.44,52.14 -44.14,24.51 -37.43,19.38 -83.68,37.22 -34.95,13.48 -55.15,33.01 -88.47,50.16 -43.58,22.41 -144.21,81.31 -185.14,86.13 -70.53,-163.91 -584.64,-1124.15 -652.29,-1222.53 -28.4,-41.31 -52.36,-83.51 -79.27,-131.82 -48.63,-87.28 -102.39,-173.75 -152.22,-267.61 -150.35,-283.18 -372.58,-624.06 -550.96,-906.35 -23.98,-37.95 -58.35,-87.56 -75.14,-134.67 -30.81,-86.42 -240.56,-430.11 -303.18,-537 -52.05,-88.85 -103.44,-172.82 -157.62,-262.36 -59.09,-97.67 -79.63,-175.4 -147.01,-273.26l-316.19 -524.76 -11.66 0c-51.14,93.76 -99.1,188.86 -152.84,281.34 -51.8,89.12 -97.98,188.09 -151.86,280.64 -135.58,232.86 -457.86,671.1 -513.81,794.3 -53,116.68 -76.72,216.85 -147.34,284.91 -73.68,71.01 -35.73,70.34 -71.59,137.97l-160.67 284.64c-76.26,147.75 -147.25,184.22 -252.12,404.04 -95.66,200.5 -132.01,203.74 -252.69,388.3l-248.89 416.84c-56.02,94.55 -103.29,175.79 -162.02,271.66 -82.15,134.1 -56.55,128.23 -159.09,284.97l-263.33 390.33c-52.6,76.76 -65.18,57.05 -92.75,129.81 -47.16,-13 -89.14,-31.63 -123.21,-53.36 26.72,-12.4 34.74,-2.03 63.89,-3.32 -29.8,-34.8 -14.48,-19.12 -60.74,-37.68 -94.86,-38.07 16.73,-35 -217.94,-115.65 -45.18,-15.52 -112.57,-39.4 -148.17,-61.09 -37.58,-22.89 -16.43,-22.98 -63.91,-48.68 -23.97,-12.98 -49.54,-25.42 -74.42,-37.8 65.87,16.42 27.37,-8.75 39.5,-19.56 -86.49,-14.95 -23.93,-21.79 -100.25,-54.77 -37.73,-16.31 -81.61,-28.57 -114,-46.21l-139.62 -81.06c-10.01,-11.04 -16.87,-36.63 -31.17,-57.1 -44.4,-15.39 -48.67,1.92 -83.39,-26.49 -34.17,-27.97 -12.12,-29.49 -51.73,-59.28 66.02,16.7 24.51,8.74 48.09,-8.21 -101.79,-43.66 -254.85,-223.14 -526.05,-235.03 -111.16,-168.42 -318.7,-213.34 -536.68,-299.29 -135.82,-53.56 -528.95,-253.18 -578.37,-264.85l428.81 809.46c87.07,150.3 367.77,733.62 437.83,810.03 32.75,35.71 113.89,161.93 133.77,173.52 29.5,17.21 7.41,-29.41 68.98,56.32 79.4,110.53 109.11,173.68 175.19,294.32 36.68,66.97 84.92,129.13 121.13,199.29 9.47,18.35 13.59,36.3 21.69,52.53 6.52,13.04 25.66,38.84 29.65,44.9 31.21,47.44 -1.04,28.47 80.52,154.64l208.64 333.65c42.43,69.76 85.03,130.64 120.18,196.98 -12.6,38.62 -84.82,137.85 -113.25,178.59 -352.95,505.61 -859.26,1371.73 -1142.55,1934.54 -51.85,103.01 -76.03,102.27 -122.67,184.71 -74.94,132.46 -149.61,258.89 -228.9,389.46l-227.98 388.51z"/>
 </g>
</svg>
