<?xml version="1.0" encoding="UTF-8"?>
<!DOCTYPE svg PUBLIC "-//W3C//DTD SVG 1.1//EN" "http://www.w3.org/Graphics/SVG/1.1/DTD/svg11.dtd">
<!-- Creator: CorelDRAW -->
<svg xmlns="http://www.w3.org/2000/svg" xml:space="preserve" width="514.783mm" height="192.36mm" version="1.1" style="shape-rendering:geometricPrecision; text-rendering:geometricPrecision; image-rendering:optimizeQuality; fill-rule:evenodd; clip-rule:evenodd"
viewBox="0 0 21911.92 8187.88"
 xmlns:xlink="http://www.w3.org/1999/xlink"
 xmlns:xodm="http://www.corel.com/coreldraw/odm/2003">
 <defs>
  <style type="text/css">
   <![CDATA[
    .fil0 {fill:#458CF4}
    .fil1 {fill:#FFF01F}
    .fil3 {fill:#458CF4;fill-rule:nonzero}
    .fil2 {fill:#FFF01F;fill-rule:nonzero}
   ]]>
  </style>
 </defs>
 <g id="Capa_x0020_1">
  <metadata id="CorelCorpID_0Corel-Layer"/>
  <path class="fil0" d="M11330.35 7226.43c94.63,-103.65 -24.33,-142.79 -119.83,-204.31 -340.35,-219.24 -922.94,-745.62 -1008.67,-1142.94 -100.24,-464.53 494.96,-630.82 688.5,-1774.19 531.07,-3137.31 -3428.32,-4159.28 -5726.85,-4102.79 -1682.47,41.35 -3434.47,578.01 -4436.53,1749.7 -909.23,1063.15 -976.21,2491.35 -140.86,3635.25 1792.75,2125.42 5081.15,2287.91 7573.48,1495.88 410.87,-130.57 702.46,64.18 1001.98,163.46 393.66,130.47 1884.31,491.52 2168.77,179.95z"/>
  <path class="fil1" d="M4751.22 4400.66c4.66,7.7 16.81,27.35 25.31,45.86 93.24,203.13 80.32,1092.5 409.24,1745.69 126.79,251.78 305.04,459.75 595.88,551.92 719.46,228.05 1188.52,-224.75 1404.98,-812.04 110.97,-301.06 137.21,-621.68 195.76,-955.1 25.05,-142.67 56.06,-375.24 226.83,-337.68 116.1,25.53 159.05,247.57 208.43,370.97 670.68,1675.48 2678.09,6.65 2086.58,-2134.87 -152.86,-553.41 -530.89,-1066.59 -1087.85,-1221.26 -876.63,-243.44 -1063.69,905.72 -1175.4,1081.92 -56.68,89.4 -112.09,97.95 -171.39,-6.43 -128.22,-225.69 -195.99,-945.13 -287.76,-1264.36 -356.28,-1239.33 -1437.39,-1057.58 -1827.36,-592.94 -592.72,706.24 -390.95,1944.5 -603.45,2104.01 -320.96,240.91 -352.71,-598.79 -497.24,-981.97 -33.39,-88.5 -70.39,-158.23 -132.97,-243.94 -115.13,-157.71 -278.74,-264.46 -558.42,-218.73 -675.46,110.46 -518.34,1504.38 -800.97,1499.27 -169.98,-3.07 -156.91,-163.91 -225.65,-319.1 -468.86,-1058.46 -1836.32,-638.93 -1661.21,1023.93l53.3 506.09c115.76,1099.28 1176.81,1509.18 1624.78,411.79 229.12,-561.28 315.37,-273.51 403.89,113.49 34.31,150.04 76.39,332.44 126.29,475.13 276.79,791.46 985.12,709.17 1228.23,-83.73 46.69,-152.26 79.47,-317.44 120.74,-477.79 21.92,-85.17 175.46,-517.98 319.43,-280.12z"/>
  <path class="fil2" d="M19528.76 3449.09c16.67,-48.95 58.56,-97.45 114.12,-96.55 79.58,-12.02 153.61,50 178.39,122.38 18.47,97.16 -29.58,187.1 -48.35,279.9 103.76,-22.67 203.02,-62.02 306.03,-86.34 127.33,-20.72 201.07,165.18 112.77,248.97 -57.51,47.15 -133.34,59.76 -202.27,82.44 -108.57,33.94 -220.28,56.61 -328.25,92.5 -140.7,442.68 -208.57,903.97 -274.04,1362.56 -10.81,103.16 -37.24,216.53 17.57,312.18 42.95,74.33 143.1,83.19 218.04,59.62 109.17,-37.09 184.25,-132.89 237.7,-230.5 114.42,-222.24 160.82,-470 219.09,-710.86 39.79,-164.28 88.74,-331.26 191.45,-468.5 112.77,-159.62 287.26,-272.84 476.46,-318.64 159.17,-33.64 342.22,3.45 452.89,129.59 102.26,113.67 126.29,271.49 132.89,418.65 52.86,-13.51 96.1,-48.8 139.35,-80.33 109.17,-81.54 202.42,-188.15 255.27,-314.74 9.01,-20.57 18.92,-41.59 36.94,-55.86 77.93,-19.37 153.47,55.86 146.41,132.89 6.91,77.93 -38.59,146.25 -76.28,210.52 -74.18,108.27 -168.78,203.02 -274.64,280.5 -77.63,56.91 -165.48,96.56 -249.72,141.9 -43.85,199.71 -111.27,397.93 -228.24,567.31 -89.05,135.45 -215.78,252.12 -371.35,304.53 -120.88,43.85 -263.83,48.35 -376.61,-19.97 -90.85,-50.75 -151.66,-138.9 -197.16,-230.05 -75.38,192.21 -190.1,381.26 -370,491.48 -126.59,82.14 -290.26,113.07 -435.02,66.07 -86.34,-26.28 -149.86,-94.3 -202.12,-164.43 -85.74,169.53 -208.42,334.11 -388.32,410.24 -115.02,46.4 -262.48,56.31 -362.64,-28.38 -92.8,-77.49 -120.28,-203.77 -130.04,-318.64 -7.36,-235 77.03,-457.99 124.33,-685.03 13.96,-65.32 21.92,-133.49 4.05,-198.81 -57.51,-21.02 -110.82,17.57 -151.66,53.91 -121.48,107.52 -211.43,244.31 -292.22,383.81 -177.04,306.03 -299.72,639.09 -428.26,967.34 -17.27,42.35 -31.69,86.49 -55.86,125.84 -47.6,73.58 -168.48,84.24 -224.34,15.02 -41.74,-47.45 -50.3,-111.27 -46.85,-172.08 -97.3,113.37 -194.16,230.35 -316.69,318.19 -171.33,128.09 -390.87,216.38 -606.8,175.39 -138.15,-31.54 -239.2,-142.36 -295.67,-267.44 -78.83,185 -186.8,370.9 -362.94,478.26 -130.19,72.98 -298.07,118.63 -438.32,46.7 -75.23,-34.24 -117.43,-109.02 -154.52,-178.69 -94.15,169.38 -225.84,326.6 -401.23,415.2 -127.79,63.37 -293.26,86.04 -417.3,2.55 -70.28,-42.8 -101.51,-122.83 -131.69,-195.06 -79.74,115.78 -156.77,234.4 -254.83,335.91 -113.07,137.25 -249.57,254.07 -398.08,351.23 -160.82,107.96 -351.23,171.33 -545.24,176.14 -188.9,-4.2 -376.9,-74.63 -513.85,-206.32 -186.5,-177.94 -274.8,-435.47 -303.18,-686.54 -58.71,-479.46 128.39,-959.83 424.96,-1330.88 177.94,-219.84 397.18,-419.25 665.06,-521.06 142.36,-49.41 298.37,-83.49 447.93,-47.9 126.44,25.23 248.36,105.26 296.27,229 59.61,151.96 22.53,321.05 -34.24,468.05 -35.74,89.65 -91.9,186.8 -191.46,213.98 -98.05,30.03 -211.43,-42.95 -220.88,-145.36 17.57,-60.37 67.57,-104.52 94.9,-160.37 33.64,-66.22 73.88,-143.85 44.75,-218.79 -13.81,-57.06 -65.17,-101.81 -124.33,-103.91 -110.07,-13.21 -217.28,27.78 -310.83,82.29 -169.83,98.81 -307.23,245.82 -423.3,402.58 -190.55,265.34 -320.14,584.58 -321.5,914.48 -5.25,180.94 32.89,366.54 127.04,522.56 81.39,133.65 228.1,231.85 387.57,231.1 171.19,10.36 331.71,-70.42 467.76,-166.83 210.83,-154.21 379.76,-359.78 511.3,-584.12 204.22,-338.62 301.83,-725.43 417.6,-1099.63 33.64,-112.17 194.16,-146.4 274.04,-63.82 35.44,34.99 39.49,90.7 24.18,136.2 -88.3,300.32 -189.81,597.64 -250.77,905.17 -11.11,87.84 -19.37,186.8 31.83,264.43 33.93,47.45 102.56,41.29 151.21,23.87 122.53,-48.95 203.92,-160.97 271.34,-269.24 213.38,-359.18 291.62,-774.98 424.21,-1166.3 28.98,-81.84 108.72,-155.57 200.32,-145.66 73.28,-6.01 135.44,63.97 134.69,134.4 -7.36,44.45 -24.48,86.49 -37.69,129.59 -70.13,222.39 -127.79,448.53 -181.4,675.43 -23.27,105.26 -51.8,212.78 -37.39,321.5 3.15,28.23 21.33,51.65 34.69,76.28 86.34,25.68 171.64,-22.22 232.9,-79.74 78.69,-78.23 128.69,-179.29 171.04,-280.35 82.89,-203.92 138.75,-417.3 195.81,-629.48 58.86,-228.55 167.58,-455.89 358.29,-602.9 97.3,-76.58 222.24,-114.42 345.82,-106.32 128.99,-7.96 254.37,78.24 296.42,200.17 55.86,160.22 32.89,341.61 -39.79,492.98 -71.78,147.16 -200.31,260.53 -346.72,330.81 -120.13,61.87 -248.67,104.66 -375.1,151.06 32.43,101.96 88.14,216.08 199.41,247.91 143.85,29.58 287.26,-31.38 403.93,-111.87 183.05,-128.08 301.67,-326.6 386.06,-529.16 113.82,-278.85 180.95,-573.32 265.03,-861.78 16.82,-55.86 27.48,-123.28 81.24,-156.62 59.76,-42.05 153.16,-33.49 197.01,27.33 35.89,48.65 34.09,114.12 18.92,170.13 -33.34,119.53 -62.46,240.41 -88.89,361.74 -6.46,25.38 -8.11,51.66 -6.76,78.09 32.43,-33.79 49.55,-78.09 72.53,-118.18 104.36,-209.32 233.8,-408.74 397.93,-576.47 109.92,-101.51 232,-207.97 385.62,-230.05 83.94,-2.7 176.44,38.29 210.83,119.38 45.65,88.29 27.78,191 27.18,286.51 -27.78,185.15 -68.92,368.05 -109.02,550.94 -19.52,100.61 -49.25,200.92 -39.64,304.68 -2.55,35.44 22.53,76.88 61.87,74.63 78.08,-11.11 140.4,-66.82 189.65,-124.78 91.3,-112.77 144.61,-250.62 181.69,-389.37 85.14,-331.86 120.73,-673.78 194.76,-1008.03 32.13,-144.76 70.88,-288.01 103.76,-432.77 -256.63,31.69 -513.55,65.92 -771.98,81.24 -90.25,11.56 -181.69,15.62 -272.55,10.36 -46.4,-13.06 -86.34,-48.05 -104.96,-92.65 -6.01,-56.31 -12.01,-126.88 39.65,-164.88 48.95,-33.78 112.62,-23.57 168.93,-26.42 344.77,-27.63 689.54,-62.47 1030.41,-123.13 51.36,-129.44 81.99,-265.94 131.69,-395.98zm1200.84 886.7c-77.33,22.37 -159.17,85.29 -156.92,173.28 -10.66,101.21 74.78,179.59 159.17,218.33 95.05,46.55 203.02,40.69 305.73,35.14 44.9,-1.95 45.35,-55.56 44.45,-88.6 -7.21,-108.57 -28.68,-229 -114.27,-304.68 -63.37,-59.46 -159.92,-50.6 -238.16,-33.48zm-334.26 513.55c-22.22,64.12 -34.84,131.99 -32.58,200.01 0.9,97.3 -10.51,198.06 23.12,291.76 23.43,77.03 73.13,147.91 144.16,187.7 74.63,38.45 164.58,9.46 226.75,-40.09 143.1,-110.97 225.69,-282.75 270.74,-454.54 -71.33,-2.1 -142.5,9.91 -213.68,3.15 -98.21,-4.81 -193.41,-37.84 -278.7,-85.74 -50.91,-28.08 -91.75,-70.28 -139.8,-102.26zm-3912.6 732.93c-114.57,68.93 -180.95,192.36 -230.8,312.04 -40.24,107.21 -80.49,216.23 -95.95,330.35 75.53,-5.26 147.45,-32.29 218.18,-57.97 112.92,-46.1 228.4,-111.42 289.06,-221.94 52.41,-92.8 72.08,-209.63 37.84,-311.28 -31.69,-88.6 -148.06,-94.9 -218.33,-51.21z"/>
  <path class="fil3" d="M12484.1 801.15c27.33,-9.46 56.91,-2.25 85.14,-2.55 106.01,3.01 212.18,0.6 318.19,1.35 -76.43,99.1 -157.37,194.76 -233.2,294.31 -18.02,27.78 -53.46,33.79 -84.09,32.74 -80.04,-0.9 -160.07,5.55 -240.11,0.45 25.08,-75.23 63.22,-145.05 94.45,-217.73 18.02,-37.09 31.53,-77.49 59.61,-108.57zm1382.98 441.48c254.23,-42.95 542.99,3.3 732.04,190.85 3.75,48.65 -33.34,83.34 -58.41,120.43 -33.04,43.55 -58.41,93.25 -99.11,130.64 -58.26,19.52 -100.91,-34.84 -148.66,-56.91 -201.67,-114.28 -486.07,-71.78 -628.72,116.22 -92.35,122.08 -100.46,283.65 -81.99,429.61 19.37,141.76 108.27,273.44 237.55,336.82 111.72,58.26 244.46,64.42 365.94,38.29 81.84,-17.57 146.25,-73.28 219.39,-110.07 40.09,-11.57 65.62,31.23 88.89,56.46 33.49,47.6 78.84,87.25 105.56,139.5 11.11,46.25 -33.48,75.08 -64.12,100.16 -325.25,272.09 -862.37,213.98 -1131.46,-110.52 -101.66,-120.58 -163.37,-271.64 -186.2,-427.06 -14.86,-172.84 -8.56,-354.08 69.98,-512.35 106.01,-230.5 331.41,-396.12 579.32,-442.07zm-1848.48 24.48c37.99,-7.66 77.18,-5.26 115.77,-5.55 250.32,0 500.64,3.75 750.96,-1.5 40.39,1.5 98.81,-8.26 115.17,40.69 5.26,68.32 1.05,137.25 2.1,205.72 2.4,29.13 -12.01,66.67 -45.2,69.82 -203.17,6.61 -407.09,-2.25 -610.26,5.1 -3.9,98.21 -4.51,196.86 -0.15,294.92 4.2,4.5 12.76,13.51 17.12,18.02 172.84,5.11 346.12,-1.2 518.96,3.15 34.09,7.66 43.4,43.7 43.7,74.33 1.05,59.02 1.05,118.33 -0.9,177.49 -0.15,36.79 -37.54,59.31 -71.02,59.61 -163.97,0.3 -328.1,2.85 -492.08,3.15 -4.21,4.65 -12.46,13.66 -16.52,18.32 -3.15,102.71 -1.8,205.72 -0.75,308.58 4.35,4.35 13.06,13.06 17.42,17.42 193.86,4.35 388.17,-2.4 582.18,1.05 31.69,-0.45 59.01,28.23 58.56,59.76 1.2,64.72 2.25,129.74 -0.9,194.46 -1.95,29.58 -23.27,66.52 -57.66,60.52 -309.78,0.9 -619.71,4.81 -929.5,0.3 -9.01,-16.07 -24.48,-29.89 -26.42,-48.95 1.05,-489.68 7.21,-979.5 -1.05,-1469.18 -0.3,-31.23 3.45,-66.97 30.48,-87.24zm2838.65 72.98c-2.55,-33.79 14.27,-81.99 55.71,-77.18 88.9,-1.05 178.24,-3.3 267.14,1.5 36.94,3 36.49,47.9 37.39,75.98 -0.3,160.22 -0.75,320.44 -1.95,480.67 -1.65,21.02 4.81,41.14 12.16,60.66 205.27,-1.95 410.69,0.9 616.11,-1.5 1.05,-184.7 -0.75,-369.55 0.9,-554.24 -1.05,-31.54 24.62,-67.27 58.86,-63.37 89.2,-0.6 178.69,-4.35 267.59,1.8 30.33,1.5 38.59,36.19 36.94,61.26 -1.5,495.53 0.9,991.06 -0.3,1486.6 1.2,25.23 -8.26,54.06 -36.79,58.41 -89.04,3.15 -178.39,1.8 -267.43,1.5 -34.24,5.41 -56.31,-30.63 -55.26,-60.81 -3.45,-200.02 6.61,-400.48 -3.6,-600.2 -205.72,-5.1 -411.44,0.15 -617.16,-0.75 -6.46,19.82 -12.46,39.94 -11.26,61.12 1.65,170.43 -0.15,340.71 1.05,511.15 0.75,33.19 -0.9,75.08 -38.14,87.85 -88.74,3.45 -177.79,1.05 -266.54,1.35 -40.1,4.21 -59.46,-40.54 -55.71,-74.18 2.85,-485.92 -1.35,-971.84 0.3,-1457.61zm2122.83 -18.92c10.06,-29.43 30.03,-61.12 65.17,-60.82 104.36,-4.95 209.47,-6.61 313.83,-0.75 53.16,4.5 64.72,65.47 80.19,106.46 170.28,474.66 343.42,948.27 514.45,1422.63 7.51,21.17 7.51,44.14 8.41,66.52 -78.24,25.68 -161.57,11.56 -242.21,16.52 -42.35,0.3 -102.26,6.31 -121.93,-41.59 -32.73,-85.29 -57.51,-173.44 -89.2,-259.03 -204.37,-1.35 -408.89,1.95 -613.26,0.45 -33.79,79.89 -56.61,163.97 -86.49,245.36 -9.76,33.94 -43.7,57.36 -78.84,54.81 -88.9,-0.3 -177.94,3.01 -266.54,-1.8 -31.54,-15.47 -21.02,-55.41 -15.02,-82.74 180.19,-487.57 353.63,-977.55 531.42,-1466.02zm219.24 373.6c-76.28,189.5 -140.55,383.66 -210.83,575.27 3.45,4.06 10.66,12.31 14.11,16.37 135.89,5.86 272.39,1.95 408.44,0.3 -18.17,-82.59 -55.11,-159.17 -81.53,-239.21 -44.6,-117.12 -80.34,-237.7 -130.19,-352.73zm999.32 -354.98c-2.4,-30.93 8.41,-76.58 47.6,-74.48 94.9,-4.35 190.11,1.5 285.16,0.15 39.19,-2.55 69.22,30.18 88.44,60.66 154.37,271.34 300.78,547.34 451.38,820.63 133.49,-244.46 263.08,-491.33 405.29,-731.13 31.83,-48.5 49.55,-109.02 96.56,-145.96 82.29,-12.31 166.68,-2.26 250.02,-7.66 34.09,3.01 80.64,-12.01 102.71,22.98 4.81,23.13 5.26,46.85 5.71,70.42 -1.2,445.53 0.6,891.05 -0.6,1336.59 -1.05,48.65 4.81,97.9 -4.06,146.11 -15.17,17.42 -34.98,34.84 -59.61,33.49 -74.63,0.6 -149.26,1.65 -223.74,-0.6 -31.53,-1.65 -56.61,-30.03 -57.81,-60.66 -3.75,-317.29 4.21,-634.73 -2.25,-951.87 -138.9,213.53 -252.57,442.97 -386.21,659.96 -27.63,49.25 -89.95,56.61 -140.85,53.61 -42.94,2.55 -94.15,-5.71 -118.33,-45.8 -133.04,-215.48 -255.58,-437.57 -390.27,-652 -8.11,312.34 -1.35,624.97 -4.21,937.31 1.95,31.83 -25.98,60.66 -57.51,60.21 -75.08,0.75 -150.16,0.6 -225.09,0.15 -25.53,3.46 -42.2,-17.72 -60.52,-31.08 -2.55,-500.34 -0.3,-1000.67 -1.8,-1501.01zm2029.58 -14.57c-6.76,-41.59 36.49,-69.68 74.48,-64.42 275.39,0.75 550.94,1.2 826.48,-1.05 28.08,0.15 57.37,-0.45 84.24,9.76 34.09,51.96 13.97,118.03 19.67,176.44 -2.4,44.3 12.61,118.77 -46.7,130.49 -198.96,5.41 -398.53,-0.9 -597.64,2.7 -1.2,101.06 0.6,201.97 -1.35,303.03 19.52,7.06 39.49,13.51 60.82,12.31 140.4,-0.75 280.95,-0.45 421.5,-1.95 32.43,0.15 76.73,-2.1 88,36.94 2.85,73.88 0.9,147.76 1.05,221.79 5.26,34.99 -32.13,55.11 -62.17,56.01 -168.48,4.66 -337.41,-1.8 -505.89,6.46 -5.7,113.97 -4.5,228.39 -1.2,342.52 199.56,1.8 399.13,-0.6 598.54,1.2 20.42,-1.8 30.94,20.72 46.1,30.93 -0.45,83.49 0.6,167.13 -0.6,250.77 -18.62,12.76 -34.98,33.94 -59.76,32.29 -295.07,1.35 -590.28,0.75 -885.35,0.45 -25.38,2.55 -41.89,-19.07 -60.37,-31.98 0,-504.84 -0.15,-1009.68 0.15,-1514.68zm-6866.12 2128.83c142.65,-115.17 337.26,-132.74 513.4,-112.02 111.72,21.33 225.24,58.41 311.88,135 33.34,24.62 7.21,62.92 -7.36,90.4 -38.59,63.97 -67.27,133.8 -112.47,193.56 -54.36,-3.9 -93.85,-45.8 -142.35,-65.47 -97,-42.05 -216.98,-66.07 -311.58,-5.1 -60.22,35.29 -73.58,118.93 -46.25,178.99 32.58,61.86 103.91,84.24 164.57,108.27 148.36,53.46 316.39,82.29 431.42,199.27 103.16,105.86 116.07,264.73 97.45,403.93 -17.72,129.14 -81.69,258.12 -194.46,329.15 -129.59,87.24 -291.76,108.57 -444.63,98.65 -159.77,-7.21 -316.54,-64.87 -443.43,-162.17 -13.06,-12.01 -43.09,-28.23 -26.73,-49.25 29.58,-60.97 66.37,-118.03 96.85,-178.54 16.97,-28.08 30.03,-62.32 59.77,-79.29 32.13,-6.91 56.31,19.82 82.14,34.09 102.86,69.22 224.64,117.13 350.77,105.86 70.58,2.25 150.92,-28.68 175.99,-100.31 12.31,-57.51 12.16,-125.09 -29.43,-171.33 -50.75,-51.36 -120.73,-74.93 -186.8,-99.11 -122.23,-46.4 -256.03,-79.58 -354.38,-170.73 -195.06,-171.93 -189.8,-521.66 15.62,-683.83zm-1376.38 3.01c-7.96,-44.15 25.83,-92.95 73.13,-88.74 285.76,-1.05 571.52,-0.9 857.12,0 29.28,-3.46 52.26,15.46 74.18,31.83 1.8,83.64 -0.45,167.43 0.3,251.37 -15.32,9.91 -25.68,32.43 -46.25,30.93 -179.89,1.5 -360.09,1.8 -539.98,0.6 -18.62,3.15 -54.06,-9.46 -58.56,17.87 -3.01,99.71 0,199.87 -1.2,299.87 173.28,15.62 348.07,-0.9 521.96,4.5 26.88,2.1 54.21,24.78 51.06,53.91 2.7,69.37 3.45,139.35 -0.75,208.87 0.6,24.78 -21.92,46.4 -46.7,45.2 -155.12,2.55 -310.23,1.5 -465.5,1.95 -21.33,-1.95 -41.45,5.26 -60.66,13.51 1.2,110.07 1.2,220.14 0,330.36 19.22,7.66 39.04,15.46 60.52,13.81 160.37,0.15 320.74,-0.6 481.12,-5.41 28.08,0.15 57.51,-2.85 84.39,7.66 25.83,15.92 19.37,47.9 21.77,73.73 0.15,68.77 6.31,138.15 -2.55,206.77 -17.27,22.38 -44.6,36.49 -73.28,33.64 -290.41,-0.3 -580.97,1.5 -871.39,-0.9 -45.95,0.3 -63.82,-49.25 -59.17,-87.85 5.71,-481.12 6.76,-962.38 0.45,-1443.5zm2521.51 -28.98c-2.1,-31.53 29.28,-60.66 60.06,-59.92 290.26,-0.75 580.52,-0.6 870.93,-0.15 33.64,-3.15 67.72,23.87 65.62,59.31 1.65,69.82 3.61,139.95 -1.8,209.63 1.5,27.03 -23.58,47.9 -49.85,45.65 -195.06,1.05 -390.27,0 -585.48,0.45 -4.81,106.16 -4.35,212.63 -1.65,318.79 165.48,9.16 331.41,0 496.88,2.4 34.24,-1.65 68.62,21.47 72.38,56.91 3.6,63.82 2.25,127.94 0.3,191.91 0.3,23.43 -13.97,43.7 -31.23,58.26 -177.49,7.66 -355.88,-3.3 -533.37,5.71 -15.32,113.67 -5.71,229.15 -6.01,343.72 20.57,4.81 41.74,8.71 63.37,9.01 170.13,0.3 340.26,-2.1 510.55,-2.1 31.98,-2.7 68.62,15.17 66.22,52.26 1.95,74.18 2.25,149.11 -4.95,223.14 -1.2,30.03 -35.89,44.15 -61.87,43.1 -285.31,2.4 -570.61,1.5 -855.92,1.8 -34.99,4.5 -77.93,-19.67 -74.18,-58.86 -0.6,-500.34 -0.45,-1000.67 0,-1501.01z"/>
 </g>
</svg>
