<?xml version="1.0" encoding="UTF-8"?>
<!DOCTYPE svg PUBLIC "-//W3C//DTD SVG 1.1//EN" "http://www.w3.org/Graphics/SVG/1.1/DTD/svg11.dtd">
<!-- Creator: CorelDRAW -->
<svg xmlns="http://www.w3.org/2000/svg" xml:space="preserve" width="248.472mm" height="115.991mm" version="1.1" style="shape-rendering:geometricPrecision; text-rendering:geometricPrecision; image-rendering:optimizeQuality; fill-rule:evenodd; clip-rule:evenodd"
viewBox="0 0 24847.22 11599.07"
 xmlns:xlink="http://www.w3.org/1999/xlink"
 xmlns:xodm="http://www.corel.com/coreldraw/odm/2003">
 <defs>
  <style type="text/css">
   <![CDATA[
    .fil1 {fill:#014075}
    .fil0 {fill:#01BEF6}
   ]]>
  </style>
 </defs>
 <g id="Capa_x0020_1">
  <metadata id="CorelCorpID_0Corel-Layer"/>
  <path class="fil0" d="M9757.14 4358.45c1960.54,1403.07 3988.04,2024.32 5733.86,186.44 1613.23,-1698.23 485.69,-3831.65 -1863.12,-3998.19 -2013.62,-142.75 -3417.85,957.71 -4350.47,2406.74 711.29,-265.24 1237.05,-295.15 1564.89,-80.48 230.79,151.13 486.53,227.03 742.2,241.46 -28.93,-674.43 484.91,-924.07 1005.13,-614.96 574.85,341.58 324.88,1351.05 -370.22,1097.83 -1538.79,-560.53 -2679.14,-509.46 -3650.08,434.74 25.9,-109.74 39.6,-224.18 39.6,-341.81 0,-818.43 -663.51,-1481.93 -1481.94,-1481.93 -818.5,0 -1482.01,663.5 -1482.01,1481.93 0,818.51 663.51,1482.02 1482.01,1482.02 522.04,0 981.02,-269.95 1245.02,-677.87 491.81,-309.84 992.26,-417.08 1385.13,-135.92zm-1402.6 -3216.55c285.89,0 517.65,231.76 517.65,517.65 0,285.89 -231.76,517.65 -517.65,517.65 -285.89,0 -517.65,-231.76 -517.65,-517.65 0,-285.89 231.76,-517.65 517.65,-517.65zm-1233.74 400.94c142.46,0 257.95,115.49 257.95,257.95 0,142.46 -115.49,257.95 -257.95,257.95 -142.46,0 -257.95,-115.49 -257.95,-257.95 0,-142.46 115.49,-257.95 257.95,-257.95z"/>
  <path class="fil1" d="M7531.47 5507.25c703.62,-215.92 1279.24,-151.41 1788.6,64.44 6516.53,2761.43 10155.61,-2975.86 6359.42,-5243.35 -899.56,-537.34 -2052.85,-294.57 -2942.91,-114.23 956.25,-116.85 2008.06,-132.01 2787.52,473.23 1011.3,785.26 1517.3,1671.86 829.38,3232.3 -860.36,1553.71 -2370.21,2238.52 -4376.37,1995.75 -687.58,-83.21 -1351.28,-364.05 -1979.43,-700.55 -940.36,-503.77 -1720.98,-314.48 -2466.21,292.41z"/>
  <path class="fil1" d="M16545.88 8983.97l539.65 -5.18c-35,397.22 -56.89,1850.12 76.89,2123.96 121.42,248.57 346.08,382.96 653.01,453.53 408.71,93.96 610.84,-24.97 952.02,-67.64l-83.86 -630.07c-67.45,63.27 -840.37,343.1 -839.81,-442.19 0.22,-304.01 -35.56,-1205.4 21.8,-1434.97l854.96 -4.4 2.58 -578.77 -874.91 0.54 -7.28 -836.74c-176.68,253.95 -396.97,477.39 -727.22,623.85l4.33 213.3 -569.68 -3.59 -2.48 588.37zm8135.8 -432.3c-281.27,-105.33 -410.11,-207.56 -793.69,-234.25 -1223.92,-85.16 -1632.95,959.89 -1177.79,1522.2 324.77,401.23 1266.33,397.21 1373.79,720.25 130.01,390.84 -287.25,450.92 -612.89,426.12 -396.89,-30.22 -503.94,-129.08 -790.04,-237.16l-207.73 580.49c353.68,269.85 1274.4,348.13 1742.21,153.63 435.28,-180.98 850.34,-747.8 501.31,-1331.78 -317.82,-531.73 -1101.36,-451.96 -1373.08,-750.19 -321.79,-353.19 341.06,-774.96 1224.87,-276.74l113.04 -572.57zm-5477.8 -145.8c18.68,633.77 -102.37,2262.34 114.97,2669.71 305.02,571.72 1062.18,619.05 1497.99,408.81l388.53 -279.28c3.78,-12.18 15.16,-11.08 20.49,-15.59l29.35 331.56 716.73 4.19 2.98 -3128.22 -784.28 1.31c7.26,529.93 2,1062.83 2.03,1593.1 0.03,338.09 44.43,451.48 -133.39,660.48 -100.24,117.81 -278.1,251.83 -506.98,277.78 -230.43,26.13 -426.47,-99.58 -512.63,-253.52 -123.58,-220.75 -74.18,-1990.78 -60.23,-2279.6l-775.56 9.27zm-5049.13 1293.26c29.13,-1042.44 1377.21,-1124.23 1312.93,-2.05l-395.41 -0.44 -719.08 -0.48 -198.44 2.97zm2026.51 502.85c52.8,-963.07 -42.32,-1635.57 -907.89,-1844.31 -1900.72,-458.39 -2497.98,2098.71 -1332.92,2958.64 558.53,412.25 1772.97,345.18 2170.93,-84l-220.29 -455.56c-317.88,128.48 -718.41,295.33 -1146.24,163.8 -324.69,-99.82 -581.55,-360.51 -594.95,-758.74 439.91,6.82 1699.37,-56.64 2031.36,20.17zm-4917.79 -1120.54l-1.12 -1214.83 1797.57 -13.19 3.7 -672.13 -2637.36 -7.16 -2.7 4348.21 844.5 -9.41 20.9 -1755.83 1549.13 -4.21 2.08 -669.44 -1576.7 -2.01z"/>
  <path class="fil0" d="M6.72 11522.31l2739.87 -0.67 -2.82 -700.69 -1874.92 4.54 -14.2 -1162.26 1565.01 -3.41 -3.89 -669.19 -1584.75 1.46 1.87 -1107.96 1846.5 -18.81 -2.36 -685.72 -2677.03 -0.44 6.72 4343.15zm6832.08 -3126.58c15.65,654.62 -98.64,2276.98 116.7,2684.02 364.77,689.47 1356.83,593.37 1728.85,261.71 79.95,-71.29 97.93,-99.89 193.12,-155.31 7.17,122.41 21.78,183.9 24.35,335.09l737.67 1.58 2.56 -3124.97 -788 -3.69c28.1,510.35 5.47,1080.35 5.87,1597.3 0.26,326.7 45.77,451.4 -131.74,650.94 -111.08,124.85 -267.89,252.37 -496.83,288.15 -258.17,40.36 -447.23,-95.19 -545.35,-254.59 -112.72,-183.13 -69.17,-486.73 -68.95,-717.14l1.43 -1561.39 -779.68 -1.7zm-1474.01 2250.16c-243.45,186.88 -539.57,438.08 -991.82,238.64 -828.51,-365.38 -442.39,-2676.19 988.51,-1706.13l3.31 1467.49zm4.6 -2015.38c-78.05,-28.52 -815.8,-661.94 -1572.29,-105.96 -924.49,679.43 -800.71,2439.55 18.65,2915.23 233.83,135.75 580.73,191.71 917.98,133.18 394.64,-68.48 447.16,-257.29 663.41,-378.35l26.58 329.16 708.99 -11.14 -7.49 -4371.46 -762.92 -8.08 7.09 1497.42z"/>
 </g>
</svg>
