<?xml version="1.0" encoding="UTF-8"?>
<!DOCTYPE svg PUBLIC "-//W3C//DTD SVG 1.1//EN" "http://www.w3.org/Graphics/SVG/1.1/DTD/svg11.dtd">
<!-- Creator: CorelDRAW 2021 (64-Bit) -->
<svg xmlns="http://www.w3.org/2000/svg" xml:space="preserve" width="851.428mm" height="565.936mm" version="1.1" style="shape-rendering:geometricPrecision; text-rendering:geometricPrecision; image-rendering:optimizeQuality; fill-rule:evenodd; clip-rule:evenodd"
viewBox="0 0 9482.19 6302.72"
 xmlns:xlink="http://www.w3.org/1999/xlink"
 xmlns:xodm="http://www.corel.com/coreldraw/odm/2003">
 <defs>
  <style type="text/css">
   <![CDATA[
    .fil0 {fill:#EA632B;fill-rule:nonzero}
    .fil1 {fill:#FEFEFE;fill-rule:nonzero}
   ]]>
  </style>
 </defs>
 <g id="Capa_x0020_1">
  <metadata id="CorelCorpID_0Corel-Layer"/>
  <g id="_2475341246880">
   <path class="fil0" d="M856.71 4550.48c-38.78,-14.28 -65.31,-38.27 -79.59,-71.94 -14.29,-33.67 -18.88,-66.84 -13.78,-99.49 5.1,-32.65 3.06,-64.3 -6.12,-94.91 -9.18,-30.61 -30.1,-48.98 -62.76,-55.1 -53.07,-10.21 -103.06,17.34 -150.01,82.65 -46.94,65.32 -83.68,152.05 -110.21,260.22 -26.53,108.17 -44.39,221.95 -53.57,341.34 -9.19,119.4 -2.56,234.71 19.89,345.94 22.45,111.22 60.21,195.42 113.27,252.57 26.53,28.57 56.64,45.41 90.31,50.52 33.68,5.1 65.82,-10.21 96.43,-45.92 30.61,-35.72 47.97,-94.39 52.05,-176.03 10.2,-240.83 112.25,-335.74 306.14,-284.71 79.6,20.41 133.17,83.17 160.72,188.28 27.55,105.11 22.96,213.79 -13.77,326.04 -32.65,108.17 -96.94,194.91 -192.87,260.22 -95.92,65.32 -211.24,108.17 -345.94,128.59 -153.07,20.4 -285.22,-26.53 -396.45,-140.83 -111.23,-114.29 -188.28,-262.26 -231.13,-443.91 -34.69,-148.98 -46.43,-305.63 -35.2,-469.93 11.23,-164.29 36.74,-321.45 76.54,-471.46 39.8,-150.01 90.31,-281.14 151.54,-393.39 55.11,-104.09 140.31,-192.36 255.63,-264.81 115.31,-72.46 227.06,-104.6 335.22,-96.44 114.29,8.17 207.67,52.05 280.12,131.65 72.46,79.59 109.7,189.81 111.74,330.63 0,26.53 -1.53,55.11 -4.59,85.72 -3.06,30.61 -9.18,65.82 -18.37,105.62 -9.18,39.8 -22.45,75.01 -39.8,105.62 -17.35,30.61 -39.29,59.18 -65.82,85.71 -26.53,26.53 -58.68,41.33 -96.43,44.39 -37.76,3.06 -82.15,-2.55 -133.18,-16.84l-0.01 0zm1317.98 -3432.72c28.57,-77.55 91.84,-127.56 189.81,-150.01 110.21,-24.49 195.93,0 257.16,73.48 69.39,79.59 77.55,202.05 24.49,367.37 -6.12,18.36 -45.41,117.36 -117.86,296.95 -72.46,179.6 -109.7,304.11 -111.74,373.5 0,65.31 13.77,112.76 41.33,142.35 27.55,29.59 64.8,33.68 111.74,12.25 46.94,-21.43 92.86,-67.86 137.76,-139.3 44.9,-69.39 86.74,-147.97 125.52,-235.72 48.98,-108.17 84.69,-214.82 107.15,-319.92 22.45,-105.11 38.27,-207.67 47.46,-307.67 9.18,-100 16.83,-168.38 22.96,-205.12 22.45,-110.21 80.62,-185.73 174.5,-226.54 95.92,-40.82 178.58,-22.45 247.97,55.1 97.97,110.21 122.46,299 73.48,566.37 -6.12,36.73 -16.84,97.45 -32.14,182.15 -15.31,84.7 -24.49,138.28 -27.55,160.72 -3.06,22.45 -10.21,65.32 -21.43,128.58 -11.22,63.27 -17.34,104.09 -18.36,122.46 -1.03,18.36 -4.6,51.53 -10.72,99.49 -6.12,47.97 -8.67,82.66 -7.65,104.09 1.02,21.43 1.02,52.05 0,91.84 -1.02,39.8 0,75.01 3.06,105.62 3.06,30.61 6.63,65.31 10.71,104.08 4.08,38.78 9.19,79.6 15.31,122.46 16.32,120.42 -2.04,214.3 -55.11,281.66 -53.07,67.35 -120.42,100.01 -202.06,97.96 -73.47,0 -135.72,-26.02 -186.75,-78.07 -51.02,-52.04 -71.43,-126.03 -61.23,-221.95 4.08,-48.99 18.37,-115.31 42.86,-198.99 24.49,-83.67 43.88,-152.55 58.17,-206.64 14.28,-54.08 14.28,-83.17 0,-87.25 -38.78,-16.33 -73.99,1.02 -105.62,52.04 -31.63,51.03 -72.96,151.03 -123.99,300.01 -16.33,51.03 -42.86,95.93 -79.6,134.71 -36.74,38.78 -78.06,67.86 -123.99,87.25 -45.92,19.38 -93.88,31.12 -143.89,35.21 -50,4.08 -98.98,-4.59 -146.94,-26.02 -47.97,-21.43 -90.82,-51.54 -128.58,-90.31 -37.76,-38.78 -67.86,-93.37 -90.31,-163.78 -22.45,-70.42 -33.16,-151.03 -32.14,-241.85 1.02,-90.82 13.78,-195.93 38.27,-315.33 24.49,-119.4 37.76,-203.58 39.8,-252.57 0,-67.35 0,-130.11 0,-188.28 0,-58.17 0.51,-110.21 1.53,-156.13 1.02,-45.92 5.61,-93.38 13.77,-142.36 8.17,-48.99 22.45,-96.94 42.86,-143.89l0 0.01zm1989.91 459.22c-65.31,89.8 -107.15,201.04 -125.52,333.69 -18.37,132.67 -5.1,243.89 39.8,333.7 36.73,75.52 86.74,131.64 150.01,168.38 63.27,36.74 126.03,53.07 188.28,48.98 62.25,-4.08 126.03,-15.3 191.34,-33.67 87.76,-28.57 143.88,-82.65 168.38,-162.25 20.41,-65.31 9.19,-109.19 -33.68,-131.64 -24.49,-14.29 -56.13,-15.31 -94.9,-3.06 -89.8,28.57 -160.21,47.96 -211.24,58.16 -87.76,14.29 -151.54,-9.69 -191.34,-71.94 -39.8,-62.25 -43.37,-131.13 -10.72,-206.65 30.61,-69.39 92.86,-127.56 186.75,-174.5 73.47,-36.74 151.54,-58.16 234.19,-64.29 82.66,-6.12 161.75,5.11 237.26,33.67 124.5,53.07 220.42,143.89 287.78,272.46 67.35,128.59 81.63,264.31 42.86,407.17 -106.13,402.07 -344.92,624.53 -716.38,667.39 -214.3,24.49 -403.6,-26.02 -567.89,-151.54 -164.29,-125.52 -272.98,-308.69 -326.04,-549.52 -40.82,-187.77 -40.31,-384.21 1.53,-589.32 41.84,-205.11 119.91,-385.22 234.2,-540.34 114.29,-155.12 245.93,-254.1 394.92,-296.96 69.39,-18.37 144.91,-29.59 226.54,-33.67 81.63,-4.09 162.77,8.67 243.38,38.27 80.62,29.59 132.16,77.04 154.6,142.36 20.41,65.31 13.78,135.72 -19.89,211.24 -33.67,75.51 -89.29,116.33 -166.85,122.46 -69.39,4.08 -122.46,8.67 -159.19,13.77 -36.73,5.1 -81.63,13.26 -134.71,24.49 -53.06,11.22 -97.45,28.06 -133.17,50.52 -35.72,22.45 -65.82,50 -90.31,82.65zm2173.61 1518.46c-40.82,14.29 -97.96,20.92 -171.44,19.9 -73.47,-1.02 -138.77,1.53 -195.93,7.65 -28.57,4.08 -93.37,23.98 -194.4,59.7 -101.03,35.72 -179.09,49.5 -234.2,41.33 -63.27,-6.13 -117.36,-26.53 -162.25,-61.23 -44.9,-34.7 -75.52,-78.58 -91.84,-131.65 -16.33,-71.43 -25,-137.25 -26.02,-197.46 -1.02,-60.21 7.65,-132.67 26.02,-217.35 18.36,-84.7 37.25,-159.2 56.63,-223.49 19.39,-64.29 40.82,-136.23 64.29,-215.83 23.47,-79.6 39.29,-145.93 47.46,-199 16.33,-83.67 26.02,-166.84 29.08,-249.5 3.06,-82.65 3.57,-148.48 1.53,-197.46 -2.04,-48.99 -7.14,-122.96 -15.3,-221.96 -8.17,-98.98 -14.29,-172.97 -18.37,-221.95 -10.2,-167.35 39.8,-287.77 150.01,-361.25 110.21,-73.47 222.97,-75.51 338.29,-6.12 115.31,69.39 173.99,190.83 176.03,364.31 0,151.03 -21.43,320.43 -64.29,508.2 -22.45,93.88 -65.31,229.09 -128.58,405.64 -63.28,176.54 -106.13,304.61 -128.59,384.21 -12.24,44.9 -21.42,79.08 -27.55,102.56 -6.12,23.47 -11.73,50.52 -16.83,81.13 -5.1,30.61 -6.12,55.62 -3.06,75 3.06,19.39 8.67,35.21 16.83,47.46 14.29,18.36 36.74,28.57 67.35,30.61 30.61,2.04 61.24,-2.04 91.85,-12.25 30.61,-10.2 68.88,-21.43 114.8,-33.68 45.92,-12.24 84.19,-20.4 114.8,-24.49 97.96,-12.25 173.48,15.3 226.55,82.65 53.06,67.36 74.49,140.32 64.29,218.9 -10.21,78.57 -45.92,127.05 -107.15,145.41l0.01 -0.01zm45.92 -1950.12c-8.16,-106.13 9.18,-187.77 52.05,-244.91 42.86,-57.15 98.98,-88.78 168.37,-94.9 63.27,-6.12 122.46,8.67 177.56,44.39 55.11,35.72 91.84,83.17 110.21,142.36 22.45,69.39 39.29,161.23 50.51,275.53 11.23,114.29 22.45,205.12 33.68,272.46 11.22,67.35 28.06,100 50.51,97.96 30.61,0 59.19,-18.36 85.72,-55.11 26.53,-36.73 52.56,-103.57 78.07,-200.52 25.51,-96.94 43.37,-218.89 53.57,-365.84 10.21,-151.03 44.39,-260.73 102.56,-329.1 58.17,-68.37 126.03,-98.48 203.58,-90.31 89.8,12.24 154.61,62.76 194.4,151.54 39.8,88.78 41.33,201.55 4.59,338.29 -34.7,128.58 -83.68,246.95 -146.95,355.12 -63.27,108.17 -159.19,237.77 -287.77,388.8 -79.6,91.84 -124.5,177.56 -134.71,257.16 -8.16,55.11 -3.57,119.4 13.78,192.87 17.34,73.48 36.23,166.34 56.64,278.6 20.4,112.25 27.55,235.72 21.42,370.43 -2.04,71.43 -24.49,131.13 -67.35,179.09 -42.86,47.96 -93.37,76.53 -151.54,85.72 -58.17,9.18 -116.85,7.65 -176.03,-4.6 -59.19,-12.24 -109.19,-42.34 -150.01,-90.31 -40.82,-47.96 -62.25,-104.6 -64.29,-169.91 -4.08,-126.54 4.08,-247.46 24.49,-362.78 20.41,-115.31 40.31,-211.75 59.7,-289.31 19.39,-77.55 27.04,-136.73 22.96,-177.56 -4.08,-30.62 -9.7,-59.7 -16.84,-87.25 -7.14,-27.55 -13.26,-50.01 -18.36,-67.36 -5.11,-17.34 -15.31,-40.31 -30.61,-68.88 -15.31,-28.57 -26.02,-48.47 -32.14,-59.7 -6.13,-11.22 -20.41,-34.19 -42.86,-68.88 -22.45,-34.7 -36.73,-57.15 -42.86,-67.35 -67.36,-110.21 -115.83,-203.08 -145.42,-278.6 -29.59,-75.51 -48.48,-161.23 -56.64,-257.16l-0.01 0.01zm-3858.96 4222.56c-18.37,97.96 -42.35,183.68 -71.94,257.16 -29.59,73.47 -62.26,131.13 -97.97,172.97 -35.72,41.84 -75.51,76.54 -119.4,104.09 -43.88,27.55 -88.27,44.9 -133.17,52.05 -44.9,7.14 -90.31,12.24 -136.24,15.3 -45.92,3.06 -89.28,0.51 -130.11,-7.65 -122.46,-12.25 -220.42,-51.03 -293.9,-116.34 -73.47,-65.31 -121.95,-140.83 -145.41,-226.54 -23.47,-85.72 -35.2,-184.71 -35.2,-296.96 0,-112.25 8.16,-214.3 24.49,-306.14 16.33,-91.84 33.17,-184.2 50.52,-277.06 17.35,-92.86 26.02,-155.62 26.02,-188.28 0,-40.82 -0.51,-110.21 -1.53,-208.18 -1.02,-97.96 -0.51,-167.35 1.53,-208.17 2.04,-40.82 10.2,-92.87 24.49,-156.14 14.28,-63.27 36.74,-121.44 67.35,-174.5 57.15,-97.97 126.03,-171.95 206.65,-221.96 80.61,-50 161.74,-71.94 243.38,-65.82 81.63,6.12 160.21,30.61 235.73,73.48 75.52,42.86 141.85,109.7 198.99,200.52 57.15,90.82 94.9,195.42 113.27,313.79 30.61,193.88 42.34,402.06 35.21,624.53 -7.14,222.46 -28.06,435.73 -62.76,639.84l0 0.01zm-303.08 -639.84c8.16,-102.04 8.67,-192.36 1.53,-270.94 -7.14,-78.57 -17.86,-145.93 -32.14,-202.05 -14.29,-56.13 -32.15,-102.05 -53.58,-137.77 -21.43,-35.72 -42.34,-61.74 -62.76,-78.07 -20.41,-16.32 -38.78,-23.47 -55.11,-21.42 -24.49,2.04 -45.92,11.73 -64.29,29.08 -18.36,17.34 -32.65,43.88 -42.86,79.59 -10.21,35.72 -17.86,66.33 -22.96,91.84 -5.1,25.51 -11.73,61.74 -19.9,108.68 -2.04,12.24 -3.06,20.41 -3.06,24.49 -8.16,48.98 -19.38,154.09 -33.67,315.32 -2.04,16.33 -5.61,46.43 -10.71,90.31 -5.1,43.88 -9.19,79.09 -12.25,105.62 -3.06,26.53 -4.59,59.19 -4.59,97.96 0,38.78 3.06,70.41 9.18,94.9 6.13,24.49 17.35,46.94 33.68,67.35 16.32,20.41 37.76,33.68 64.29,39.8 51.02,10.21 96.43,2.56 136.23,-22.96 39.8,-25.51 71.44,-63.27 94.9,-113.27 23.47,-50.01 41.84,-100 55.11,-150.01 13.27,-50.01 20.92,-99.5 22.96,-148.48zm1619.49 639.84c-18.37,97.96 -42.35,183.68 -71.94,257.16 -29.59,73.47 -62.25,131.13 -97.97,172.97 -35.72,41.84 -75.51,76.54 -119.4,104.09 -43.88,27.55 -88.27,44.9 -133.17,52.05 -44.9,7.14 -90.31,12.24 -136.24,15.3 -45.92,3.06 -89.29,0.51 -130.11,-7.65 -122.46,-12.25 -220.42,-51.03 -293.9,-116.34 -73.47,-65.31 -121.95,-140.83 -145.41,-226.54 -23.47,-85.72 -35.21,-184.71 -35.21,-296.96 0,-112.25 8.16,-214.3 24.49,-306.14 16.33,-91.84 33.16,-184.2 50.52,-277.06 17.35,-92.86 26.02,-155.62 26.02,-188.28 0,-40.82 -0.51,-110.21 -1.53,-208.18 -1.02,-97.96 -0.51,-167.35 1.53,-208.17 2.04,-40.82 10.2,-92.87 24.49,-156.14 14.28,-63.27 36.74,-121.44 67.35,-174.5 57.15,-97.97 126.03,-171.95 206.65,-221.96 80.61,-50 161.74,-71.94 243.38,-65.82 81.63,6.12 160.21,30.61 235.72,73.48 75.52,42.86 141.85,109.7 199,200.52 57.15,90.82 94.9,195.42 113.27,313.79 30.62,193.88 42.34,402.06 35.21,624.53 -7.14,222.46 -28.06,435.73 -62.76,639.84l0 0.01zm-303.08 -639.84c8.16,-102.04 8.67,-192.36 1.53,-270.94 -7.14,-78.57 -17.86,-145.93 -32.14,-202.05 -14.29,-56.13 -32.14,-102.05 -53.58,-137.77 -21.43,-35.72 -42.34,-61.74 -62.76,-78.07 -20.41,-16.32 -38.78,-23.47 -55.11,-21.42 -24.49,2.04 -45.92,11.73 -64.29,29.08 -18.36,17.34 -32.66,43.88 -42.86,79.59 -10.21,35.72 -17.86,66.33 -22.96,91.84 -5.1,25.51 -11.73,61.74 -19.9,108.68 -2.04,12.24 -3.06,20.41 -3.06,24.49 -8.16,48.98 -19.38,154.09 -33.67,315.32 -2.04,16.33 -5.61,46.43 -10.71,90.31 -5.1,43.88 -9.19,79.09 -12.25,105.62 -3.06,26.53 -4.59,59.19 -4.59,97.96 0,38.78 3.06,70.41 9.18,94.9 6.13,24.49 17.35,46.94 33.68,67.35 16.32,20.41 37.76,33.68 64.29,39.8 51.02,10.21 96.43,2.56 136.23,-22.96 39.8,-25.51 71.44,-63.27 94.9,-113.27 23.47,-50.01 41.84,-100 55.11,-150.01 13.27,-50.01 20.92,-99.5 22.96,-148.48zm2730.79 551.05c-24.49,165.32 -128.58,247.97 -312.27,247.97 -81.63,0 -152.55,-22.96 -212.77,-68.88 -60.21,-45.92 -89.29,-106.64 -87.25,-182.15 2.04,-75.51 28.06,-190.32 78.07,-344.41 50.01,-154.09 75,-233.17 75,-237.26 4.09,-14.28 6.64,-28.57 7.66,-42.86 1.02,-14.29 2.55,-27.55 4.59,-39.8 2.04,-12.24 2.55,-27.04 1.53,-44.39 -1.02,-17.35 -1.02,-30.62 0,-39.8 1.02,-9.19 0,-24.49 -3.06,-45.92 -3.06,-21.43 -4.59,-35.72 -4.59,-42.86 0,-7.15 -2.04,-23.47 -6.13,-48.99 -4.08,-25.51 -6.63,-41.33 -7.65,-47.46 -1.02,-6.12 -3.57,-24.49 -7.65,-55.1 -4.08,-30.62 -7.14,-48.99 -9.18,-55.11 -14.29,-91.84 -3.07,-168.38 33.67,-229.61 36.74,-61.23 95.92,-101.02 177.56,-119.4 153.07,-34.7 265.32,-20.92 336.76,41.33 71.43,62.25 82.65,145.41 33.67,249.5 -6.12,14.28 -25,52.56 -56.64,114.8 -31.63,62.25 -55.11,113.78 -70.41,154.6 -15.31,40.82 -25,79.59 -29.08,116.34 -8.17,67.35 1.53,186.24 29.08,356.65 27.55,170.42 37.25,291.35 29.08,362.78zm-2198.1 759.23c-8.16,-55.1 0.51,-166.84 26.02,-335.23 25.51,-168.37 46.94,-332.67 64.29,-492.88 17.35,-160.21 14.8,-338.29 -7.65,-534.21 -2.04,-12.24 -8.17,-47.45 -18.37,-105.62 -10.2,-58.17 -17.85,-103.58 -22.96,-136.24 -5.1,-32.66 -10.71,-79.08 -16.83,-139.29 -6.12,-60.21 -10.2,-112.25 -12.25,-156.13 -2.04,-43.88 -1.53,-91.33 1.53,-142.36 3.07,-51.03 9.7,-95.92 19.9,-134.7 22.45,-91.84 58.68,-158.69 108.68,-200.53 50,-41.84 104.6,-60.72 163.78,-56.64 69.39,6.12 128.58,39.8 177.56,101.02 48.99,61.23 72.45,136.74 70.41,226.55 -2.04,61.23 -20.91,142.87 -56.64,244.91 -35.72,102.05 -58.67,177.56 -68.88,226.54 -30.61,161.24 -16.32,249 42.86,263.28 63.27,12.25 141.84,-20.41 235.73,-97.96 93.88,-77.56 163.28,-172.46 208.18,-284.72 108.17,-271.44 195.93,-461.25 263.28,-569.42 73.47,-124.5 166.33,-168.38 278.59,-131.64 67.35,20.41 112.76,63.27 136.24,128.58 23.47,65.31 18.87,134.7 -13.78,208.17 -118.38,287.78 -232.67,498.51 -342.88,632.19 -110.21,133.69 -263.28,243.38 -459.21,329.1 -20.41,8.16 -34.19,16.84 -41.33,26.02 -7.14,9.18 -9.18,16.84 -6.12,22.96 3.06,6.12 9.69,11.22 19.9,15.3 108.17,44.9 204.61,103.58 289.3,176.03 84.7,72.45 147.97,139.3 189.81,200.53 41.84,61.23 81.63,123.48 119.4,186.75 37.76,63.27 65.82,103.07 84.18,119.4 44.9,44.9 96.43,75 154.6,90.31 58.17,15.3 111.23,19.89 159.2,13.77 47.96,-6.12 106.13,-12.24 174.5,-18.36 68.38,-6.13 127.06,-6.13 176.03,0 42.86,4.08 80.62,23.47 113.27,58.17 32.65,34.7 55.11,73.98 67.35,117.86 12.25,43.88 15.31,90.31 9.18,139.3 -6.12,48.99 -22.45,89.8 -48.98,122.46 -46.94,57.15 -119.91,97.96 -218.89,122.46 -98.99,24.49 -199.51,31.64 -301.55,21.43 -140.83,-14.29 -269.4,-60.21 -385.74,-137.77 -116.34,-77.55 -209.2,-182.66 -278.59,-315.32 -10.21,-20.41 -29.08,-56.64 -56.64,-108.68 -27.55,-52.04 -47.97,-90.31 -61.23,-114.8 -13.27,-24.49 -32.65,-60.21 -58.17,-107.15 -25.51,-46.94 -45.92,-82.15 -61.23,-105.62 -15.31,-23.47 -34.7,-53.06 -58.17,-88.78 -23.47,-35.72 -44.39,-62.25 -62.76,-79.6 -18.37,-17.35 -38.27,-35.72 -59.7,-55.11 -21.43,-19.39 -42.34,-32.65 -62.76,-39.8 -20.41,-7.14 -40.82,-10.72 -61.23,-10.72 -22.45,2.05 -39.29,11.74 -50.52,29.08 -11.22,17.35 -16.83,41.84 -16.83,73.48 0,31.63 4.08,67.86 12.24,108.68 8.16,40.82 20.41,87.25 36.74,139.3 16.33,52.05 34.18,105.11 53.58,159.19 19.39,54.08 42.34,113.78 68.88,179.09 42.86,110.21 35.21,209.2 -22.96,296.96 -58.17,87.76 -132.16,144.91 -221.96,171.44 -79.59,24.49 -157.15,15.3 -232.66,-27.55 -75.52,-42.86 -121.44,-117.36 -137.77,-223.49l0.01 0zm3303.27 -42.86c-114.29,57.15 -231.65,83.17 -352.07,78.07 -120.42,-5.11 -221.43,-40.31 -303.08,-105.62 -126.54,-100.01 -171.44,-246.95 -134.7,-440.85 65.31,-346.96 92.86,-622.49 82.66,-826.58 -2.05,-48.98 -6.13,-114.8 -12.25,-197.46 -6.12,-82.66 -10.71,-147.97 -13.77,-195.93 -3.06,-47.96 -4.08,-105.11 -3.06,-171.44 1.02,-66.34 6.12,-121.44 15.3,-165.32 9.18,-43.88 23.98,-89.29 44.39,-136.23 20.41,-46.94 47.96,-87.76 82.65,-122.46 36.74,-38.78 86.74,-69.4 150.01,-91.84 63.27,-22.45 129.6,-36.23 198.99,-41.33 69.39,-5.1 142.35,-9.18 218.89,-12.24 76.54,-3.06 145.42,-2.55 206.65,1.53 55.11,0 108.68,4.08 160.72,12.24 52.05,8.17 103.58,20.41 154.6,36.74 51.03,16.33 94.39,40.82 130.11,73.48 35.72,32.65 56.63,70.41 62.76,113.27 14.28,95.92 -8.68,171.44 -68.89,226.54 -60.21,55.11 -139.29,88.78 -237.26,101.02 -48.99,8.17 -139.81,10.21 -272.46,6.13 -132.67,-4.09 -207.16,-5.11 -223.49,-3.06 -57.15,2.04 -101.54,31.12 -133.17,87.24 -31.63,56.13 -42.35,117.87 -32.14,185.22 10.2,67.35 40.82,116.33 91.84,146.94 38.78,22.45 112.76,18.37 221.95,-12.24 109.19,-30.61 178.07,-45.92 206.65,-45.92 67.35,-2.04 115.82,27.04 145.42,87.25 29.59,60.21 34.69,127.56 15.3,202.06 -19.38,74.49 -58.68,130.11 -117.87,166.84 -100,63.28 -246.95,86.74 -440.84,70.42 -63.27,-6.12 -107.66,9.69 -133.18,47.45 -25.51,37.76 -37.25,88.27 -35.21,151.54 2.04,83.68 12.75,143.89 32.14,180.62 19.39,36.74 46.43,54.08 81.13,52.05 73.47,-4.08 177.56,-57.15 312.26,-159.19 83.68,-61.23 160.73,-80.11 231.13,-56.64 70.41,23.47 116.85,77.04 139.29,160.72 24.49,89.8 -0.51,188.28 -75,295.43 -74.49,107.15 -206.65,207.67 -396.45,301.55l-0.01 0zm1503.15 -698c-8.16,77.55 -39.8,151.54 -94.9,221.95 -55.11,70.42 -123.48,127.05 -205.12,169.91 -157.15,83.68 -301.04,96.94 -431.66,39.8 -63.27,-28.57 -116.34,-68.88 -159.19,-120.93 -42.86,-52.05 -66.33,-109.7 -70.41,-172.97 -4.09,-63.27 25.51,-124.5 88.78,-183.68 14.28,-14.28 33.67,-23.98 58.16,-29.08 24.49,-5.1 60.21,-7.65 107.15,-7.65 46.94,0 75.51,0 85.72,0 163.27,-12.24 206.14,-118.38 128.58,-318.38 -32.65,-79.6 -70.41,-150.51 -113.27,-212.77 -42.86,-62.25 -80.1,-114.8 -111.74,-157.67 -31.63,-42.86 -53.58,-87.75 -65.83,-134.7 -16.32,-67.35 -14.28,-145.93 6.13,-235.73 20.4,-89.8 59.19,-159.19 116.33,-208.18 57.15,-46.94 117.87,-79.59 182.15,-97.96 64.3,-18.36 121.44,-26.53 171.44,-24.49 50.01,2.04 110.72,11.23 182.15,27.55 57.15,10.21 101.54,38.78 133.18,85.72 31.63,46.94 47.45,97.45 47.45,151.54 0,54.08 -8.16,107.66 -24.49,160.72 -12.24,34.7 -32.66,56.64 -61.23,65.83 -28.57,9.18 -57.66,9.18 -87.25,0 -29.59,-9.19 -59.7,-14.8 -90.31,-16.84 -30.61,-2.04 -54.08,2.04 -70.41,12.24 -18.36,14.29 -29.59,30.1 -33.67,47.46 -4.08,17.35 -1.02,39.8 9.18,67.35 10.21,27.55 25,57.15 44.39,88.78 19.39,31.63 46.43,72.97 81.12,123.99 71.44,102.05 122.46,202.57 153.07,301.55 30.61,98.99 38.78,217.87 24.49,356.66zm269.41 223.48c122.46,-12.24 212.26,10.72 269.41,68.89 57.14,58.16 77.04,123.48 59.7,195.93 -17.35,72.45 -58.68,121.95 -123.99,148.48 -100,40.82 -196.95,48.99 -290.83,24.49 -59.19,-14.29 -102.56,-43.88 -130.11,-88.78 -27.55,-44.9 -37.76,-91.84 -30.61,-140.83 7.14,-48.98 32.65,-93.88 76.53,-134.7 43.88,-40.82 100.51,-65.31 169.91,-73.48z"/>
   <path class="fil1" d="M8465.61 0c117.66,0 224.19,47.7 301.3,124.79 77.11,77.11 124.8,183.63 124.8,301.29 0,117.66 -47.7,224.19 -124.8,301.3 -77.11,77.11 -183.64,124.8 -301.3,124.8 -117.66,0 -224.18,-47.7 -301.29,-124.8 -77.09,-77.1 -124.79,-183.64 -124.79,-301.3 0,-117.66 47.7,-224.19 124.8,-301.28 77.09,-77.1 183.63,-124.8 301.28,-124.8zm111.65 567.24c20.51,0 37.14,16.63 37.14,37.15 0,20.51 -16.63,37.14 -37.14,37.14 -20.52,0 -37.15,-16.63 -37.15,-37.14 0,-20.52 16.63,-37.15 37.15,-37.15zm-218.71 -13.23c20.51,0 37.14,16.63 37.14,37.15 0,20.51 -16.63,37.15 -37.14,37.15 -20.52,0 -37.15,-16.64 -37.15,-37.15 0,-20.52 16.63,-37.15 37.15,-37.15zm129.64 -155.22c20.51,0 37.15,16.63 37.15,37.15 0,20.51 -16.64,37.15 -37.15,37.15 -20.52,0 -37.15,-16.64 -37.15,-37.15 0,-20.52 16.63,-37.15 37.15,-37.15zm-194.02 5.3c20.51,0 37.14,16.63 37.14,37.15 0,20.51 -16.63,37.14 -37.14,37.14 -20.52,0 -37.15,-16.63 -37.15,-37.14 0,-20.52 16.63,-37.15 37.15,-37.15zm242.41 -188.59c20.52,0 37.15,16.63 37.15,37.14 0,20.52 -16.63,37.15 -37.15,37.15 -20.51,0 -37.14,-16.63 -37.14,-37.15 0,-20.51 16.63,-37.14 37.14,-37.14zm-64.4 355.98c3.51,0 6.35,2.85 6.35,6.35 0,3.51 -2.84,6.35 -6.35,6.35 -3.51,0 -6.35,-2.84 -6.35,-6.35 0,-3.5 2.85,-6.35 6.35,-6.35zm-72.73 -96.96c3.5,0 6.35,2.85 6.35,6.35 0,3.51 -2.85,6.36 -6.35,6.36 -3.51,0 -6.35,-2.85 -6.35,-6.36 0,-3.51 2.85,-6.35 6.35,-6.35zm64.69 -153.83c3.51,0 6.35,2.85 6.35,6.35 0,3.51 -2.85,6.36 -6.35,6.36 -3.51,0 -6.35,-2.85 -6.35,-6.36 0,-3.5 2.84,-6.35 6.35,-6.35zm-93.03 -75.2c20.52,0 37.15,16.63 37.15,37.15 0,20.51 -16.63,37.14 -37.15,37.14 -20.51,0 -37.14,-16.63 -37.14,-37.14 0,-20.52 16.63,-37.15 37.14,-37.15zm114.43 -130.56c49.84,0 96.94,12.13 138.59,33.65 43.16,22.3 80.45,54.73 108.81,94.18l5.94 8.26 -7.65 6.68c-14.57,12.73 -25.28,26.35 -32.05,40.84 -6.66,14.21 -9.58,29.46 -8.74,45.72l0.29 5.45 -4.14 3.57c-16.95,14.66 -26.1,31.14 -29.23,48.99 -3.24,18.41 -0.31,38.63 6.9,60.11l1.03 3.05 -0.73 3.04c-5.21,22.03 -6,40.61 -2.72,55.97 3.09,14.57 9.97,26.38 20.26,35.63l4.06 3.65 -0.38 5.41c-0.95,13.53 0.13,25.6 2.82,36.47 2.67,10.79 6.95,20.53 12.41,29.46l4.61 7.53 -6.28 6.22c-28.11,27.86 -61.51,50.31 -98.5,65.6 -35.65,14.74 -74.6,22.88 -115.34,22.88 -84.57,0 -161.16,-34.86 -216.59,-91.23 -55.39,-56.32 -89.66,-134.1 -89.66,-219.95 0,-85.85 34.27,-163.62 89.66,-219.94 55.44,-56.36 132.02,-91.23 216.59,-91.23zm128.34 53.53c-38.5,-19.89 -82.12,-31.11 -128.34,-31.11 -78.37,0 -149.32,32.29 -200.65,84.48 -51.37,52.23 -83.16,124.46 -83.16,204.26 0,79.81 31.79,152.03 83.16,204.27 51.33,52.19 122.28,84.48 200.65,84.48 37.85,0 73.93,-7.51 106.84,-21.11 31.59,-13.06 60.37,-31.78 85.11,-54.9 -4.5,-8.61 -8.1,-17.87 -10.58,-27.89 -2.87,-11.61 -4.23,-24.22 -3.72,-38.02 -11.65,-11.82 -19.51,-26.36 -23.23,-43.84 -3.81,-17.85 -3.22,-38.66 2.12,-62.66 -7.63,-23.8 -10.54,-46.62 -6.77,-68 3.75,-21.35 14.03,-41.01 32.65,-58.42 -0.18,-17.94 3.51,-34.91 11,-50.91 6.85,-14.63 16.85,-28.36 29.96,-41.17 -25.49,-33.02 -57.92,-60.26 -95.03,-79.44l0 -0.01zm137.18 -27.8c-73.05,-73.04 -173.97,-118.22 -285.44,-118.22 -111.47,0 -212.38,45.19 -285.43,118.23 -73.05,73.04 -118.22,173.95 -118.22,285.42 0,111.47 45.18,212.39 118.22,285.44 73.05,73.05 173.96,118.22 285.43,118.22 111.47,0 212.39,-45.18 285.44,-118.22 73.05,-73.05 118.22,-173.97 118.22,-285.44 0,-111.47 -45.18,-212.38 -118.22,-285.43z"/>
  </g>
 </g>
</svg>
