<?xml version="1.0" encoding="UTF-8"?>
<svg id="Capa_2" data-name="Capa 2" xmlns="http://www.w3.org/2000/svg" viewBox="0 0 787.54 449">
  <defs>
    <style>
      .cls-1 {
        fill: lime;
        stroke-width: 0px;
      }
    </style>
  </defs>
  <g id="Capa_1-2" data-name="Capa 1">
    <g>
      <path class="cls-1" d="m518.81,342.11h.01c7.33-6.07,12.98-13.49,15.91-22.85-3,3.17-5.66,6.5-8.82,9.24-6.99,6.09-14.7,7.02-22.45,1.99-4.57-2.97-9.09-6.74-12.14-11.19-13.41-19.48-19.06-41.02-14.47-64.56,3.64-18.67,14.72-31.14,32.89-37.01,4.1-1.32,8.8-6.88,8.75-11.22-.12-10.84-.34-21.67-.42-32.51-.09-14.13-.1-28.25-.12-42.38,0-1.26-.23-2.97.46-3.7,4.62-4.89,9.46-9.57,14.23-14.32l1.11.5v5.62c-.03,23.64-.14,47.27-.03,70.91.02,4.81.5,9.68,1.4,14.41,1.59,8.34,6.55,15.04,11.53,21.66,6.3,8.37,12.62,16.72,18.93,25.09-1.53-5.43-3.72-10.37-5.87-15.33-5.89-13.55-9.27-27.7-9.3-42.5-.09-42.43-.02-84.86-.04-127.29,0-1.74-.25-3.48-.42-5.72-12.06,13.88-23.6,27.16-35.79,41.19,0-11.66.05-21.73-.04-31.81-.01-1.74-.04-4.32-1.09-5.06-5.72-4.08-11.77-7.71-18.44-11.95.41,14.17.04,27.16-.5,40.13-.7.07-1.4.15-2.09.23-.98-3.42-2.09-6.82-2.93-10.27-4.57-18.71-10.29-37.03-18.76-54.38-4.6-9.43-9.52-18.71-17.55-26.89,1.06,5.21,2.18,9.6,2.82,14.06.86,5.96-1.17,7.69-7.12,7.14-14.01-1.3-28.04-2.52-42.07-3.54-2.71-.2-4.1-1.18-5.07-3.57-2.14-5.21-4.45-10.35-7-16.24-2.7,5.99-4.9,11.35-7.56,16.47-.74,1.44-2.77,2.94-4.34,3.09-14.72,1.41-29.47,2.53-44.21,3.75-5.09.42-6.04-.15-5.58-5.27.47-5.15,1.73-10.23,2.64-15.33-22.57,27.76-30.05,61.09-34.61,96.97-11.39-12.55-21.9-24.14-32.18-35.48,0,12.62.04,25.1,0,37.58-.12,29.9-.45,59.8-.34,89.7.04,9.42-.2,18.49-6.41,26.25-.14.17-.05.52-.07.8.27.07.55.23.79.2.85-.12,1.71-.23,2.51-.5,7.85-2.7,15.16-.82,22.23,2.69,14.36,7.12,21.86,19.39,24.18,34.64,2.96,19.44-1.39,37.95-9.69,55.55-3.43,7.27-7.96,13.8-14.85,18.37-8.21,5.45-16.81,5.13-24.41-1.13-2.85-2.35-5.5-4.95-7.95-7.16-.02-.12,0,.31.15.68.51,1.17,1.07,2.33,1.61,3.48,5.02,10.72,13.99,17.86,22.97,24.85,31.46,24.5,62.42,49.56,91.29,77.11.38.36.94.54,1.42.8-4.07-5.7-8.56-10.83-13.1-15.9-17.75-19.84-35.48-39.68-53.29-59.45-1.83-2.03-2.01-3.4-.31-5.8,3.12-4.39,6.06-9.01,8.35-13.87,16.57-35.19,23.55-71.49,12.05-109.8-.85-2.84-1.7-5.81-1.72-8.73-.32-39.15-.71-78.31-.58-117.47.05-15,2.57-29.73,8.37-43.78,2.59-6.26,6.74-10.1,13.49-10.86,10.88-1.22,21.76-2.35,32.65-3.46,1.01-.1,2.08.27,3.43.46-.41,1.22-.56,2.06-.95,2.77-11.39,20.67-24.38,39.56-50.64,44.79,3.44,1.38,6.26,2.59,9.13,3.63,6.2,2.25,6.97,3.25,6.95,9.97-.07,27.89-.17,55.79-.25,83.67,0,1.47.12,2.94.25,5.74,4.83-5.43,9-9.69,12.61-14.37,1.6-2.07,2.87-5.01,2.89-7.56.18-24.01.02-48.02.12-72.03,0-1.74.85-3.95,2.08-5.12,7.1-6.73,14.44-13.21,22.28-20.31v4.24c0,29.9-.03,59.81.06,89.71,0,2.76,1.54,5.72.95,8.25-1.23,5.29-3.27,10.03-7.89,14.01-13.57,11.72-26.53,24.14-39.65,36.37-1.38,1.28-3.62,2.21-2.23,5.21,1.58,3.43,2.83,7.17,3.41,10.91,3.35,21.23,6.45,42.48,9.65,63.73,1.42,9.43,2.87,18.86,4.29,28.28.79-1.76.78-3.45.79-5.14.14-28.63.36-57.25.33-85.87,0-4.09,1.18-7.03,4.17-9.67,6.5-5.75,12.85-11.68,19.27-17.52,1.93-1.75,3.89-3.46,6.51-5.8.15,2.26.29,3.48.3,4.7.05,9.24.09,18.48.09,27.72.01,31.04-.06,62.08.09,93.12.02,4.86-1.39,8.9-4.26,12.63-7.6,9.87-17.21,17.32-27.98,23.4-1,.56-1.94,1.22-3.65,2.3,14.58,1.21,23.89,8.76,29.16,20.69,3.88,8.79,6.64,18.16,9.03,27.49,2.44,9.51,3.81,19.29,5.78,29.63.37-2.06.6-3.45.88-4.83,2.37-11.86,4.15-23.88,7.32-35.52,2.14-7.85,5.58-15.55,9.63-22.64,5.37-9.39,14.04-14.59,25.31-15.41-1.14-1.12-2.3-1.79-3.46-2.43-10.68-5.93-20.61-12.83-27.62-23.03-2.01-2.91-3.73-6.66-3.85-10.09-.36-10.53.25-21.09.28-31.65.07-30.05.04-60.1.05-90.15v-6.23c2.58,2.12,4.13,3.26,5.53,4.56,6.54,6.06,12.91,12.33,19.63,18.19,2.87,2.49,3.9,5.15,3.92,8.81.15,17.85.56,35.7.72,53.55.12,13.91.02,27.83.02,41.74,2.9-13.24,4.93-26.52,6.76-39.81,2.65-19.21,5.15-38.45,7.74-57.67.52-3.82,1.17-7.59,7.03-9.32-1.94-1.34-3.09-1.94-4.02-2.8-11.43-10.58-22.48-21.61-34.37-31.65-8.88-7.51-15.73-15.17-13.06-27.83.25-1.2-.99-2.71-1.42-3.81.52-2.18,1.46-4.34,1.47-6.5.06-26.07-.02-52.14-.05-78.21,0-1.33.15-2.66.25-4.28.87.41,1.29.5,1.57.75,6.99,6.2,14.03,12.33,20.89,18.68,1.04.96,1.68,2.89,1.68,4.38.15,24.36.16,48.72.23,73.08,0,1.39-.29,3.24.45,4.11,4.48,5.21,9.22,10.2,13.87,15.27.61-.24.64-.25,1.25-.48v-17.17c0-6.42.1-12.84-.09-19.26-.05-1.76-1.48-3.51-1.41-5.24.09-2.51,1.36-4.99,1.4-7.49.2-12.41.51-24.84.08-37.24-.21-6.08,1.51-9.64,7.56-11.16,2.95-.73,5.67-2.33,8.5-3.54-.12-.7-.11-.6-.23-1.31-12.96-1.01-22.84-7.87-31.57-16.6-8.55-8.54-15.94-17.93-19.35-30.51,13.38,1.02,26.49,2.54,39.52,4.51,4.35.66,7.53,3.92,8.75,8.06,2.83,9.67,6.63,19.38,7.42,29.28,1.41,17.84,1.07,35.83,1.13,53.76.07,20.98-.22,41.95-.34,62.93-.06,10.69-.53,21.12-3.95,31.59-6.09,18.64-5.38,38.01-2.15,57.09,3.81,22.45,11.49,43.55,25.08,62.14,1.37,1.88,1.26,3.05-.27,4.76-15.57,17.45-31.07,34.98-46.57,52.5-8.45,9.55-16.87,19.13-25.3,28.7,1.51-.51,2.5-1.51,3.55-2.43,23.24-20.42,46.35-41,69.8-61.18,11.24-9.67,23.23-18.44,34.66-27.89Zm-36.6-218.91h.01c-.01-1.92-.5-3.83-.93-6.88,2.15,1.16,3.66,1.7,4.83,2.65,3.86,3.13,7.42,6.68,11.46,9.54,3.2,2.27,4.11,4.94,4.08,8.66-.12,16.64-.02,33.28-.01,49.92,0,3.97-.15,7.96.01,11.92.07,1.58.81,3.13,1.49,5.57-6.42,1.97-13.09,4.02-19.95,6.12-2.81-5.79,2.38-12.33-2.41-16.89.63-1.56,1.72-3.02,1.72-4.48,0-22.04-.14-44.09-.31-66.13Zm-176.28,24.35h0c-1.04,19.29-.37,38.67-.41,58v5.16c-6.78-1.89-12.69-3.36-18.43-5.3-1.01-.34-1.91-2.6-1.93-3.99-.16-11.65-.12-23.31-.11-34.97.01-15.77.06-31.54.1-47.31,0-.81.17-1.62.36-3.41,3.54,2.91,6.32,5.67,9.54,7.77,8.82,5.77,11.46,13.44,10.88,24.05Z"/>
      <path class="cls-1" d="m229.16,293.58v-.03c1.52-22.07,15.1-38.84,36.28-45.27,2.49-.76,5.03-1.31,7.55-1.95-.85-.66-1.66-.84-2.46-.89-27.64-1.8-49.07,13.83-54.56,41.02-1.66,8.21-3.92,14.36-12.59,16.41-1.66.39-3.37.54-5.05.79.23-1.68.1-3.51.74-5.02,8.78-20.82,16.21-42.02,16.68-64.94.31-15.38.31-30.77-4.75-45.64-.37-1.09.67-3.14,1.66-4.11,5.67-5.6,11.51-11.02,17.33-16.47.54-.51,1.28-.8,2.57-1.6,1.02,29.56,2.47,58.41-10.2,85.79,5.58-6.7,10.63-13.64,15.73-20.56,8.06-10.92,11.97-23,11.64-36.7-.42-17.51-.14-35.03-.23-52.54-.04-8.22-.37-16.45-.39-24.67-.03-14.35.12-28.7.12-43.05,0-2.84-.51-5.7-.43-8.54.06-2.22.66-4.43,1.03-6.64-.52-.27-1.03-.54-1.55-.81-25.32,24.97-50.62,49.93-75.56,74.53,0-.02,0-.05,0-.07.11-15.66.31-31.31.31-46.96,0-2.93,1.51-3.96,3.86-4.74,14.84-4.94,29.67-9.92,44.49-14.92,1.46-.49,3.15-.88,4.21-1.87,13.89-12.96,29.32-23.44,47.45-29.68-1.06-.12-2.03-.05-2.97.15-15.74,3.25-31.54,6.23-47.2,9.84-49.85,11.52-96.66,30.06-138.1,60.78-29.53,21.88-54.78,47.55-71.63,80.67-5.88,11.55-10.54,23.56-13.1,36.41,16.65-38.19,46.13-64.52,79.43-87.49.5,31.68.76,62.93.29,94.61-17.22-9.87-34.66-14.53-54.2-11.65.67.52.85.79,1.08.83,2.51.52,5.04.93,7.53,1.5,23.71,5.43,39.34,19.02,43.97,43.68,4.37,23.25,3.39,46.51-.31,69.69-4.11,25.68-13.72,49.57-24.68,72.96-1.06,2.25-2.05,4.53-3.07,6.8,6.1-3.1,11.37-6.87,16.73-10.49,16.15-10.92,32.37-21.74,48.45-32.75,1.96-1.34,3.27-3.64,4.75-5.34,2.79-1.14,6.07-1.91,8.71-3.65,16.28-10.73,32.42-21.67,48.62-32.52,1.48-.99,3.07-1.82,4.61-2.73,3.62,4.46,6.94,8.52,10.22,12.63,1.59,1.98,3.22,3.46,5.86.28-.73,3.32-.09,5.9,1.95,7.77,32.11,29.24,71.14,42.02,110.37,47.67-9.22-3.97-21.18-8.25-32.32-14.09-34.69-18.21-51.58-46.92-48.83-86.44Zm-56.46-160.87c.19.65.02.36,0,0h0Zm-3.25,36.87l-.02-.02c-4.05,0-8.1.05-12.15-.02-2.36-.04-3.72.62-3.67,3.35.15,7.75.02,15.51.28,23.25.05,1.47,1.41,2.89,1.2,3.93-.59,2.33-1.51,4.64-1.71,6.99-.32,3.77-.18,7.59-.19,11.39-.01,10.06,0,20.11,0,30.55.94-.15,1.75-.27,2.74-.42.12.67.5,1.42.32,2-4.54,14.57,1.64,27.68,5.58,41.08.75,2.56,1.86,5.1,3.27,7.36,1.67,2.66,1.16,4.18-1.39,5.84-22.3,14.53-44.54,29.17-66.8,43.75-1.02.67-2.18,1.12-3.66,1.88-.08-1.13-.34-1.86-.14-2.42,5.31-14.5,5.74-29.7,5.99-44.83.32-18.84.23-37.69-.12-56.54-.07-3.78-2.11-7.52-3.41-11.87,1.06.99,1.87,1.76,3.61,3.39v-18.49c0-8.26.07-16.54-.06-24.8-.03-1.86-1.1-3.7-1.08-5.54.01-1.9,1.07-3.79,1.12-5.69.16-6.23.06-12.47.09-18.7.07-12.89.23-25.79.18-38.68-.01-3.64,1.14-5.98,4.49-7.78,15.21-8.17,30.29-16.57,45.43-24.87,1.18-.65,2.47-1.09,4.51-1.96v4.87c.04,16.01.04,32.03.18,48.04.02,2.84-.48,4.51-3.53,5.72-3.61,1.41-6.78,3.95-10.86,6.43,4.43,3.95,8.1,7.47,12.08,10.59,1.15.91,3.19.9,4.83.94,4.3.12,8.6.04,12.9.04,0,.41,0,.81,0,1.23Zm14.3,116.08h0c-.42.89-.88,1.78-1.36,2.64-.12.23-.42.36-1.09.94-4.19-8.52-6.26-17.24-6.86-26.14-1.02-15.16-1.54-30.36-1.92-45.55-.29-11.75-.06-23.5-.06-35.17,5.8-1.16,14.79,2.84,17.92,7.87,5.07,8.13,6.36,17.27,6.63,26.58.71,23.92-3,47.02-13.26,68.84Zm11.93-116.75h0c-4.84-2.27-10.01-3.88-15.16-5.37-4.48-1.29-4.92-1.82-1.66-5.34,8.3-8.98,16.76-17.8,25.18-26.67,7.73-8.15,15.47-16.29,23.22-24.42,1.05-1.1,2.19-2.1,3.3-3.14.38.14.75.28,1.13.42.08,1.49.22,2.99.23,4.48.05,8.39.23,16.79,0,25.17-.06,2-1.02,4.44-2.4,5.86-9.22,9.48-18.7,18.7-27.99,28.11-1.9,1.92-3.24,2.11-5.85.9Zm5.86,147.06c4.52-2.25,8.74-4.35,12.99-6.45,2.88,9.6,5.61,18.7,8.57,28.51-7.9-6.92-16.92-11.91-21.55-22.06Z"/>
      <path class="cls-1" d="m771.98,181.55h0c-9.53-17.59-21.41-33.26-35.47-47.29-31.73-31.62-69.13-54.57-110.56-71.12-27.57-11.02-56.22-18.41-85.2-24.57-8.13-1.73-16.36-2.98-24.55-4.46-.07.23-.12.46-.19.69.61.28,1.19.63,1.82.85,17.69,5.99,33.26,15.36,46.37,28.76,1.34,1.37,3.16,2.51,4.97,3.14,13.72,4.74,27.45,9.41,41.25,13.88,3.2,1.04,4.48,2.41,4.36,5.99-.35,10.1-.23,20.22-.26,30.33-.03,10.11-.07,20.22-.01,30.33.06,10.25.62,20.51.26,30.75-.34,9.73,1.33,19.44.07,29.15-.04.28-.12.68.03.84,2.57,2.89.42,5.98.6,8.95.21,3.7.15,7.19-.34,10.89-.93,7.04-.47,14.26-1.42,21.28-1.52,11.26-3.66,22.44-5.69,33.62-.32,1.76-1.44,3.37-2.63,6.02-1.51-2.57-2.43-3.96-3.17-5.44-5.66-11.21-8.58-23.22-9.83-35.61-1.36-13.53-1.95-27.04-1.2-40.7.79-14.53.05-29.14.05-43.71,0-25.78.07-51.55,0-77.32,0-1.15-.81-2.92-1.74-3.37-7.52-3.62-15.49-5.55-24.51-6.11.99,1.21,1.39,2.03,2.05,2.46,5.67,3.73,6.8,9.1,6.72,15.55-.33,24.92-.28,49.84-.28,74.76,0,1.75.8,3.5,1.31,5.59-.52,2.92-1.54,6.45-1.68,10.02-.5,11.66-.93,23.34-.88,35.01.04,9.38.32,18.81,1.35,28.12,1.85,16.85,7.98,32.56,14.19,48.18.79,1.99,1.31,4.09,2.2,6.91-5.13-1.94-9.21-3.55-13.34-5.04-2.63-.95-3.65-2.61-3.64-5.47.07-23.56-22.52-52.75-56.86-46.75,1.76.74,3.62,1.2,5.46,1.68,19.72,5.27,33.05,17.52,35.91,37.86,4.41,31.34-4.14,58.95-28.2,80.66-11.9,10.74-25.87,18.02-40.88,23.37-4.65,1.66-9.4,3.06-14.69,4.78,1.04.1,1.44.23,1.82.16,24.29-4.35,48.27-9.95,70.71-20.52,22.46-10.57,42.31-24.62,56.3-45.7,1.68-2.54,3.26-2.62,5.59-1.09,5.59,3.68,11.35,7.09,16.83,10.9,5.33,3.7,11.02,6.83,16.38,10.49,30.43,20.8,61.03,41.36,91.58,61.99,1.47.99,3.01,1.85,4.53,2.78-.26-2.64-1.18-4.65-2.22-6.61-22.86-43.33-33.05-89.05-26.95-138.13,2.69-21.63,13.26-36.93,33.16-45.46,6.68-2.86,13.91-4.45,20.91-6.62-9.21-.64-18.59-.93-27.64,1.61-8.9,2.5-17.53,5.96-26.67,9.14v-93.36c1.41.62,2.24.84,2.89,1.31,22.28,15.79,43.19,33.09,59.14,55.57,1.61,2.27,4.09,3.26,5.32,6.65,2.87,7.93,7.96,15.06,12.16,22.52-3.3-13.78-8.79-26.59-15.55-39.05Zm-197.28,46.04c-2.27-4.52-.88-7.23,4.64-8.26-1.78,3.16-3.07,5.47-4.64,8.26Zm9.25-11.46c-.9-1.04-2.66-2.2-2.52-3.08.26-1.71,1.58-3.26,2.46-4.87.36.19.73.37,1.09.56-.51.82-1.03,1.63-1.54,2.45.33-.05.66-.11.99-.16.34,1.46.68,2.91,1.02,4.37-.5.24-.99.49-1.49.73Zm-18.48,121.63c2.78-9.9,5.25-18.71,7.9-28.14,4.4,1.82,8.76,3.62,13.79,5.69-3.92,10.45-12.72,15.95-21.69,22.45Zm93.33,13.74h0c-1.76.49-3.43.95-5.32,1.47-.23-1.24-.59-3.11-1.01-5.32,2.56.3,4.61.53,6.89.79-.16.89-.38,2.05-.56,3.05Zm21.83-8.82h0c-3.81-2.14-7.04-5.83-12.1-5.24-.53.07-1.71-.82-1.66-1.04,1.15-4.54-3.11-4.8-5.27-6.21-13.67-8.95-27.52-17.62-41.1-26.26,2.71-9.27,5.43-18.08,7.78-26.99.78-2.94.62-6.13.85-8.77,3.05-5.99,2.69-12.55,3.16-18.75.47-6.23,2.67-12.93-2.46-18.73.85.32,1.68.65,3.07,1.18V91.8c2.08.77,3.43,1.11,4.62,1.74,15.68,8.37,31.31,16.81,46.99,25.17,2.53,1.35,3.59,3.13,3.57,6.1-.1,27.61-.03,55.22-.08,82.83-.07,35.12-.32,70.24-.23,105.36.03,12.16,2.03,24.08,6.4,35.52.23.62.26,1.31.61,3.33-5.38-3.53-9.62-6.64-14.16-9.19Z"/>
    </g>
  </g>
</svg>